SplineFontDB: 3.0
FontName: Allan
FullName: Allan
FamilyName: Allan
Weight: Book
Copyright: Copyright: Copyright (c) 2010, Anton Koovit (info@kork.ee). All rights reserved. Licenced under SIL OFL v1.1
Version: 1.000
ItalicAngle: 0
UnderlinePosition: -204
UnderlineWidth: 102
Ascent: 1638
Descent: 410
LayerCount: 2
Layer: 0 1 "Back"  1
Layer: 1 1 "Fore"  0
NeedsXUIDChange: 1
XUID: [1021 720 1105852750 8035101]
FSType: 0
OS2Version: 2
OS2_WeightWidthSlopeOnly: 0
OS2_UseTypoMetrics: 1
CreationTime: 1332240476
ModificationTime: 1341254041
PfmFamily: 17
TTFWeight: 400
TTFWidth: 5
LineGap: 18
VLineGap: 0
Panose: 2 11 6 0 4 2 0 13 2 4
OS2TypoAscent: 1604
OS2TypoAOffset: 1
OS2TypoDescent: -543
OS2TypoDOffset: 1
OS2TypoLinegap: 1049
OS2WinAscent: 1831
OS2WinAOffset: 1
OS2WinDescent: 1071
OS2WinDOffset: 1
HheadAscent: 1831
HheadAOffset: 1
HheadDescent: -1071
HheadDOffset: 1
OS2SubXSize: 1434
OS2SubYSize: 1331
OS2SubXOff: 0
OS2SubYOff: 287
OS2SupXSize: 1434
OS2SupYSize: 1331
OS2SupXOff: 0
OS2SupYOff: 977
OS2StrikeYSize: 102
OS2StrikeYPos: 1085
OS2Vendor: 'KORK'
OS2CodePages: 00000001.00000000
OS2UnicodeRanges: 80000067.0000004b.00000000.00000000
Lookup: 1 0 0 "'titl' Titling lookup 0"  {"'titl' Titling lookup 0 subtable"  } ['titl' ('    ' <'dflt' > 'latn' <'dflt' > ) ]
Lookup: 258 0 0 "'kern' Horizontal Kerning lookup 0"  {"'kern' Horizontal Kerning lookup 0 subtable"  } ['kern' ('    ' <'dflt' > 'latn' <'dflt' > ) ]
MarkAttachClasses: 1
DEI: 91125
TtTable: prep
PUSHW_1
 511
SCANCTRL
PUSHB_1
 1
SCANTYPE
SVTCA[y-axis]
MPPEM
PUSHB_1
 8
LT
IF
PUSHB_2
 1
 1
INSTCTRL
EIF
PUSHB_2
 70
 6
CALL
IF
POP
PUSHB_1
 16
EIF
MPPEM
PUSHB_1
 20
GT
IF
POP
PUSHB_1
 128
EIF
SCVTCI
PUSHB_1
 6
CALL
NOT
IF
SVTCA[y-axis]
PUSHB_1
 6
DUP
RCVT
PUSHB_1
 3
CALL
WCVTP
PUSHB_1
 8
DUP
RCVT
PUSHB_3
 6
 80
 2
CALL
PUSHB_1
 3
CALL
WCVTP
PUSHB_1
 7
DUP
RCVT
PUSHB_3
 8
 22
 2
CALL
PUSHB_1
 3
CALL
WCVTP
PUSHB_1
 9
DUP
RCVT
PUSHB_3
 6
 166
 2
CALL
PUSHB_1
 3
CALL
WCVTP
SVTCA[x-axis]
PUSHB_1
 10
DUP
RCVT
PUSHB_1
 3

StartChar: .notdef
Encoding: 65536 -1 0
Width: 1495
Flags: W
HStem: 0 102<253 943> 1382 101<595 1285>
DStem2: 124 70 253 102 0.25722 0.966353<64.1047 1389.01> 943 102 1054 55 0.258187 0.966095<0 1324.9>
LayerCount: 2
Back
SplineSet
1422 1432 m 2,0,-1
 1054 55 l 2,1,2
 1046 23 1046 23 1029.5 11.5 c 128,-1,3
 1013 0 1013 0 980 0 c 2,4,-1
 165 0 l 2,5,6
 103 0 103 0 124 70 c 2,7,-1
 486 1430 l 2,8,9
 501 1483 501 1483 554 1483 c 2,10,-1
 1383 1483 l 2,11,12
 1437 1483 1437 1483 1422 1432 c 2,0,-1
595 1382 m 1,13,-1
 253 102 l 1,14,-1
 943 102 l 1,15,-1
 1285 1382 l 1,16,-1
 595 1382 l 1,13,-1
EndSplineSet
Fore
SplineSet
1422 1432 m 2,0,-1
 1054 55 l 2,1,2
 1046 23 1046 23 1029.5 11.5 c 128,-1,3
 1013 0 1013 0 980 0 c 2,4,-1
 165 0 l 2,5,6
 103 0 103 0 124 70 c 2,7,-1
 486 1430 l 2,8,9
 501 1483 501 1483 554 1483 c 2,10,-1
 1383 1483 l 2,11,12
 1437 1483 1437 1483 1422 1432 c 2,0,-1
595 1382 m 1,13,-1
 253 102 l 1,14,-1
 943 102 l 1,15,-1
 1285 1382 l 1,16,-1
 595 1382 l 1,13,-1
EndSplineSet
EndChar

StartChar: numbersign
Encoding: 35 35 4
Width: 1652
Flags: W
HStem: 0 21G<313.5 410.5 866.5 963.5> 467 141<99.705 396 591 949 1144 1434.83> 963 141<224.705 525 716 1078 1269 1559.83> 1534 20G<703.5 804 1256.5 1357>
DStem2: 292 66 448 45 0.251521 0.967852<-38.7254 414.267 599.78 926.767 1111.28 1548.91> 845 66 1001 45 0.246589 0.96912<-38.7803 414.262 598.993 926.756 1110.5 1546>
LayerCount: 2
Back
SplineSet
120 608 m 2,0,-1
 433 608 l 1,1,-1
 525 963 l 1,2,-1
 245 963 l 2,3,4
 185 963 185 963 206 1036 c 2,5,-1
 212 1063 l 2,6,7
 218 1090 218 1090 224.5 1097 c 128,-1,8
 231 1104 231 1104 245 1104 c 2,9,-1
 562 1104 l 1,10,-1
 667 1509 l 2,11,12
 679 1554 679 1554 728 1554 c 2,13,-1
 775 1554 l 2,14,15
 833 1554 833 1554 820 1507 c 2,16,-1
 716 1104 l 1,17,-1
 1115 1104 l 1,18,-1
 1220 1509 l 2,19,20
 1232 1554 1232 1554 1281 1554 c 2,21,-1
 1328 1554 l 2,22,23
 1386 1554 1386 1554 1373 1507 c 2,24,-1
 1269 1104 l 1,25,-1
 1543 1104 l 2,26,27
 1605 1104 1605 1104 1590 1038 c 0,28,29
 1582 993 1582 993 1560.5 978 c 128,-1,30
 1539 963 1539 963 1517 963 c 2,31,-1
 1234 963 l 1,32,-1
 1144 608 l 1,33,-1
 1418 608 l 2,34,35
 1480 608 1480 608 1465 543 c 0,36,37
 1457 498 1457 498 1435.5 482.5 c 128,-1,38
 1414 467 1414 467 1392 467 c 2,39,-1
 1107 467 l 1,40,-1
 1001 45 l 2,41,42
 988 0 988 0 939 0 c 2,43,-1
 904 0 l 2,44,45
 829 0 829 0 845 66 c 2,46,-1
 949 467 l 1,47,-1
 554 467 l 1,48,-1
 448 45 l 2,49,50
 435 0 435 0 386 0 c 2,51,-1
 351 0 l 2,52,53
 276 0 276 0 292 66 c 2,54,-1
 396 467 l 1,55,-1
 120 467 l 2,56,57
 61 467 61 467 81 541 c 2,58,-1
 87 567 l 2,59,60
 93 594 93 594 99.5 601 c 128,-1,61
 106 608 106 608 120 608 c 2,0,-1
591 608 m 1,62,-1
 986 608 l 1,63,-1
 1078 963 l 1,64,-1
 681 963 l 1,65,-1
 591 608 l 1,62,-1
EndSplineSet
Fore
SplineSet
120 608 m 2,0,-1
 433 608 l 1,1,-1
 525 963 l 1,2,-1
 245 963 l 2,3,4
 185 963 185 963 206 1036 c 2,5,-1
 212 1063 l 2,6,7
 218 1090 218 1090 224.5 1097 c 128,-1,8
 231 1104 231 1104 245 1104 c 2,9,-1
 562 1104 l 1,10,-1
 667 1509 l 2,11,12
 679 1554 679 1554 728 1554 c 2,13,-1
 775 1554 l 2,14,15
 833 1554 833 1554 820 1507 c 2,16,-1
 716 1104 l 1,17,-1
 1115 1104 l 1,18,-1
 1220 1509 l 2,19,20
 1232 1554 1232 1554 1281 1554 c 2,21,-1
 1328 1554 l 2,22,23
 1386 1554 1386 1554 1373 1507 c 2,24,-1
 1269 1104 l 1,25,-1
 1543 1104 l 2,26,27
 1605 1104 1605 1104 1590 1038 c 0,28,29
 1582 993 1582 993 1560.5 978 c 128,-1,30
 1539 963 1539 963 1517 963 c 2,31,-1
 1234 963 l 1,32,-1
 1144 608 l 1,33,-1
 1418 608 l 2,34,35
 1480 608 1480 608 1465 543 c 0,36,37
 1457 498 1457 498 1435.5 482.5 c 128,-1,38
 1414 467 1414 467 1392 467 c 2,39,-1
 1107 467 l 1,40,-1
 1001 45 l 2,41,42
 988 0 988 0 939 0 c 2,43,-1
 904 0 l 2,44,45
 829 0 829 0 845 66 c 2,46,-1
 949 467 l 1,47,-1
 554 467 l 1,48,-1
 448 45 l 2,49,50
 435 0 435 0 386 0 c 2,51,-1
 351 0 l 2,52,53
 276 0 276 0 292 66 c 2,54,-1
 396 467 l 1,55,-1
 120 467 l 2,56,57
 61 467 61 467 81 541 c 2,58,-1
 87 567 l 2,59,60
 93 594 93 594 99.5 601 c 128,-1,61
 106 608 106 608 120 608 c 2,0,-1
591 608 m 1,62,-1
 986 608 l 1,63,-1
 1078 963 l 1,64,-1
 681 963 l 1,65,-1
 591 608 l 1,62,-1
EndSplineSet
EndChar

StartChar: dollar
Encoding: 36 36 5
Width: 827
Flags: W
VStem: 15 152<186.28 525.159> 155 164.5<840.031 1088.85> 579 149<961.608 1259.62>
DStem2: 99 -18 245 -39 0.252091 0.967704<-39.4652 91.4602 1509.98 1622.77>
LayerCount: 2
Back
SplineSet
579 983 m 2,0,-1
 589 1126 l 2,1,2
 589 1233 589 1233 565.5 1260.5 c 128,-1,3
 542 1288 542 1288 509 1286 c 0,4,5
 431 1272 431 1272 382 1165.5 c 128,-1,6
 333 1059 333 1059 319.5 969 c 128,-1,7
 306 879 306 879 341 851 c 128,-1,8
 376 823 376 823 470 805 c 0,9,10
 628 770 628 770 610.5 583.5 c 128,-1,11
 593 397 593 397 503 246.5 c 128,-1,12
 413 96 413 96 271 61 c 1,13,-1
 245 -39 l 2,14,15
 233 -82 233 -82 185 -82 c 2,16,-1
 151 -82 l 2,17,18
 85 -82 85 -82 99 -18 c 2,19,-1
 124 70 l 1,20,21
 3 129 3 129 15 440 c 0,22,23
 18 492 18 492 58 524 c 2,24,-1
 99 549 l 2,25,26
 130 563 130 563 152.5 553 c 128,-1,27
 175 543 175 543 167 472 c 128,-1,28
 159 401 159 401 170 287.5 c 128,-1,29
 181 174 181 174 243 174 c 0,30,31
 304 176 304 176 358.5 256 c 128,-1,32
 413 336 413 336 432.5 428 c 128,-1,33
 452 520 452 520 454 569 c 0,34,35
 456 668 456 668 292 698 c 0,36,37
 153 725 153 725 155 856 c 0,38,39
 161 1036 161 1036 247 1196 c 128,-1,40
 333 1356 333 1356 462 1401 c 1,41,-1
 493 1520 l 2,42,43
 505 1563 505 1563 552 1563 c 2,44,-1
 597 1563 l 2,45,46
 652 1563 652 1563 640 1518 c 2,47,-1
 611 1409 l 1,48,49
 695 1384 695 1384 717.5 1291 c 128,-1,50
 740 1198 740 1198 728 1022 c 0,51,52
 724 977 724 977 683 961 c 2,53,-1
 624 940 l 1,54,55
 599 936 599 936 588 944 c 128,-1,56
 577 952 577 952 579 983 c 2,0,-1
EndSplineSet
Fore
SplineSet
579 983 m 2,0,-1
 589 1126 l 2,1,2
 589 1233 589 1233 565.5 1260.5 c 128,-1,3
 542 1288 542 1288 509 1286 c 0,4,5
 431 1272 431 1272 382 1165.5 c 128,-1,6
 333 1059 333 1059 319.5 969 c 128,-1,7
 306 879 306 879 341 851 c 128,-1,8
 376 823 376 823 470 805 c 0,9,10
 628 770 628 770 610.5 583.5 c 128,-1,11
 593 397 593 397 503 246.5 c 128,-1,12
 413 96 413 96 271 61 c 1,13,-1
 245 -39 l 2,14,15
 233 -82 233 -82 185 -82 c 2,16,-1
 151 -82 l 2,17,18
 85 -82 85 -82 99 -18 c 2,19,-1
 124 70 l 1,20,21
 3 129 3 129 15 440 c 0,22,23
 18 492 18 492 58 524 c 2,24,-1
 99 549 l 2,25,26
 130 563 130 563 152.5 553 c 128,-1,27
 175 543 175 543 167 472 c 128,-1,28
 159 401 159 401 170 287.5 c 128,-1,29
 181 174 181 174 243 174 c 0,30,31
 304 176 304 176 358.5 256 c 128,-1,32
 413 336 413 336 432.5 428 c 128,-1,33
 452 520 452 520 454 569 c 0,34,35
 456 668 456 668 292 698 c 0,36,37
 153 725 153 725 155 856 c 0,38,39
 161 1036 161 1036 247 1196 c 128,-1,40
 333 1356 333 1356 462 1401 c 1,41,-1
 493 1520 l 2,42,43
 505 1563 505 1563 552 1563 c 2,44,-1
 597 1563 l 2,45,46
 652 1563 652 1563 640 1518 c 2,47,-1
 611 1409 l 1,48,49
 695 1384 695 1384 717.5 1291 c 128,-1,50
 740 1198 740 1198 728 1022 c 0,51,52
 724 977 724 977 683 961 c 2,53,-1
 624 940 l 1,54,55
 599 936 599 936 588 944 c 128,-1,56
 577 952 577 952 579 983 c 2,0,-1
EndSplineSet
EndChar

StartChar: ampersand
Encoding: 38 38 7
Width: 1245
Flags: W
HStem: 721 127<764.081 863 1004 1184.11> 1255 119<565.834 778.125>
VStem: 304 149<743.659 1141.22> 863 141<583.905 721>
LayerCount: 2
Back
SplineSet
398 602 m 1,0,1
 310 557 310 557 247.5 480 c 128,-1,2
 185 403 185 403 177.5 318 c 128,-1,3
 170 233 170 233 219.5 175 c 128,-1,4
 269 117 269 117 377.5 120 c 128,-1,5
 486 123 486 123 607 225 c 1,6,7
 461 451 461 451 398 602 c 1,0,1
1004 721 m 1,8,9
 916 414 916 414 793 231 c 1,10,11
 891 94 891 94 992 -27 c 0,12,13
 1039 -86 1039 -86 970.5 -106.5 c 128,-1,14
 902 -127 902 -127 844 -90 c 1,15,16
 768 -8 768 -8 684 109 c 1,17,18
 510 -51 510 -51 287 -20 c 0,19,20
 140 2 140 2 67 96 c 128,-1,21
 -6 190 -6 190 15 336 c 0,22,23
 37 485 37 485 131.5 572 c 128,-1,24
 226 659 226 659 349 723 c 1,25,26
 304 844 304 844 304 945.5 c 128,-1,27
 304 1047 304 1047 353 1151 c 128,-1,28
 402 1255 402 1255 504.5 1322 c 128,-1,29
 607 1389 607 1389 756 1374 c 0,30,31
 791 1370 791 1370 785 1333 c 2,32,-1
 775 1284 l 1,33,34
 762 1255 762 1255 719 1255 c 0,35,36
 633 1264 633 1264 543 1196 c 0,37,38
 496 1161 496 1161 468.5 1088.5 c 128,-1,39
 441 1016 441 1016 453 904.5 c 128,-1,40
 465 793 465 793 568 586 c 0,41,42
 611 498 611 498 707 354 c 1,43,44
 822 537 822 537 863 721 c 1,45,-1
 781 721 l 2,46,47
 746 721 746 721 746 735.5 c 128,-1,48
 746 750 746 750 756 778 c 2,49,-1
 770 823 l 1,50,51
 775 848 775 848 801 848 c 2,52,-1
 1178 848 l 2,53,54
 1213 848 1213 848 1196 803 c 2,55,-1
 1188 778 l 2,56,57
 1174 721 1174 721 1145 721 c 2,58,-1
 1004 721 l 1,8,9
EndSplineSet
Fore
SplineSet
398 602 m 1,0,1
 310 557 310 557 247.5 480 c 128,-1,2
 185 403 185 403 177.5 318 c 128,-1,3
 170 233 170 233 219.5 175 c 128,-1,4
 269 117 269 117 377.5 120 c 128,-1,5
 486 123 486 123 607 225 c 1,6,7
 461 451 461 451 398 602 c 1,0,1
1004 721 m 1,8,9
 916 414 916 414 793 231 c 1,10,11
 891 94 891 94 992 -27 c 0,12,13
 1039 -86 1039 -86 970.5 -106.5 c 128,-1,14
 902 -127 902 -127 844 -90 c 1,15,16
 768 -8 768 -8 684 109 c 1,17,18
 510 -51 510 -51 287 -20 c 0,19,20
 140 2 140 2 67 96 c 128,-1,21
 -6 190 -6 190 15 336 c 0,22,23
 37 485 37 485 131.5 572 c 128,-1,24
 226 659 226 659 349 723 c 1,25,26
 304 844 304 844 304 945.5 c 128,-1,27
 304 1047 304 1047 353 1151 c 128,-1,28
 402 1255 402 1255 504.5 1322 c 128,-1,29
 607 1389 607 1389 756 1374 c 0,30,31
 791 1370 791 1370 785 1333 c 2,32,-1
 775 1284 l 1,33,34
 762 1255 762 1255 719 1255 c 0,35,36
 633 1264 633 1264 543 1196 c 0,37,38
 496 1161 496 1161 468.5 1088.5 c 128,-1,39
 441 1016 441 1016 453 904.5 c 128,-1,40
 465 793 465 793 568 586 c 0,41,42
 611 498 611 498 707 354 c 1,43,44
 822 537 822 537 863 721 c 1,45,-1
 781 721 l 2,46,47
 746 721 746 721 746 735.5 c 128,-1,48
 746 750 746 750 756 778 c 2,49,-1
 770 823 l 1,50,51
 775 848 775 848 801 848 c 2,52,-1
 1178 848 l 2,53,54
 1213 848 1213 848 1196 803 c 2,55,-1
 1188 778 l 2,56,57
 1174 721 1174 721 1145 721 c 2,58,-1
 1004 721 l 1,8,9
EndSplineSet
EndChar

StartChar: quotesingle
Encoding: 39 39 8
Width: 380
Flags: W
HStem: 1073 584
VStem: 323 159<1370.08 1656.67>
LayerCount: 2
Back
SplineSet
482 1612 m 0,0,1
 482 1487 482 1487 433 1358 c 0,2,3
 321 1073 321 1073 237 1073 c 0,4,5
 214 1073 214 1073 215 1106 c 128,-1,6
 216 1139 216 1139 254 1228 c 128,-1,7
 292 1317 292 1317 307.5 1393.5 c 128,-1,8
 323 1470 323 1470 323 1616 c 0,9,10
 323 1657 323 1657 374 1657 c 2,11,-1
 433 1657 l 1,12,13
 482 1665 482 1665 482 1612 c 0,0,1
EndSplineSet
Fore
SplineSet
482 1612 m 0,0,1
 482 1487 482 1487 433 1358 c 0,2,3
 321 1073 321 1073 237 1073 c 0,4,5
 214 1073 214 1073 215 1106 c 128,-1,6
 216 1139 216 1139 254 1228 c 128,-1,7
 292 1317 292 1317 307.5 1393.5 c 128,-1,8
 323 1470 323 1470 323 1616 c 0,9,10
 323 1657 323 1657 374 1657 c 2,11,-1
 433 1657 l 1,12,13
 482 1665 482 1665 482 1612 c 0,0,1
EndSplineSet
EndChar

StartChar: parenleft
Encoding: 40 40 9
Width: 811
Flags: W
VStem: 201 145<4.52417 717.38>
LayerCount: 2
Back
SplineSet
201 369 m 0,0,1
 201 731 201 731 375 1072 c 128,-1,2
 549 1413 549 1413 811 1661 c 0,3,4
 854 1702 854 1702 893 1698 c 2,5,-1
 954 1692 l 2,6,7
 981 1690 981 1690 986 1668.5 c 128,-1,8
 991 1647 991 1647 975 1634 c 0,9,10
 705 1397 705 1397 525.5 1057 c 128,-1,11
 346 717 346 717 346 389 c 0,12,13
 346 199 346 199 388 14.5 c 128,-1,14
 430 -170 430 -170 506 -270 c 0,15,16
 516 -283 516 -283 513 -298 c 128,-1,17
 510 -313 510 -313 494 -317 c 2,18,-1
 403 -342 l 1,19,20
 367 -362 367 -362 346 -322 c 0,21,22
 201 -55 201 -55 201 369 c 0,0,1
EndSplineSet
Fore
SplineSet
201 369 m 0,0,1
 201 731 201 731 375 1072 c 128,-1,2
 549 1413 549 1413 811 1661 c 0,3,4
 854 1702 854 1702 893 1698 c 2,5,-1
 954 1692 l 2,6,7
 981 1690 981 1690 986 1668.5 c 128,-1,8
 991 1647 991 1647 975 1634 c 0,9,10
 705 1397 705 1397 525.5 1057 c 128,-1,11
 346 717 346 717 346 389 c 0,12,13
 346 199 346 199 388 14.5 c 128,-1,14
 430 -170 430 -170 506 -270 c 0,15,16
 516 -283 516 -283 513 -298 c 128,-1,17
 510 -313 510 -313 494 -317 c 2,18,-1
 403 -342 l 1,19,20
 367 -362 367 -362 346 -322 c 0,21,22
 201 -55 201 -55 201 369 c 0,0,1
EndSplineSet
EndChar

StartChar: parenright
Encoding: 41 41 10
Width: 833
Flags: W
VStem: 482 146<633.104 1350.62>
LayerCount: 2
Back
SplineSet
480 1665 m 0,0,1
 628 1395 628 1395 628 1002.5 c 128,-1,2
 628 610 628 610 454.5 270 c 128,-1,3
 281 -70 281 -70 21 -317 c 0,4,5
 -7 -344 -7 -344 -21.5 -350 c 128,-1,6
 -36 -356 -36 -356 -63 -354 c 2,7,-1
 -130 -348 l 2,8,9
 -165 -344 -165 -344 -159 -313 c 0,10,11
 -155 -301 -155 -301 -144 -293 c 0,12,13
 128 -55 128 -55 305 284 c 128,-1,14
 482 623 482 623 482 996.5 c 128,-1,15
 482 1370 482 1370 322 1614 c 0,16,17
 310 1630 310 1630 315 1643.5 c 128,-1,18
 320 1657 320 1657 337 1661 c 2,19,-1
 423 1686 l 1,20,21
 460 1706 460 1706 480 1665 c 0,0,1
EndSplineSet
Fore
SplineSet
480 1665 m 0,0,1
 628 1395 628 1395 628 1002.5 c 128,-1,2
 628 610 628 610 454.5 270 c 128,-1,3
 281 -70 281 -70 21 -317 c 0,4,5
 -7 -344 -7 -344 -21.5 -350 c 128,-1,6
 -36 -356 -36 -356 -63 -354 c 2,7,-1
 -130 -348 l 2,8,9
 -165 -344 -165 -344 -159 -313 c 0,10,11
 -155 -301 -155 -301 -144 -293 c 0,12,13
 128 -55 128 -55 305 284 c 128,-1,14
 482 623 482 623 482 996.5 c 128,-1,15
 482 1370 482 1370 322 1614 c 0,16,17
 310 1630 310 1630 315 1643.5 c 128,-1,18
 320 1657 320 1657 337 1661 c 2,19,-1
 423 1686 l 1,20,21
 460 1706 460 1706 480 1665 c 0,0,1
EndSplineSet
EndChar

StartChar: asterisk
Encoding: 42 42 11
Width: 780
Flags: W
VStem: 110 662
LayerCount: 2
Back
SplineSet
344 1108 m 1,0,-1
 145 1141 l 2,1,2
 122 1143 122 1143 112 1164.5 c 128,-1,3
 102 1186 102 1186 110 1212 c 2,4,-1
 120 1241 l 1,5,6
 124 1262 124 1262 143.5 1275 c 128,-1,7
 163 1288 163 1288 182 1280 c 2,8,-1
 385 1198 l 1,9,-1
 413 1427 l 2,10,11
 421 1479 421 1479 489 1479 c 2,12,-1
 516 1479 l 2,13,14
 542 1479 542 1479 559.5 1461.5 c 128,-1,15
 577 1444 577 1444 567 1411 c 2,16,-1
 489 1194 l 1,17,-1
 702 1266 l 2,18,19
 772 1288 772 1288 772 1227 c 2,20,-1
 772 1196 l 2,21,22
 772 1149 772 1149 720 1139 c 2,23,-1
 483 1102 l 1,24,-1
 612 889 l 2,25,26
 639 842 639 842 593 815 c 2,27,-1
 563 799 l 2,28,29
 512 770 512 770 489 823 c 2,30,-1
 407 1034 l 1,31,-1
 241 836 l 2,32,33
 196 784 196 784 159 827 c 2,34,-1
 141 848 l 2,35,36
 106 889 106 889 147 928 c 2,37,-1
 344 1108 l 1,0,-1
EndSplineSet
Fore
SplineSet
344 1108 m 1,0,-1
 145 1141 l 2,1,2
 122 1143 122 1143 112 1164.5 c 128,-1,3
 102 1186 102 1186 110 1212 c 2,4,-1
 120 1241 l 1,5,6
 124 1262 124 1262 143.5 1275 c 128,-1,7
 163 1288 163 1288 182 1280 c 2,8,-1
 385 1198 l 1,9,-1
 413 1427 l 2,10,11
 421 1479 421 1479 489 1479 c 2,12,-1
 516 1479 l 2,13,14
 542 1479 542 1479 559.5 1461.5 c 128,-1,15
 577 1444 577 1444 567 1411 c 2,16,-1
 489 1194 l 1,17,-1
 702 1266 l 2,18,19
 772 1288 772 1288 772 1227 c 2,20,-1
 772 1196 l 2,21,22
 772 1149 772 1149 720 1139 c 2,23,-1
 483 1102 l 1,24,-1
 612 889 l 2,25,26
 639 842 639 842 593 815 c 2,27,-1
 563 799 l 2,28,29
 512 770 512 770 489 823 c 2,30,-1
 407 1034 l 1,31,-1
 241 836 l 2,32,33
 196 784 196 784 159 827 c 2,34,-1
 141 848 l 2,35,36
 106 889 106 889 147 928 c 2,37,-1
 344 1108 l 1,0,-1
EndSplineSet
EndChar

StartChar: plus
Encoding: 43 43 12
Width: 827
Flags: W
HStem: 594 141<91.8615 326 523 799.312>
DStem2: 258 332 416 330 0.254188 0.967155<-19.263 270.679 457.123 702.696>
LayerCount: 2
Back
SplineSet
746 594 m 2,0,-1
 486 594 l 1,1,-1
 416 330 l 2,2,3
 404 285 404 285 355 285 c 2,4,-1
 304 285 l 2,5,6
 246 285 246 285 258 332 c 2,7,-1
 326 594 l 1,8,-1
 99 594 l 2,9,10
 50 594 50 594 62 641 c 2,11,-1
 76 700 l 2,12,13
 80 721 80 721 91.5 728 c 128,-1,14
 103 735 103 735 123 735 c 2,15,-1
 363 735 l 1,16,-1
 422 956 l 2,17,18
 435 1001 435 1001 484 1001 c 2,19,-1
 535 1001 l 2,20,21
 592 1001 592 1001 580 954 c 2,22,-1
 523 735 l 1,23,-1
 775 735 l 2,24,25
 793 735 793 735 803 723 c 128,-1,26
 813 711 813 711 809 688 c 2,27,-1
 799 637 l 2,28,29
 789 594 789 594 746 594 c 2,0,-1
EndSplineSet
Fore
SplineSet
746 594 m 2,0,-1
 486 594 l 1,1,-1
 416 330 l 2,2,3
 404 285 404 285 355 285 c 2,4,-1
 304 285 l 2,5,6
 246 285 246 285 258 332 c 2,7,-1
 326 594 l 1,8,-1
 99 594 l 2,9,10
 50 594 50 594 62 641 c 2,11,-1
 76 700 l 2,12,13
 80 721 80 721 91.5 728 c 128,-1,14
 103 735 103 735 123 735 c 2,15,-1
 363 735 l 1,16,-1
 422 956 l 2,17,18
 435 1001 435 1001 484 1001 c 2,19,-1
 535 1001 l 2,20,21
 592 1001 592 1001 580 954 c 2,22,-1
 523 735 l 1,23,-1
 775 735 l 2,24,25
 793 735 793 735 803 723 c 128,-1,26
 813 711 813 711 809 688 c 2,27,-1
 799 637 l 2,28,29
 789 594 789 594 746 594 c 2,0,-1
EndSplineSet
EndChar

StartChar: comma
Encoding: 44 44 13
Width: 464
Flags: W
HStem: -336 590
VStem: 50 174<-29.4451 236.054>
LayerCount: 2
Back
SplineSet
224 213 m 0,0,1
 224 2 224 2 77 -248 c 0,2,3
 26 -336 26 -336 -26 -336 c 0,4,5
 -50 -336 -50 -336 -51 -309.5 c 128,-1,6
 -52 -283 -52 -283 -20.5 -207 c 128,-1,7
 11 -131 11 -131 26.5 -37 c 128,-1,8
 42 57 42 57 50 190 c 0,9,10
 50 225 50 225 93 236 c 2,11,-1
 175 254 l 2,12,13
 224 262 224 262 224 213 c 0,0,1
EndSplineSet
Fore
SplineSet
224 213 m 0,0,1
 224 2 224 2 77 -248 c 0,2,3
 26 -336 26 -336 -26 -336 c 0,4,5
 -50 -336 -50 -336 -51 -309.5 c 128,-1,6
 -52 -283 -52 -283 -20.5 -207 c 128,-1,7
 11 -131 11 -131 26.5 -37 c 128,-1,8
 42 57 42 57 50 190 c 0,9,10
 50 225 50 225 93 236 c 2,11,-1
 175 254 l 2,12,13
 224 262 224 262 224 213 c 0,0,1
EndSplineSet
EndChar

StartChar: hyphen
Encoding: 45 45 14
Width: 784
Flags: W
HStem: 594 141<111.865 680.299>
VStem: 99 592
LayerCount: 2
Back
SplineSet
144 735 m 2,0,-1
 656 735 l 2,1,2
 674 735 674 735 684.5 722 c 128,-1,3
 695 709 695 709 691 688 c 2,4,-1
 680 637 l 2,5,6
 672 594 672 594 627 594 c 2,7,-1
 136 594 l 2,8,9
 86 594 86 594 99 641 c 2,10,-1
 117 713 l 2,11,12
 123 735 123 735 144 735 c 2,0,-1
EndSplineSet
Fore
SplineSet
144 735 m 2,0,-1
 656 735 l 2,1,2
 674 735 674 735 684.5 722 c 128,-1,3
 695 709 695 709 691 688 c 2,4,-1
 680 637 l 2,5,6
 672 594 672 594 627 594 c 2,7,-1
 136 594 l 2,8,9
 86 594 86 594 99 641 c 2,10,-1
 117 713 l 2,11,12
 123 735 123 735 144 735 c 2,0,-1
EndSplineSet
EndChar

StartChar: period
Encoding: 46 46 15
Width: 399
Flags: W
HStem: -39 232<84.0042 254.964>
VStem: 51 238<-4.96509 157.934>
LayerCount: 2
Back
SplineSet
164 193 m 2,0,-1
 186 193 l 2,1,2
 225 193 225 193 257 158 c 128,-1,3
 289 123 289 123 289 75 c 128,-1,4
 289 27 289 27 256 -6 c 128,-1,5
 223 -39 223 -39 172 -39 c 2,6,-1
 152 -39 l 2,7,8
 111 -39 111 -39 81 -5 c 128,-1,9
 51 29 51 29 51 77 c 128,-1,10
 51 125 51 125 83 159 c 128,-1,11
 115 193 115 193 164 193 c 2,0,-1
EndSplineSet
Fore
SplineSet
164 193 m 2,0,-1
 186 193 l 2,1,2
 225 193 225 193 257 158 c 128,-1,3
 289 123 289 123 289 75 c 128,-1,4
 289 27 289 27 256 -6 c 128,-1,5
 223 -39 223 -39 172 -39 c 2,6,-1
 152 -39 l 2,7,8
 111 -39 111 -39 81 -5 c 128,-1,9
 51 29 51 29 51 77 c 128,-1,10
 51 125 51 125 83 159 c 128,-1,11
 115 193 115 193 164 193 c 2,0,-1
EndSplineSet
EndChar

StartChar: slash
Encoding: 47 47 16
Width: 847
Flags: W
HStem: 0 21G<56.5 156> 1536 20G<854.5 972>
DStem2: 44 63 200 45 0.46856 0.883431<-17.2422 1712.5>
LayerCount: 2
Back
SplineSet
874 1556 m 2,0,-1
 943 1556 l 2,1,2
 1001 1556 1001 1556 968 1493 c 2,3,-1
 200 45 l 2,4,5
 173 0 173 0 139 0 c 2,6,-1
 69 0 l 2,7,8
 44 0 44 0 37 20.5 c 128,-1,9
 30 41 30 41 44 63 c 2,10,-1
 812 1511 l 2,11,12
 835 1556 835 1556 874 1556 c 2,0,-1
EndSplineSet
Fore
SplineSet
874 1556 m 2,0,-1
 943 1556 l 2,1,2
 1001 1556 1001 1556 968 1493 c 2,3,-1
 200 45 l 2,4,5
 173 0 173 0 139 0 c 2,6,-1
 69 0 l 2,7,8
 44 0 44 0 37 20.5 c 128,-1,9
 30 41 30 41 44 63 c 2,10,-1
 812 1511 l 2,11,12
 835 1556 835 1556 874 1556 c 2,0,-1
EndSplineSet
EndChar

StartChar: zero
Encoding: 48 48 17
Width: 858
Flags: MW
HStem: -10 156<234 436> 1266 154<477 680>
VStem: 31 166<328 359> 714 169<1046 1100>
LayerCount: 2
Back
SplineSet
86 786 m 0,0,1
 164 1096 164 1096 309.5 1257.5 c 128,-1,2
 455 1419 455 1419 600 1419 c 128,-1,3
 745 1419 745 1419 814 1325 c 128,-1,4
 883 1231 883 1231 883 1045.5 c 128,-1,5
 883 860 883 860 810 594 c 128,-1,6
 737 328 737 328 604 159 c 128,-1,7
 471 -10 471 -10 333 -10 c 128,-1,8
 195 -10 195 -10 113 82 c 128,-1,9
 31 174 31 174 31 359.5 c 128,-1,10
 31 545 31 545 86 786 c 0,0,1
248 745 m 0,11,12
 184 510 184 510 196.5 327.5 c 128,-1,13
 209 145 209 145 313.5 145 c 128,-1,14
 418 145 418 145 501 260 c 128,-1,15
 584 375 584 375 653 641 c 0,16,17
 725 934 725 934 713.5 1100 c 128,-1,18
 702 1266 702 1266 598 1266 c 128,-1,19
 494 1266 494 1266 408 1149 c 128,-1,20
 322 1032 322 1032 248 745 c 0,11,12
EndSplineSet
Fore
SplineSet
86 786 m 0,0,1
 164 1096 164 1096 309.5 1257.5 c 128,-1,2
 455 1419 455 1419 600 1419 c 128,-1,3
 745 1419 745 1419 814 1325 c 128,-1,4
 883 1231 883 1231 883 1045.5 c 128,-1,5
 883 860 883 860 810 594 c 128,-1,6
 737 328 737 328 604 159 c 128,-1,7
 471 -10 471 -10 333 -10 c 128,-1,8
 195 -10 195 -10 113 82 c 128,-1,9
 31 174 31 174 31 359.5 c 128,-1,10
 31 545 31 545 86 786 c 0,0,1
248 745 m 0,11,12
 184 510 184 510 196.5 327.5 c 128,-1,13
 209 145 209 145 313.5 145 c 128,-1,14
 418 145 418 145 501 260 c 128,-1,15
 584 375 584 375 653 641 c 0,16,17
 725 934 725 934 713.5 1100 c 128,-1,18
 702 1266 702 1266 598 1266 c 128,-1,19
 494 1266 494 1266 408 1149 c 128,-1,20
 322 1032 322 1032 248 745 c 0,11,12
EndSplineSet
EndChar

StartChar: one
Encoding: 49 49 18
Width: 622
Flags: MW
HStem: 0 21G<181 274.5> 1373 20G
VStem: 67.5 570.5
DStem2: 152 63 308 45 0.247473 0.968895<-36.7416 1139.2>
LayerCount: 2
Back
SplineSet
605 1393 m 2,0,1
 628 1395 628 1395 636 1377.5 c 128,-1,2
 644 1360 644 1360 638 1337 c 2,3,-1
 308 45 l 2,4,5
 296 0 296 0 253 0 c 2,6,-1
 193 0 l 2,7,8
 169 0 169 0 157.5 18.5 c 128,-1,9
 146 37 146 37 152 63 c 2,10,-1
 433 1167 l 1,11,-1
 257 987 l 2,12,13
 212 942 212 942 173 942 c 2,14,-1
 114 942 l 2,15,16
 77 942 77 942 67.5 975 c 128,-1,17
 58 1008 58 1008 93 1040 c 2,18,-1
 365 1278 l 2,19,20
 480 1393 480 1393 527 1393 c 2,21,-1
 605 1393 l 2,0,1
EndSplineSet
Fore
SplineSet
612.021484375 1411.6796875 m 2,0,1
 635.935546875 1411.6796875 635.935546875 1411.6796875 643.021484375 1396.1796875 c 0,2,3
 650.967271722 1378.8029098 650.967271722 1378.8029098 645.021484375 1355.6796875 c 2,4,-1
 308 45 l 2,5,6
 296.428929706 0 296.428929706 0 253 0 c 2,7,-1
 193 0 l 2,8,9
 169 0 169 0 157.5 18.5 c 0,10,11
 145.525553818 37.7632395109 145.525553818 37.7632395109 152 63 c 2,12,-1
 440.021484375 1185.6796875 l 1,13,-1
 254.021484375 988.6796875 l 2,14,15
 211.53417473 943.6796875 211.53417473 943.6796875 170.021484375 943.6796875 c 2,16,-1
 111.021484375 943.6796875 l 2,17,18
 74.021484375 943.6796875 74.021484375 943.6796875 64.521484375 976.6796875 c 0,19,20
 54.9409537049 1009.95793104 54.9409537049 1009.95793104 90.021484375 1041.6796875 c 2,21,-1
 372.021484375 1296.6796875 l 2,22,23
 499.197954963 1411.6796875 499.197954963 1411.6796875 534.021484375 1411.6796875 c 2,24,-1
 612.021484375 1411.6796875 l 2,0,1
EndSplineSet
EndChar

StartChar: two
Encoding: 50 50 19
Width: 823
Flags: W
HStem: 0 139<121 664.955> 1290 127<413.133 648.156>
VStem: 171 149<988.194 1191.5>
DStem2: -44 145 121 139 0.65803 0.752992<104.057 1134.06>
LayerCount: 2
Back
SplineSet
121 139 m 1,0,-1
 629 147 l 2,1,2
 660 147 660 147 672.5 137 c 128,-1,3
 685 127 685 127 676 94 c 2,4,-1
 666 49 l 2,5,6
 656 0 656 0 597 0 c 2,7,-1
 11 0 l 2,8,9
 -53 0 -53 0 -69 50 c 128,-1,10
 -85 100 -85 100 -44 145 c 2,11,-1
 545 819 l 2,12,13
 635 922 635 922 670 1031.5 c 128,-1,14
 705 1141 705 1141 669 1215.5 c 128,-1,15
 633 1290 633 1290 540 1290 c 128,-1,16
 447 1290 447 1290 383.5 1217.5 c 128,-1,17
 320 1145 320 1145 320 1036 c 0,18,19
 320 1022 320 1022 307.5 1007.5 c 128,-1,20
 295 993 295 993 281 989 c 2,21,-1
 214 975 l 2,22,23
 193 971 193 971 182 985 c 128,-1,24
 171 999 171 999 171 1024 c 0,25,26
 171 1167 171 1167 276.5 1292 c 128,-1,27
 382 1417 382 1417 560 1417 c 0,28,29
 676 1417 676 1417 750 1352.5 c 128,-1,30
 824 1288 824 1288 838.5 1191 c 128,-1,31
 853 1094 853 1094 810 972 c 128,-1,32
 767 850 767 850 666 739 c 2,33,-1
 121 139 l 1,0,-1
EndSplineSet
Fore
SplineSet
121 139 m 1,0,-1
 629 147 l 2,1,2
 660 147 660 147 672.5 137 c 128,-1,3
 685 127 685 127 676 94 c 2,4,-1
 666 49 l 2,5,6
 656 0 656 0 597 0 c 2,7,-1
 11 0 l 2,8,9
 -53 0 -53 0 -69 50 c 128,-1,10
 -85 100 -85 100 -44 145 c 2,11,-1
 545 819 l 2,12,13
 635 922 635 922 670 1031.5 c 128,-1,14
 705 1141 705 1141 669 1215.5 c 128,-1,15
 633 1290 633 1290 540 1290 c 128,-1,16
 447 1290 447 1290 383.5 1217.5 c 128,-1,17
 320 1145 320 1145 320 1036 c 0,18,19
 320 1022 320 1022 307.5 1007.5 c 128,-1,20
 295 993 295 993 281 989 c 2,21,-1
 214 975 l 2,22,23
 193 971 193 971 182 985 c 128,-1,24
 171 999 171 999 171 1024 c 0,25,26
 171 1167 171 1167 276.5 1292 c 128,-1,27
 382 1417 382 1417 560 1417 c 0,28,29
 676 1417 676 1417 750 1352.5 c 128,-1,30
 824 1288 824 1288 838.5 1191 c 128,-1,31
 853 1094 853 1094 810 972 c 128,-1,32
 767 850 767 850 666 739 c 2,33,-1
 121 139 l 1,0,-1
EndSplineSet
EndChar

StartChar: three
Encoding: 51 51 20
Width: 782
Flags: W
HStem: -29 135<184.502 370.196> 649 135<248.688 432.005> 1286 125<394.648 590.207>
VStem: 11 144<131.438 297 297 367.562> 162 152<996.328 1199.26> 489.5 158.5<249.701 591.492> 626 146<917.211 1219.47>
LayerCount: 2
Back
SplineSet
289 649 m 0,0,1
 260 647 260 647 247 656.5 c 128,-1,2
 234 666 234 666 240 694 c 2,3,-1
 248 737 l 2,4,5
 254 786 254 786 332 784 c 0,6,7
 445 784 445 784 531 860 c 128,-1,8
 617 936 617 936 626 1046.5 c 128,-1,9
 635 1157 635 1157 602.5 1221.5 c 128,-1,10
 570 1286 570 1286 500 1286 c 128,-1,11
 430 1286 430 1286 375 1222.5 c 128,-1,12
 320 1159 320 1159 314 1047 c 0,13,14
 314 1006 314 1006 265 995 c 2,15,-1
 205 981 l 2,16,17
 179 975 179 975 169.5 991.5 c 128,-1,18
 160 1008 160 1008 162 1034 c 0,19,20
 170 1184 170 1184 265.5 1297.5 c 128,-1,21
 361 1411 361 1411 502 1411 c 128,-1,22
 643 1411 643 1411 710 1321 c 128,-1,23
 777 1231 777 1231 772 1081 c 0,24,25
 770 997 770 997 734 922 c 0,26,27
 658 768 658 768 506 711 c 1,28,29
 650 655 650 655 648 422 c 0,30,31
 648 252 648 252 535 111.5 c 128,-1,32
 422 -29 422 -29 244 -29 c 0,33,34
 101 -29 101 -29 52 82 c 0,35,36
 6 178 6 178 11 297 c 0,37,38
 11 348 11 348 43 362 c 2,39,-1
 107 391 l 2,40,41
 131 401 131 401 145.5 391 c 128,-1,42
 160 381 160 381 157 343 c 128,-1,43
 154 305 154 305 155 260 c 128,-1,44
 156 215 156 215 167.5 182.5 c 128,-1,45
 179 150 179 150 200.5 129.5 c 128,-1,46
 222 109 222 109 267 106 c 0,47,48
 342 106 342 106 407.5 189 c 128,-1,49
 473 272 473 272 489.5 388 c 128,-1,50
 506 504 506 504 457 576.5 c 128,-1,51
 408 649 408 649 289 649 c 0,0,1
EndSplineSet
Fore
SplineSet
289 649 m 0,0,1
 260 647 260 647 247 656.5 c 128,-1,2
 234 666 234 666 240 694 c 2,3,-1
 248 737 l 2,4,5
 254 786 254 786 332 784 c 0,6,7
 445 784 445 784 531 860 c 128,-1,8
 617 936 617 936 626 1046.5 c 128,-1,9
 635 1157 635 1157 602.5 1221.5 c 128,-1,10
 570 1286 570 1286 500 1286 c 128,-1,11
 430 1286 430 1286 375 1222.5 c 128,-1,12
 320 1159 320 1159 314 1047 c 0,13,14
 314 1006 314 1006 265 995 c 2,15,-1
 205 981 l 2,16,17
 179 975 179 975 169.5 991.5 c 128,-1,18
 160 1008 160 1008 162 1034 c 0,19,20
 170 1184 170 1184 265.5 1297.5 c 128,-1,21
 361 1411 361 1411 502 1411 c 128,-1,22
 643 1411 643 1411 710 1321 c 128,-1,23
 777 1231 777 1231 772 1081 c 0,24,25
 770 997 770 997 734 922 c 0,26,27
 658 768 658 768 506 711 c 1,28,29
 650 655 650 655 648 422 c 0,30,31
 648 252 648 252 535 111.5 c 128,-1,32
 422 -29 422 -29 244 -29 c 0,33,34
 101 -29 101 -29 52 82 c 0,35,36
 6 178 6 178 11 297 c 0,37,38
 11 348 11 348 43 362 c 2,39,-1
 107 391 l 2,40,41
 131 401 131 401 145.5 391 c 128,-1,42
 160 381 160 381 157 343 c 128,-1,43
 154 305 154 305 155 260 c 128,-1,44
 156 215 156 215 167.5 182.5 c 128,-1,45
 179 150 179 150 200.5 129.5 c 128,-1,46
 222 109 222 109 267 106 c 0,47,48
 342 106 342 106 407.5 189 c 128,-1,49
 473 272 473 272 489.5 388 c 128,-1,50
 506 504 506 504 457 576.5 c 128,-1,51
 408 649 408 649 289 649 c 0,0,1
EndSplineSet
EndChar

StartChar: four
Encoding: 52 52 21
Width: 860
Flags: MW
HStem: 0 21G<432 528.5> 330 141<164 471 672 777.97> 1373 20G<624.5 738>
DStem2: -10 485 164 469 0.558389 0.829579<83.8864 1124.31> 403 63 565 45 0.243523 0.969895<-35.1933 275.522 461.225 771.734>
LayerCount: 2
Back
SplineSet
717 330 m 2,0,-1
 637 330 l 1,1,-1
 565 45 l 2,2,3
 553 0 553 0 504 0 c 2,4,-1
 444 0 l 2,5,6
 420 0 420 0 408.5 18.5 c 128,-1,7
 397 37 397 37 403 63 c 2,8,-1
 471 330 l 1,9,-1
 43 330 l 2,10,11
 -21 330 -21 330 -35 382 c 128,-1,12
 -49 434 -49 434 -10 485 c 2,13,-1
 583 1366 l 2,14,15
 604 1393 604 1393 645 1393 c 2,16,-1
 721 1393 l 2,17,18
 755 1393 755 1393 760.5 1369.5 c 128,-1,19
 766 1346 766 1346 745 1317 c 2,20,-1
 164 469 l 1,21,-1
 506 471 l 1,22,-1
 577 756 l 2,23,24
 590 801 590 801 639 801 c 2,25,-1
 698 801 l 2,26,27
 723 801 723 801 734 782.5 c 128,-1,28
 745 764 745 764 739 737 c 2,29,-1
 672 471 l 1,30,-1
 747 471 l 2,31,32
 780 471 780 471 791.5 461 c 128,-1,33
 803 451 803 451 794 426 c 2,34,-1
 774 362 l 2,35,36
 764 330 764 330 717 330 c 2,0,-1
EndSplineSet
Fore
SplineSet
717 330 m 2,0,-1
 637 330 l 1,1,-1
 565 45 l 2,2,3
 553.631578947 0 553.631578947 0 504 0 c 2,4,-1
 444 0 l 2,5,6
 420 0 420 0 408.5 18.5 c 0,7,8
 396.55896962 37.7094836548 396.55896962 37.7094836548 403 63 c 2,9,-1
 471 330 l 1,10,-1
 43 330 l 2,11,12
 -21 330 -21 330 -35 382 c 0,13,14
 -47.647623579 428.976887579 -47.647623579 428.976887579 -10 485 c 2,15,-1
 594.016601562 1383.83203125 l 2,16,17
 612.160645917 1410.83203125 612.160645917 1410.83203125 656.016601562 1410.83203125 c 2,18,-1
 732.016601562 1410.83203125 l 2,19,20
 766.016601562 1410.83203125 766.016601562 1410.83203125 771.516601562 1387.33203125 c 0,21,22
 776.717621115 1365.10754339 776.717621115 1365.10754339 756.016601562 1334.83203125 c 2,23,-1
 164 469 l 1,24,-1
 506 471 l 1,25,-1
 577 756 l 2,26,27
 588.210526316 801 588.210526316 801 639 801 c 2,28,-1
 698 801 l 2,29,30
 723 801 723 801 734 782.5 c 0,31,32
 745.562477494 763.054015124 745.562477494 763.054015124 739 737 c 2,33,-1
 672 471 l 1,34,-1
 747 471 l 2,35,36
 780 471 780 471 791.5 461 c 0,37,38
 802.066239316 451.811965812 802.066239316 451.811965812 794 426 c 2,39,-1
 774 362 l 2,40,41
 764 330 764 330 717 330 c 2,0,-1
EndSplineSet
EndChar

StartChar: five
Encoding: 53 53 22
Width: 866
Flags: MW
HStem: -23 129<261 269> 793 137<390 575> 1253 139<448 915>
VStem: 37 161<175 200> 586 142<516 685>
DStem2: 142 702 339 872 0.271098 0.962552<-25.9392 38.3093 216.918 613.008>
LayerCount: 2
Back
SplineSet
339 872 m 1,0,1
 425 930 425 930 542 930 c 0,2,3
 818 930 818 930 728 516 c 0,4,5
 677 285 677 285 535.5 132.5 c 128,-1,6
 394 -20 394 -20 261 -23 c 0,7,8
 149 -33 149 -33 91.5 34.5 c 128,-1,9
 34 102 34 102 37 199.5 c 128,-1,10
 40 297 40 297 91 383 c 0,11,12
 110 414 110 414 147 401 c 2,13,-1
 190 387 l 2,14,15
 239 371 239 371 220 334 c 0,16,17
 179 238 179 238 197.5 175.5 c 128,-1,18
 216 113 216 113 269.5 106.5 c 128,-1,19
 323 100 323 100 406 204.5 c 128,-1,20
 489 309 489 309 538 447.5 c 128,-1,21
 587 586 587 586 586 685 c 128,-1,22
 585 784 585 784 534 793 c 0,23,24
 450 797 450 797 399.5 758 c 128,-1,25
 349 719 349 719 294 633 c 0,26,27
 272 600 272 600 235 612 c 2,28,-1
 167 643 l 2,29,30
 147 651 147 651 141.5 662.5 c 128,-1,31
 136 674 136 674 142 702 c 2,32,-1
 325 1350 l 2,33,34
 337 1393 337 1393 386 1393 c 2,35,-1
 896 1393 l 2,36,37
 956 1393 956 1393 941 1341 c 2,38,-1
 929 1286 l 2,39,40
 923 1260 923 1260 915.5 1252.5 c 128,-1,41
 908 1245 908 1245 888 1245 c 2,42,-1
 448 1253 l 1,43,-1
 339 872 l 1,0,1
EndSplineSet
Fore
SplineSet
339 872 m 1,0,1
 425 930 425 930 542 930 c 0,2,3
 819.402597403 930 819.402597403 930 728 516 c 0,4,5
 677 285 677 285 535.5 132.5 c 0,6,7
 397.959434732 -15.7327646877 397.959434732 -15.7327646877 261 -23 c 0,8,9
 145.693375759 -29.118310674 145.693375759 -29.118310674 91.5 34.5 c 0,10,11
 34 102 34 102 37 199.5 c 0,12,13
 40.0903665814 299.936913896 40.0903665814 299.936913896 91 383 c 0,14,15
 109.512820513 413.205128205 109.512820513 413.205128205 147 401 c 2,16,-1
 190 387 l 2,17,18
 237.006255285 371.695637814 237.006255285 371.695637814 220 334 c 0,19,20
 178.084812544 241.091849513 178.084812544 241.091849513 197.5 175.5 c 0,21,22
 216 113 216 113 269.5 106.5 c 128,-1,23
 323 100 323 100 406 204.5 c 128,-1,24
 489 309 489 309 538 447.5 c 128,-1,25
 587 586 587 586 586 685 c 0,26,27
 584.958657879 788.092869982 584.958657879 788.092869982 534 793 c 0,28,29
 454.707590982 800.635565313 454.707590982 800.635565313 399.5 758 c 0,30,31
 353.80952381 722.714285714 353.80952381 722.714285714 294 633 c 0,32,33
 269.511278195 596.266917293 269.511278195 596.266917293 235 612 c 2,34,-1
 167 643 l 2,35,36
 146.316434996 652.429272281 146.316434996 652.429272281 141.5 662.5 c 0,37,38
 134.800052119 676.508981933 134.800052119 676.508981933 142 702 c 2,39,-1
 330.021484375 1367.6796875 l 2,40,41
 342.166850953 1410.6796875 342.166850953 1410.6796875 391.021484375 1410.6796875 c 2,42,-1
 901.021484375 1410.6796875 l 2,43,44
 957.36693892 1410.6796875 957.36693892 1410.6796875 946.021484375 1358.6796875 c 2,45,-1
 934.021484375 1303.6796875 l 2,46,47
 928.439543962 1278.09579394 928.439543962 1278.09579394 920.521484375 1270.1796875 c 128,-1,48
 912.666259706 1262.32250977 912.666259706 1262.32250977 893.021484375 1262.6796875 c 2,49,-1
 453.021484375 1270.6796875 l 1,50,-1
 339 872 l 1,0,1
EndSplineSet
EndChar

StartChar: six
Encoding: 54 54 23
Width: 837
Flags: MW
HStem: -27 131<223 381> 809 127<345 526> 1366 41G<664 922>
VStem: 37 164<125 631> 559 158<543 584>
LayerCount: 2
Back
SplineSet
283 764 m 1,0,1
 156 393 156 393 201 207 c 0,2,3
 226 104 226 104 293 104 c 0,4,5
 377 104 377 104 460 260 c 128,-1,6
 543 416 543 416 559 543 c 0,7,8
 592 809 592 809 430 809 c 0,9,10
 359 809 359 809 283 764 c 1,0,1
342 901 m 1,11,12
 420 940 420 940 504 936 c 0,13,14
 742 924 742 924 717 584 c 0,15,16
 709 463 709 463 654.5 325.5 c 128,-1,17
 600 188 600 188 499 80.5 c 128,-1,18
 398 -27 398 -27 281 -27 c 0,19,20
 103 -27 103 -27 45 172 c 0,21,22
 17 268 17 268 37.5 428 c 128,-1,23
 58 588 58 588 131 791 c 0,24,25
 236 1077 236 1077 417 1241 c 128,-1,26
 598 1405 598 1405 729 1407 c 2,27,-1
 922 1384 l 2,28,29
 940 1382 940 1382 950.5 1369 c 128,-1,30
 961 1356 961 1356 950.5 1341.5 c 128,-1,31
 940 1327 940 1327 889 1320 c 128,-1,32
 838 1313 838 1313 766.5 1286.5 c 128,-1,33
 695 1260 695 1260 617 1212 c 0,34,35
 449 1110 449 1110 342 901 c 1,11,12
EndSplineSet
Fore
SplineSet
283 764 m 1,0,1
 156 393 156 393 201 207 c 0,2,3
 226 104 226 104 293 104 c 0,4,5
 377 104 377 104 460 260 c 128,-1,6
 543 416 543 416 559 543 c 0,7,8
 592 809 592 809 430 809 c 0,9,10
 359 809 359 809 283 764 c 1,0,1
342 901 m 1,11,12
 420 940 420 940 504 936 c 0,13,14
 742 924 742 924 717 584 c 0,15,16
 709 463 709 463 654.5 325.5 c 128,-1,17
 600 188 600 188 499 80.5 c 128,-1,18
 398 -27 398 -27 281 -27 c 0,19,20
 103 -27 103 -27 45 172 c 0,21,22
 17 268 17 268 37.5 428 c 128,-1,23
 58 588 58 588 131 791 c 0,24,25
 236 1077 236 1077 417 1241 c 128,-1,26
 598 1405 598 1405 729 1407 c 2,27,-1
 922 1384 l 2,28,29
 940 1382 940 1382 950.5 1369 c 128,-1,30
 961 1356 961 1356 950.5 1341.5 c 128,-1,31
 940 1327 940 1327 889 1320 c 128,-1,32
 838 1313 838 1313 766.5 1286.5 c 128,-1,33
 695 1260 695 1260 617 1212 c 0,34,35
 449 1110 449 1110 342 901 c 1,11,12
EndSplineSet
EndChar

StartChar: seven
Encoding: 55 55 24
Width: 851
Flags: W
HStem: 1245 148<178.222 728>
DStem2: 103 84 261 43 0.45903 0.888421<-32.2265 1318.35>
LayerCount: 2
Back
SplineSet
896 1272 m 2,0,-1
 261 43 l 2,1,2
 238 -4 238 -4 193 2 c 2,3,-1
 140 8 l 2,4,5
 103 10 103 10 95 33.5 c 128,-1,6
 87 57 87 57 103 84 c 2,7,-1
 728 1245 l 1,8,-1
 193 1241 l 2,9,10
 134 1241 134 1241 150 1298 c 2,11,-1
 165 1352 l 2,12,13
 171 1378 171 1378 178 1385.5 c 128,-1,14
 185 1393 185 1393 205 1393 c 2,15,-1
 847 1393 l 2,16,17
 885 1393 885 1393 905.5 1363 c 128,-1,18
 926 1333 926 1333 896 1272 c 2,0,-1
EndSplineSet
Fore
SplineSet
905.04296875 1289.359375 m 2,0,-1
 261 43 l 2,1,2
 237.226489054 -3.00677234574 237.226489054 -3.00677234574 193 2 c 2,3,-1
 140 8 l 2,4,5
 102.225052192 12.2764091858 102.225052192 12.2764091858 95 33.5 c 0,6,7
 87.5704272817 55.3243698599 87.5704272817 55.3243698599 103 84 c 2,8,-1
 737.04296875 1262.359375 l 1,9,-1
 202.04296875 1258.359375 l 2,10,11
 143.087193516 1257.91858416 143.087193516 1257.91858416 159.04296875 1315.359375 c 2,12,-1
 174.04296875 1369.359375 l 2,13,14
 181.782971393 1397.22338452 181.782971393 1397.22338452 187.04296875 1402.859375 c 0,15,16
 194.04296875 1410.359375 194.04296875 1410.359375 214.04296875 1410.359375 c 2,17,-1
 856.04296875 1410.359375 l 2,18,19
 894.04296875 1410.359375 894.04296875 1410.359375 914.54296875 1380.359375 c 0,20,21
 935.910116904 1349.09383582 935.910116904 1349.09383582 905.04296875 1289.359375 c 2,0,-1
EndSplineSet
EndChar

StartChar: eight
Encoding: 56 56 25
Width: 843
Flags: MW
HStem: -27 133<228 444> 1291 132<432.239 655.691>
VStem: 31 154<148 443> 178 160<887 1184> 555 166<233 581> 690 164<1090 1126>
LayerCount: 2
Back
SplineSet
319 721 m 1,0,1
 254 768 254 768 216 840.5 c 128,-1,2
 178 913 178 913 178 997 c 0,3,4
 178 1153 178 1153 290.5 1288 c 128,-1,5
 403 1423 403 1423 578 1423 c 4,6,7
 705 1423 705 1423 779.5 1341.5 c 128,-1,8
 854 1260 854 1260 854 1126 c 0,9,10
 854 1036 854 1036 807 950 c 0,11,12
 725 805 725 805 584 725 c 1,13,14
 649 668 649 668 685 586 c 128,-1,15
 721 504 721 504 721 418 c 0,16,17
 721 256 721 256 604 114.5 c 128,-1,18
 487 -27 487 -27 309 -27 c 0,19,20
 31 -27 31 -27 31 270 c 0,21,22
 31 504 31 504 319 721 c 1,0,1
434 657 m 1,23,24
 299 582 299 582 223 434 c 0,25,26
 184 360 184 360 184 287.5 c 128,-1,27
 184 215 184 215 219 160.5 c 128,-1,28
 254 106 254 106 337 106 c 128,-1,29
 420 106 420 106 487.5 198.5 c 128,-1,30
 555 291 555 291 555 391 c 0,31,32
 555 584 555 584 434 657 c 1,23,24
479 799 m 1,33,34
 559 840 559 840 623 924 c 0,35,36
 686 1010 686 1010 690 1090 c 0,37,38
 702 1280 702 1280 561 1292 c 4,39,40
 473 1298 473 1298 405.5 1222.5 c 128,-1,41
 338 1147 338 1147 338 1054 c 128,-1,42
 338 961 338 961 367.5 908.5 c 128,-1,43
 397 856 397 856 479 799 c 1,33,34
EndSplineSet
Fore
SplineSet
319 721 m 1,0,1
 254 768 254 768 216 840.5 c 128,-1,2
 178 913 178 913 178 997 c 0,3,4
 178 1153 178 1153 290.5 1288 c 128,-1,5
 403 1423 403 1423 578 1423 c 0,6,7
 705 1423 705 1423 779.5 1341.5 c 128,-1,8
 854 1260 854 1260 854 1126 c 0,9,10
 854 1036 854 1036 807 950 c 0,11,12
 725 805 725 805 584 725 c 1,13,14
 649 668 649 668 685 586 c 128,-1,15
 721 504 721 504 721 418 c 0,16,17
 721 256 721 256 604 114.5 c 128,-1,18
 487 -27 487 -27 309 -27 c 0,19,20
 31 -27 31 -27 31 270 c 0,21,22
 31 504 31 504 319 721 c 1,0,1
434 657 m 1,23,24
 299 582 299 582 223 434 c 0,25,26
 184 360 184 360 184 287.5 c 128,-1,27
 184 215 184 215 219 160.5 c 128,-1,28
 254 106 254 106 337 106 c 128,-1,29
 420 106 420 106 487.5 198.5 c 128,-1,30
 555 291 555 291 555 391 c 0,31,32
 555 584 555 584 434 657 c 1,23,24
479 799 m 1,33,34
 562.946939725 842.022806609 562.946939725 842.022806609 623 924 c 0,35,36
 684.84805266 1008.42750046 684.84805266 1008.42750046 690 1090 c 0,37,38
 702.315035525 1292.73618027 702.315035525 1292.73618027 548 1291 c 0,39,40
 462 1290 462 1290 400 1218.5 c 128,-1,41
 338 1147 338 1147 338 1054 c 128,-1,42
 338 961 338 961 367.5 908.5 c 128,-1,43
 397 856 397 856 479 799 c 1,33,34
EndSplineSet
EndChar

StartChar: nine
Encoding: 57 57 26
Width: 884
Flags: MW
HStem: -33 135<174 334> 455 125<351 549> 1280 127<496 671>
VStem: 6 158<112 346> 162 158<609 1001> 690 156<792 1233>
LayerCount: 2
Back
SplineSet
604 649 m 1,0,1
 723 1022 723 1022 690 1182 c 0,2,3
 670 1280 670 1280 594 1280 c 0,4,5
 528 1280 528 1280 463.5 1201 c 128,-1,6
 399 1122 399 1122 359 1000.5 c 128,-1,7
 319 879 319 879 319 758 c 0,8,9
 319 580 319 580 446 580 c 0,10,11
 475 580 475 580 527.5 598 c 128,-1,12
 580 616 580 616 604 649 c 1,0,1
551 498 m 1,13,14
 477 455 477 455 401 455 c 0,15,16
 281 455 281 455 221.5 533.5 c 128,-1,17
 162 612 162 612 162 746.5 c 128,-1,18
 162 881 162 881 218 1036.5 c 128,-1,19
 274 1192 274 1192 380.5 1299.5 c 128,-1,20
 487 1407 487 1407 614 1407 c 0,21,22
 774 1407 774 1407 836 1233 c 0,23,24
 866 1143 866 1143 845.5 977 c 128,-1,25
 825 811 825 811 748 590 c 0,26,27
 528 -33 528 -33 205 -33 c 0,28,29
 6 -33 6 -33 6 274 c 0,30,31
 6 334 6 334 47 346 c 2,32,-1
 111 365 l 2,33,34
 135 373 135 373 149.5 364.5 c 128,-1,35
 164 356 164 356 164 332.5 c 128,-1,36
 164 309 164 309 161 252 c 128,-1,37
 158 195 158 195 172 149.5 c 128,-1,38
 186 104 186 104 231 102 c 0,39,40
 334 102 334 102 442 274 c 0,41,42
 500 362 500 362 551 498 c 1,13,14
EndSplineSet
Fore
SplineSet
604 649 m 1,0,1
 723 1022 723 1022 690 1182 c 0,2,3
 670 1280 670 1280 594 1280 c 0,4,5
 528 1280 528 1280 463.5 1201 c 128,-1,6
 399 1122 399 1122 359 1000.5 c 128,-1,7
 319 879 319 879 319 758 c 0,8,9
 319 580 319 580 446 580 c 0,10,11
 475 580 475 580 527.5 598 c 128,-1,12
 580 616 580 616 604 649 c 1,0,1
551 498 m 1,13,14
 477 455 477 455 401 455 c 0,15,16
 281 455 281 455 221.5 533.5 c 128,-1,17
 162 612 162 612 162 746.5 c 128,-1,18
 162 881 162 881 218 1036.5 c 128,-1,19
 274 1192 274 1192 380.5 1299.5 c 128,-1,20
 487 1407 487 1407 614 1407 c 0,21,22
 774 1407 774 1407 836 1233 c 0,23,24
 866 1143 866 1143 845.5 977 c 128,-1,25
 825 811 825 811 748 590 c 0,26,27
 528 -33 528 -33 205 -33 c 0,28,29
 6 -33 6 -33 6 274 c 0,30,31
 6 334 6 334 47 346 c 2,32,-1
 111 365 l 2,33,34
 135 373 135 373 149.5 364.5 c 128,-1,35
 164 356 164 356 164 332.5 c 128,-1,36
 164 309 164 309 161 252 c 128,-1,37
 158 195 158 195 172 149.5 c 128,-1,38
 186 104 186 104 231 102 c 0,39,40
 334 102 334 102 442 274 c 0,41,42
 500 362 500 362 551 498 c 1,13,14
EndSplineSet
EndChar

StartChar: colon
Encoding: 58 58 27
Width: 675
Flags: W
HStem: -39 232<84.0042 254.964> 842 231<288.489 459.964>
VStem: 51 238<-4.96509 157.934> 256 238<876.551 1038.45>
LayerCount: 2
Back
SplineSet
369 1073 m 2,0,-1
 391 1073 l 2,1,2
 430 1073 430 1073 462 1038.5 c 128,-1,3
 494 1004 494 1004 494 955.5 c 128,-1,4
 494 907 494 907 461 874.5 c 128,-1,5
 428 842 428 842 377 842 c 2,6,-1
 356 842 l 2,7,8
 315 842 315 842 285.5 875.5 c 128,-1,9
 256 909 256 909 256 957.5 c 128,-1,10
 256 1006 256 1006 287.5 1039.5 c 128,-1,11
 319 1073 319 1073 369 1073 c 2,0,-1
164 193 m 2,12,-1
 186 193 l 2,13,14
 225 193 225 193 257 158 c 128,-1,15
 289 123 289 123 289 75 c 128,-1,16
 289 27 289 27 256 -6 c 128,-1,17
 223 -39 223 -39 172 -39 c 2,18,-1
 152 -39 l 2,19,20
 111 -39 111 -39 81 -5 c 128,-1,21
 51 29 51 29 51 77 c 128,-1,22
 51 125 51 125 83 159 c 128,-1,23
 115 193 115 193 164 193 c 2,12,-1
EndSplineSet
Fore
SplineSet
369 1073 m 2,0,-1
 391 1073 l 2,1,2
 430 1073 430 1073 462 1038.5 c 128,-1,3
 494 1004 494 1004 494 955.5 c 128,-1,4
 494 907 494 907 461 874.5 c 128,-1,5
 428 842 428 842 377 842 c 2,6,-1
 356 842 l 2,7,8
 315 842 315 842 285.5 875.5 c 128,-1,9
 256 909 256 909 256 957.5 c 128,-1,10
 256 1006 256 1006 287.5 1039.5 c 128,-1,11
 319 1073 319 1073 369 1073 c 2,0,-1
164 193 m 2,12,-1
 186 193 l 2,13,14
 225 193 225 193 257 158 c 128,-1,15
 289 123 289 123 289 75 c 128,-1,16
 289 27 289 27 256 -6 c 128,-1,17
 223 -39 223 -39 172 -39 c 2,18,-1
 152 -39 l 2,19,20
 111 -39 111 -39 81 -5 c 128,-1,21
 51 29 51 29 51 77 c 128,-1,22
 51 125 51 125 83 159 c 128,-1,23
 115 193 115 193 164 193 c 2,12,-1
EndSplineSet
EndChar

StartChar: semicolon
Encoding: 59 59 28
Width: 471
Flags: W
HStem: 842 231<270.489 441.48>
VStem: 74 174<-29.4451 236.054> 238 237<876.551 1038.45>
LayerCount: 2
Back
SplineSet
350 1073 m 2,0,-1
 373 1073 l 2,1,2
 412 1073 412 1073 443.5 1038.5 c 128,-1,3
 475 1004 475 1004 475 955.5 c 128,-1,4
 475 907 475 907 442.5 874.5 c 128,-1,5
 410 842 410 842 358 842 c 2,6,-1
 338 842 l 2,7,8
 297 842 297 842 267.5 875.5 c 128,-1,9
 238 909 238 909 238 957.5 c 128,-1,10
 238 1006 238 1006 269.5 1039.5 c 128,-1,11
 301 1073 301 1073 350 1073 c 2,0,-1
248 213 m 0,12,13
 248 2 248 2 100 -248 c 0,14,15
 49 -336 49 -336 -2 -336 c 0,16,17
 -27 -336 -27 -336 -27 -309.5 c 128,-1,18
 -27 -283 -27 -283 5 -193.5 c 128,-1,19
 37 -104 37 -104 53.5 1 c 128,-1,20
 70 106 70 106 74 190 c 0,21,22
 74 225 74 225 117 236 c 2,23,-1
 199 254 l 2,24,25
 248 262 248 262 248 213 c 0,12,13
EndSplineSet
Fore
SplineSet
350 1073 m 2,0,-1
 373 1073 l 2,1,2
 412 1073 412 1073 443.5 1038.5 c 128,-1,3
 475 1004 475 1004 475 955.5 c 128,-1,4
 475 907 475 907 442.5 874.5 c 128,-1,5
 410 842 410 842 358 842 c 2,6,-1
 338 842 l 2,7,8
 297 842 297 842 267.5 875.5 c 128,-1,9
 238 909 238 909 238 957.5 c 128,-1,10
 238 1006 238 1006 269.5 1039.5 c 128,-1,11
 301 1073 301 1073 350 1073 c 2,0,-1
248 213 m 0,12,13
 248 2 248 2 100 -248 c 0,14,15
 49 -336 49 -336 -2 -336 c 0,16,17
 -27 -336 -27 -336 -27 -309.5 c 128,-1,18
 -27 -283 -27 -283 5 -193.5 c 128,-1,19
 37 -104 37 -104 53.5 1 c 128,-1,20
 70 106 70 106 74 190 c 0,21,22
 74 225 74 225 117 236 c 2,23,-1
 199 254 l 2,24,25
 248 262 248 262 248 213 c 0,12,13
EndSplineSet
EndChar

StartChar: less
Encoding: 60 60 29
Width: 968
Flags: W
DStem2: 207 627 55 547 0.932851 -0.360262<0 634.896> 84 711 207 627 0.946242 0.32346<89.2171 859.929>
LayerCount: 2
Back
SplineSet
207 627 m 1,0,-1
 743 420 l 2,1,2
 792 401 792 401 782 344 c 2,3,-1
 774 303 l 2,4,5
 768 270 768 270 753.5 264 c 128,-1,6
 739 258 739 258 710 270 c 2,7,-1
 55 547 l 2,8,9
 6 567 6 567 16 618 c 2,10,-1
 22 647 l 2,11,12
 30 692 30 692 84 711 c 2,13,-1
 868 979 l 2,14,15
 907 991 907 991 919.5 973.5 c 128,-1,16
 932 956 932 956 923 924 c 2,17,-1
 915 891 l 2,18,19
 901 840 901 840 862 829 c 2,20,-1
 207 627 l 1,0,-1
EndSplineSet
Fore
SplineSet
207 627 m 1,0,-1
 743 420 l 2,1,2
 792 401 792 401 782 344 c 2,3,-1
 774 303 l 2,4,5
 768 270 768 270 753.5 264 c 128,-1,6
 739 258 739 258 710 270 c 2,7,-1
 55 547 l 2,8,9
 6 567 6 567 16 618 c 2,10,-1
 22 647 l 2,11,12
 30 692 30 692 84 711 c 2,13,-1
 868 979 l 2,14,15
 907 991 907 991 919.5 973.5 c 128,-1,16
 932 956 932 956 923 924 c 2,17,-1
 915 891 l 2,18,19
 901 840 901 840 862 829 c 2,20,-1
 207 627 l 1,0,-1
EndSplineSet
EndChar

StartChar: equal
Encoding: 61 61 30
Width: 921
Flags: W
HStem: 436 142<94 801.312> 766 141<180 887.312>
LayerCount: 2
Back
SplineSet
833 766 m 2,0,-1
 186 766 l 2,1,2
 139 766 139 766 149 813 c 2,3,-1
 168 885 l 2,4,5
 172 901 172 901 180 904 c 128,-1,6
 188 907 188 907 219 907 c 2,7,-1
 862 907 l 2,8,9
 880 907 880 907 890.5 895 c 128,-1,10
 901 883 901 883 897 860 c 2,11,-1
 887 809 l 2,12,13
 876 766 876 766 833 766 c 2,0,-1
747 436 m 2,14,-1
 100 436 l 2,15,16
 53 436 53 436 63 483 c 2,17,-1
 82 555 l 2,18,19
 86 571 86 571 94 574.5 c 128,-1,20
 102 578 102 578 133 578 c 2,21,-1
 776 578 l 2,22,23
 794 578 794 578 804.5 565.5 c 128,-1,24
 815 553 815 553 811 530 c 2,25,-1
 801 479 l 2,26,27
 790 436 790 436 747 436 c 2,14,-1
EndSplineSet
Fore
SplineSet
833 766 m 2,0,-1
 186 766 l 2,1,2
 139 766 139 766 149 813 c 2,3,-1
 168 885 l 2,4,5
 172 901 172 901 180 904 c 128,-1,6
 188 907 188 907 219 907 c 2,7,-1
 862 907 l 2,8,9
 880 907 880 907 890.5 895 c 128,-1,10
 901 883 901 883 897 860 c 2,11,-1
 887 809 l 2,12,13
 876 766 876 766 833 766 c 2,0,-1
747 436 m 2,14,-1
 100 436 l 2,15,16
 53 436 53 436 63 483 c 2,17,-1
 82 555 l 2,18,19
 86 571 86 571 94 574.5 c 128,-1,20
 102 578 102 578 133 578 c 2,21,-1
 776 578 l 2,22,23
 794 578 794 578 804.5 565.5 c 128,-1,24
 815 553 815 553 811 530 c 2,25,-1
 801 479 l 2,26,27
 790 436 790 436 747 436 c 2,14,-1
EndSplineSet
EndChar

StartChar: greater
Encoding: 62 62 31
Width: 968
Flags: W
DStem2: 237 981 204 834 0.933077 -0.359678<-38.247 597.596> 741 627 863 541 0.945872 0.32454<-771.898 -686.374 -686.374 0>
LayerCount: 2
Back
SplineSet
741 627 m 1,0,-1
 204 834 l 2,1,2
 155 852 155 852 165 909 c 2,3,-1
 173 948 l 2,4,5
 179 981 179 981 193.5 987 c 128,-1,6
 208 993 208 993 237 981 c 2,7,-1
 892 705 l 2,8,9
 941 684 941 684 931 633 c 2,10,-1
 925 604 l 2,11,12
 917 559 917 559 863 541 c 2,13,-1
 79 272 l 2,14,15
 40 260 40 260 28 277.5 c 128,-1,16
 16 295 16 295 24 328 c 2,17,-1
 32 362 l 2,18,19
 46 412 46 412 85 424 c 2,20,-1
 741 627 l 1,0,-1
EndSplineSet
Fore
SplineSet
741 627 m 1,0,-1
 204 834 l 2,1,2
 155 852 155 852 165 909 c 2,3,-1
 173 948 l 2,4,5
 179 981 179 981 193.5 987 c 128,-1,6
 208 993 208 993 237 981 c 2,7,-1
 892 705 l 2,8,9
 941 684 941 684 931 633 c 2,10,-1
 925 604 l 2,11,12
 917 559 917 559 863 541 c 2,13,-1
 79 272 l 2,14,15
 40 260 40 260 28 277.5 c 128,-1,16
 16 295 16 295 24 328 c 2,17,-1
 32 362 l 2,18,19
 46 412 46 412 85 424 c 2,20,-1
 741 627 l 1,0,-1
EndSplineSet
EndChar

StartChar: question
Encoding: 63 63 32
Width: 653
Flags: W
HStem: -39 232<41.0042 211.964>
VStem: 8 238<-4.96509 157.934> 100 142<333.4 570.983> 551 160<942.766 1331.88>
LayerCount: 2
Back
SplineSet
121 193 m 2,0,-1
 143 193 l 2,1,2
 182 193 182 193 214 158 c 128,-1,3
 246 123 246 123 246 75 c 128,-1,4
 246 27 246 27 213 -6 c 128,-1,5
 180 -39 180 -39 129 -39 c 2,6,-1
 109 -39 l 2,7,8
 68 -39 68 -39 38 -5 c 128,-1,9
 8 29 8 29 8 77 c 128,-1,10
 8 125 8 125 40 159 c 128,-1,11
 72 193 72 193 121 193 c 2,0,-1
242 371 m 0,12,13
 242 324 242 324 180 330 c 2,14,-1
 137 334 l 2,15,16
 90 338 90 338 100 410 c 0,17,18
 137 645 137 645 200.5 698.5 c 128,-1,19
 264 752 264 752 333.5 761 c 128,-1,20
 403 770 403 770 433 798.5 c 128,-1,21
 463 827 463 827 489.5 882.5 c 128,-1,22
 516 938 516 938 536.5 1069 c 128,-1,23
 557 1200 557 1200 551 1256.5 c 128,-1,24
 545 1313 545 1313 520.5 1332.5 c 128,-1,25
 496 1352 496 1352 475 1354 c 1,26,27
 442 1346 442 1346 330 1233 c 0,28,29
 303 1208 303 1208 264 1229 c 2,30,-1
 229 1251 l 2,31,32
 193 1278 193 1278 217 1317 c 0,33,34
 260 1378 260 1378 336 1437.5 c 128,-1,35
 412 1497 412 1497 459 1506.5 c 128,-1,36
 506 1516 506 1516 584 1478 c 128,-1,37
 662 1440 662 1440 688.5 1375.5 c 128,-1,38
 715 1311 715 1311 711 1188 c 0,39,40
 690 973 690 973 621.5 817.5 c 128,-1,41
 553 662 553 662 440 631 c 0,42,43
 410 623 410 623 360.5 612.5 c 128,-1,44
 311 602 311 602 295 598 c 1,45,46
 279 555 279 555 260.5 474 c 128,-1,47
 242 393 242 393 242 371 c 0,12,13
EndSplineSet
Fore
SplineSet
121 193 m 2,0,-1
 143 193 l 2,1,2
 182 193 182 193 214 158 c 128,-1,3
 246 123 246 123 246 75 c 128,-1,4
 246 27 246 27 213 -6 c 128,-1,5
 180 -39 180 -39 129 -39 c 2,6,-1
 109 -39 l 2,7,8
 68 -39 68 -39 38 -5 c 128,-1,9
 8 29 8 29 8 77 c 128,-1,10
 8 125 8 125 40 159 c 128,-1,11
 72 193 72 193 121 193 c 2,0,-1
242 371 m 0,12,13
 242 324 242 324 180 330 c 2,14,-1
 137 334 l 2,15,16
 90 338 90 338 100 410 c 0,17,18
 137 645 137 645 200.5 698.5 c 128,-1,19
 264 752 264 752 333.5 761 c 128,-1,20
 403 770 403 770 433 798.5 c 128,-1,21
 463 827 463 827 489.5 882.5 c 128,-1,22
 516 938 516 938 536.5 1069 c 128,-1,23
 557 1200 557 1200 551 1256.5 c 128,-1,24
 545 1313 545 1313 520.5 1332.5 c 128,-1,25
 496 1352 496 1352 475 1354 c 1,26,27
 442 1346 442 1346 330 1233 c 0,28,29
 303 1208 303 1208 264 1229 c 2,30,-1
 229 1251 l 2,31,32
 193 1278 193 1278 217 1317 c 0,33,34
 260 1378 260 1378 336 1437.5 c 128,-1,35
 412 1497 412 1497 459 1506.5 c 128,-1,36
 506 1516 506 1516 584 1478 c 128,-1,37
 662 1440 662 1440 688.5 1375.5 c 128,-1,38
 715 1311 715 1311 711 1188 c 0,39,40
 690 973 690 973 621.5 817.5 c 128,-1,41
 553 662 553 662 440 631 c 0,42,43
 410 623 410 623 360.5 612.5 c 128,-1,44
 311 602 311 602 295 598 c 1,45,46
 279 555 279 555 260.5 474 c 128,-1,47
 242 393 242 393 242 371 c 0,12,13
EndSplineSet
EndChar

StartChar: at
Encoding: 64 64 33
Width: 1800
Flags: W
HStem: -334 109<600.836 892.375> 14 148<1103.72 1281.65> 20 154<701.207 860.202> 1296 113<755.864 1213.63>
DStem2: 1069 842 1093 346 0.25747 0.966286<-495.644 0 126.062 208.737>
LayerCount: 2
Back
SplineSet
1097 965 m 1,0,-1
 1101 979 l 2,1,2
 1112 1032 1112 1032 1153 1032 c 2,3,-1
 1204 1034 l 2,4,5
 1275 1034 1275 1034 1259 969 c 2,6,-1
 1093 346 l 2,7,8
 1077 262 1077 262 1099.5 212 c 128,-1,9
 1122 162 1122 162 1188.5 162 c 128,-1,10
 1255 162 1255 162 1348 272.5 c 128,-1,11
 1441 383 1441 383 1502.5 631 c 128,-1,12
 1564 879 1564 879 1420.5 1086.5 c 128,-1,13
 1277 1294 1277 1294 978 1296 c 0,14,15
 725 1290 725 1290 540.5 1116 c 128,-1,16
 356 942 356 942 286.5 718 c 128,-1,17
 217 494 217 494 256 283 c 0,18,19
 294 70 294 70 442 -78 c 0,20,21
 610 -236 610 -236 874 -225 c 0,22,23
 897 -223 897 -223 906 -236.5 c 128,-1,24
 915 -250 915 -250 903 -270 c 2,25,-1
 886 -301 l 2,26,27
 870 -332 870 -332 823 -334 c 0,28,29
 657 -344 657 -344 512.5 -284.5 c 128,-1,30
 368 -225 368 -225 251.5 -71.5 c 128,-1,31
 135 82 135 82 100 322.5 c 128,-1,32
 65 563 65 563 154 803.5 c 128,-1,33
 243 1044 243 1044 456 1224.5 c 128,-1,34
 669 1405 669 1405 947.5 1409 c 128,-1,35
 1226 1413 1226 1413 1399 1292 c 128,-1,36
 1572 1171 1572 1171 1631.5 976.5 c 128,-1,37
 1691 782 1691 782 1634 546.5 c 128,-1,38
 1577 311 1577 311 1435.5 162.5 c 128,-1,39
 1294 14 1294 14 1154.5 14 c 128,-1,40
 1015 14 1015 14 954 127 c 1,41,42
 919 82 919 82 867 51 c 128,-1,43
 815 20 815 20 758.5 20 c 128,-1,44
 702 20 702 20 649 52 c 128,-1,45
 596 84 596 84 569 143 c 0,46,47
 503 289 503 289 535 459 c 128,-1,48
 567 629 567 629 642.5 771 c 128,-1,49
 718 913 718 913 796 973 c 0,50,51
 862 1024 862 1024 932.5 1024 c 128,-1,52
 1003 1024 1003 1024 1097 965 c 1,0,-1
1069 842 m 1,53,54
 1036 864 1036 864 993 874 c 0,55,56
 856 918 856 918 747 655 c 0,57,58
 669 467 669 467 673 350 c 0,59,60
 679 174 679 174 774 174 c 0,61,62
 835 174 835 174 876 240 c 0,63,64
 952 360 952 360 1069 842 c 1,53,54
EndSplineSet
Fore
SplineSet
1097 965 m 1,0,-1
 1101 979 l 2,1,2
 1112 1032 1112 1032 1153 1032 c 2,3,-1
 1204 1034 l 2,4,5
 1275 1034 1275 1034 1259 969 c 2,6,-1
 1093 346 l 2,7,8
 1077 262 1077 262 1099.5 212 c 128,-1,9
 1122 162 1122 162 1188.5 162 c 128,-1,10
 1255 162 1255 162 1348 272.5 c 128,-1,11
 1441 383 1441 383 1502.5 631 c 128,-1,12
 1564 879 1564 879 1420.5 1086.5 c 128,-1,13
 1277 1294 1277 1294 978 1296 c 0,14,15
 725 1290 725 1290 540.5 1116 c 128,-1,16
 356 942 356 942 286.5 718 c 128,-1,17
 217 494 217 494 256 283 c 0,18,19
 294 70 294 70 442 -78 c 0,20,21
 610 -236 610 -236 874 -225 c 0,22,23
 897 -223 897 -223 906 -236.5 c 128,-1,24
 915 -250 915 -250 903 -270 c 2,25,-1
 886 -301 l 2,26,27
 870 -332 870 -332 823 -334 c 0,28,29
 657 -344 657 -344 512.5 -284.5 c 128,-1,30
 368 -225 368 -225 251.5 -71.5 c 128,-1,31
 135 82 135 82 100 322.5 c 128,-1,32
 65 563 65 563 154 803.5 c 128,-1,33
 243 1044 243 1044 456 1224.5 c 128,-1,34
 669 1405 669 1405 947.5 1409 c 128,-1,35
 1226 1413 1226 1413 1399 1292 c 128,-1,36
 1572 1171 1572 1171 1631.5 976.5 c 128,-1,37
 1691 782 1691 782 1634 546.5 c 128,-1,38
 1577 311 1577 311 1435.5 162.5 c 128,-1,39
 1294 14 1294 14 1154.5 14 c 128,-1,40
 1015 14 1015 14 954 127 c 1,41,42
 919 82 919 82 867 51 c 128,-1,43
 815 20 815 20 758.5 20 c 128,-1,44
 702 20 702 20 649 52 c 128,-1,45
 596 84 596 84 569 143 c 0,46,47
 503 289 503 289 535 459 c 128,-1,48
 567 629 567 629 642.5 771 c 128,-1,49
 718 913 718 913 796 973 c 0,50,51
 862 1024 862 1024 932.5 1024 c 128,-1,52
 1003 1024 1003 1024 1097 965 c 1,0,-1
1069 842 m 1,53,54
 1036 864 1036 864 993 874 c 0,55,56
 856 918 856 918 747 655 c 0,57,58
 669 467 669 467 673 350 c 0,59,60
 679 174 679 174 774 174 c 0,61,62
 835 174 835 174 876 240 c 0,63,64
 952 360 952 360 1069 842 c 1,53,54
EndSplineSet
EndChar

StartChar: A
Encoding: 65 65 34
Width: 942
Flags: W
HStem: 0 21G<629 727> 444 148<315 608> 1461 20G<674 796.5>
DStem2: -121 82 244 444 0.460396 0.887714<243.014 489.397 653.467 1445.77> 608 444 760 45 0.0530292 0.998593<-436.334 0 148.216 860.814>
LayerCount: 2
Back
SplineSet
315 592 m 1,0,-1
 616 592 l 1,1,-1
 665 1303 l 1,2,-1
 315 592 l 1,0,-1
244 444 m 1,3,-1
 45 41 l 2,4,5
 22 -6 22 -6 -31 0 c 2,6,-1
 -78 4 l 2,7,8
 -113 6 -113 6 -124 30.5 c 128,-1,9
 -135 55 -135 55 -121 82 c 2,10,-1
 561 1397 l 2,11,12
 604 1479 604 1479 674 1479 c 2,13,-1
 756 1481 l 2,14,15
 837 1481 837 1481 831 1382 c 2,16,-1
 760 45 l 2,17,18
 756 2 756 2 698 0 c 2,19,-1
 629 2 l 2,20,21
 577 2 577 2 581 57 c 2,22,-1
 608 444 l 1,23,-1
 244 444 l 1,3,-1
EndSplineSet
Fore
SplineSet
315 592 m 1,0,-1
 616 592 l 1,1,-1
 665 1303 l 1,2,-1
 315 592 l 1,0,-1
244 444 m 1,3,-1
 45 41 l 2,4,5
 22 -6 22 -6 -31 0 c 2,6,-1
 -78 4 l 2,7,8
 -113 6 -113 6 -124 30.5 c 128,-1,9
 -135 55 -135 55 -121 82 c 2,10,-1
 561 1397 l 2,11,12
 604 1479 604 1479 674 1479 c 2,13,-1
 756 1481 l 2,14,15
 837 1481 837 1481 831 1382 c 2,16,-1
 760 45 l 2,17,18
 756 2 756 2 698 0 c 2,19,-1
 629 2 l 2,20,21
 577 2 577 2 581 57 c 2,22,-1
 608 444 l 1,23,-1
 244 444 l 1,3,-1
EndSplineSet
EndChar

StartChar: B
Encoding: 66 66 35
Width: 921
Flags: MW
HStem: 0 145<164 430> 692 145<342 579> 1341 141<202 303 469 691>
VStem: 608 164<334 660> 730 178<1091 1154>
DStem2: -22 63 164 139 0.246919 0.969036<119.447 690.178 840.186 1318.79>
LayerCount: 2
Back
SplineSet
250 1483 m 2,0,-1
 590 1483 l 2,1,2
 744 1483 744 1483 826.5 1402 c 128,-1,3
 909 1321 909 1321 908 1154 c 128,-1,4
 907 987 907 987 829.5 886.5 c 128,-1,5
 752 786 752 786 674 754 c 1,6,7
 809 676 809 676 772 463 c 128,-1,8
 735 250 735 250 602 125 c 128,-1,9
 469 0 469 0 234 0 c 2,10,-1
 19 0 l 2,11,12
 -6 0 -6 0 -17.5 18.5 c 128,-1,13
 -29 37 -29 37 -22 63 c 2,14,-1
 303 1341 l 1,15,-1
 252 1341 l 2,16,17
 225 1341 225 1341 204.5 1357.5 c 128,-1,18
 184 1374 184 1374 191 1395 c 2,19,-1
 203 1442 l 2,20,21
 207 1458 207 1458 222.5 1470.5 c 128,-1,22
 238 1483 238 1483 250 1483 c 2,0,-1
305 692 m 1,23,-1
 164 139 l 1,24,-1
 293 145 l 2,25,26
 397 150 397 150 488.5 234.5 c 128,-1,27
 580 319 580 319 608.5 460.5 c 128,-1,28
 637 602 637 602 572 655 c 0,29,30
 547 678 547 678 496 685 c 128,-1,31
 445 692 445 692 305 692 c 1,23,-1
469 1341 m 1,32,-1
 342 838 l 1,33,-1
 508 834 l 2,34,35
 604 831 604 831 658.5 909 c 128,-1,36
 713 987 713 987 730.5 1090.5 c 128,-1,37
 748 1194 748 1194 713 1267.5 c 128,-1,38
 678 1341 678 1341 590 1341 c 2,39,-1
 469 1341 l 1,32,-1
EndSplineSet
Fore
SplineSet
250 1483 m 2,0,-1
 590 1483 l 2,1,2
 744 1483 744 1483 826.5 1402 c 128,-1,3
 909 1321 909 1321 908 1154 c 128,-1,4
 907 987 907 987 829.5 886.5 c 128,-1,5
 752 786 752 786 674 754 c 1,6,7
 809 676 809 676 772 463 c 128,-1,8
 735 250 735 250 602 125 c 128,-1,9
 469 0 469 0 234 0 c 2,10,-1
 19 0 l 2,11,12
 -6 0 -6 0 -17.5 18.5 c 128,-1,13
 -29 37 -29 37 -22 63 c 2,14,-1
 303 1341 l 1,15,-1
 252 1341 l 2,16,17
 225 1341 225 1341 204.5 1357.5 c 128,-1,18
 184 1374 184 1374 191 1395 c 2,19,-1
 203 1442 l 2,20,21
 207 1458 207 1458 222.5 1470.5 c 128,-1,22
 238 1483 238 1483 250 1483 c 2,0,-1
305 692 m 1,23,-1
 164 139 l 1,24,-1
 293 145 l 2,25,26
 397 150 397 150 488.5 234.5 c 128,-1,27
 580 319 580 319 608.5 460.5 c 128,-1,28
 637 602 637 602 572 655 c 0,29,30
 547 678 547 678 496 685 c 128,-1,31
 445 692 445 692 305 692 c 1,23,-1
469 1341 m 1,32,-1
 342 838 l 1,33,-1
 508 834 l 2,34,35
 604 831 604 831 658.5 909 c 128,-1,36
 713 987 713 987 730.5 1090.5 c 128,-1,37
 748 1194 748 1194 713 1267.5 c 128,-1,38
 678 1341 678 1341 590 1341 c 2,39,-1
 469 1341 l 1,32,-1
EndSplineSet
EndChar

StartChar: C
Encoding: 67 67 36
Width: 866
Flags: MW
HStem: -16 150<223 392> 1329 170<491 662>
VStem: 10 166<329 331>
LayerCount: 2
Back
SplineSet
896 1124 m 0,0,1
 898 1110 898 1110 898 1098 c 0,2,3
 898 1069 898 1069 855 1057 c 2,4,-1
 798 1040 l 2,5,6
 775 1036 775 1036 754.5 1052.5 c 128,-1,7
 734 1069 734 1069 732 1096 c 0,8,9
 716 1253 716 1253 663 1319 c 1,10,11
 636 1329 636 1329 603 1329 c 0,12,13
 503 1333 503 1333 401.5 1187.5 c 128,-1,14
 300 1042 300 1042 225.5 774 c 128,-1,15
 151 506 151 506 176.5 329 c 128,-1,16
 202 152 202 152 280 133 c 1,17,18
 433 147 433 147 534 369 c 0,19,20
 552 410 552 410 566.5 418 c 128,-1,21
 581 426 581 426 616 412 c 2,22,-1
 681 385 l 2,23,24
 718 369 718 369 687 303 c 0,25,26
 593 129 593 129 501 56.5 c 128,-1,27
 409 -16 409 -16 274 -16 c 0,28,29
 202 -20 202 -20 116 47.5 c 128,-1,30
 30 115 30 115 10.5 331 c 128,-1,31
 -9 547 -9 547 60.5 829.5 c 128,-1,32
 130 1112 130 1112 292 1304.5 c 128,-1,33
 454 1497 454 1497 636 1499 c 0,34,35
 661 1499 661 1499 704 1484.5 c 128,-1,36
 747 1470 747 1470 782.5 1443.5 c 128,-1,37
 818 1417 818 1417 853 1328 c 128,-1,38
 888 1239 888 1239 896 1124 c 0,0,1
EndSplineSet
Fore
SplineSet
896 1124 m 0,0,1
 898 1110 898 1110 898 1098 c 0,2,3
 898 1069 898 1069 855 1057 c 2,4,-1
 798 1040 l 2,5,6
 775 1036 775 1036 754.5 1052.5 c 128,-1,7
 734 1069 734 1069 732 1096 c 0,8,9
 716 1253 716 1253 663 1319 c 1,10,11
 636 1329 636 1329 603 1329 c 0,12,13
 503 1333 503 1333 401.5 1187.5 c 128,-1,14
 300 1042 300 1042 225.5 774 c 128,-1,15
 151 506 151 506 176.5 329 c 128,-1,16
 202 152 202 152 280 133 c 1,17,18
 433 147 433 147 534 369 c 0,19,20
 552 410 552 410 566.5 418 c 128,-1,21
 581 426 581 426 616 412 c 2,22,-1
 681 385 l 2,23,24
 718 369 718 369 687 303 c 0,25,26
 593 129 593 129 501 56.5 c 128,-1,27
 409 -16 409 -16 274 -16 c 0,28,29
 202 -20 202 -20 116 47.5 c 128,-1,30
 30 115 30 115 10.5 331 c 128,-1,31
 -9 547 -9 547 60.5 829.5 c 128,-1,32
 130 1112 130 1112 292 1304.5 c 128,-1,33
 454 1497 454 1497 636 1499 c 0,34,35
 661 1499 661 1499 704 1484.5 c 128,-1,36
 747 1470 747 1470 782.5 1443.5 c 128,-1,37
 818 1417 818 1417 853 1328 c 128,-1,38
 888 1239 888 1239 896 1124 c 0,0,1
EndSplineSet
EndChar

StartChar: D
Encoding: 68 68 37
Width: 858
Flags: W
HStem: -8 143<142.529 369.963> 1354 142<452 593.656>
VStem: 700.5 154.5<712.812 1235.77>
DStem2: -34 102 140 137 0.246918 0.969036<76.88 1287.88>
LayerCount: 2
Back
SplineSet
284 1350 m 1,0,-1
 177 1337 l 2,1,2
 138 1337 138 1337 145 1384 c 2,3,-1
 153 1442 l 2,4,5
 159 1473 159 1473 188 1481 c 0,6,7
 269 1499 269 1499 449.5 1496 c 128,-1,8
 630 1493 630 1493 738.5 1382.5 c 128,-1,9
 847 1272 847 1272 855 1058 c 128,-1,10
 863 844 863 844 785.5 587 c 128,-1,11
 708 330 708 330 567.5 162 c 128,-1,12
 427 -6 427 -6 202 -8 c 0,13,14
 91 -8 91 -8 17.5 3 c 128,-1,15
 -56 14 -56 14 -34 102 c 2,16,-1
 284 1350 l 1,0,-1
452 1354 m 1,17,-1
 140 137 l 1,18,19
 159 135 159 135 235 135 c 0,20,21
 364 135 364 135 472.5 283.5 c 128,-1,22
 581 432 581 432 639 646 c 128,-1,23
 697 860 697 860 700.5 1008.5 c 128,-1,24
 704 1157 704 1157 645.5 1254.5 c 128,-1,25
 587 1352 587 1352 452 1354 c 1,17,-1
EndSplineSet
Fore
SplineSet
284 1350 m 1,0,-1
 177 1337 l 2,1,2
 138 1337 138 1337 145 1384 c 2,3,-1
 153 1442 l 2,4,5
 159 1473 159 1473 188 1481 c 0,6,7
 269 1499 269 1499 449.5 1496 c 128,-1,8
 630 1493 630 1493 738.5 1382.5 c 128,-1,9
 847 1272 847 1272 855 1058 c 128,-1,10
 863 844 863 844 785.5 587 c 128,-1,11
 708 330 708 330 567.5 162 c 128,-1,12
 427 -6 427 -6 202 -8 c 0,13,14
 91 -8 91 -8 17.5 3 c 128,-1,15
 -56 14 -56 14 -34 102 c 2,16,-1
 284 1350 l 1,0,-1
452 1354 m 1,17,-1
 140 137 l 1,18,19
 159 135 159 135 235 135 c 0,20,21
 364 135 364 135 472.5 283.5 c 128,-1,22
 581 432 581 432 639 646 c 128,-1,23
 697 860 697 860 700.5 1008.5 c 128,-1,24
 704 1157 704 1157 645.5 1254.5 c 128,-1,25
 587 1352 587 1352 452 1354 c 1,17,-1
EndSplineSet
EndChar

StartChar: E
Encoding: 69 69 38
Width: 817
Flags: W
HStem: 0 141<166 574.176> 733 141<352 729.469> 1341 142<216.286 305 471 947.641>
DStem2: -20 63 166 141 0.246459 0.969153<121.435 732.636 877.666 1318.68>
LayerCount: 2
Back
SplineSet
512 0 m 2,0,-1
 21 0 l 2,1,2
 -4 0 -4 0 -15.5 18.5 c 128,-1,3
 -27 37 -27 37 -20 63 c 2,4,-1
 305 1341 l 1,5,-1
 223 1341 l 2,6,7
 193 1341 193 1341 185.5 1350.5 c 128,-1,8
 178 1360 178 1360 186 1395 c 2,9,-1
 199 1442 l 2,10,11
 207 1468 207 1468 216 1475.5 c 128,-1,12
 225 1483 225 1483 254 1483 c 2,13,-1
 922 1483 l 2,14,15
 950 1483 950 1483 959.5 1472.5 c 128,-1,16
 969 1462 969 1462 961 1432 c 2,17,-1
 946 1380 l 2,18,19
 936 1341 936 1341 895 1341 c 2,20,-1
 471 1341 l 1,21,-1
 352 874 l 1,22,-1
 715 874 l 2,23,24
 733 874 733 874 740.5 860 c 128,-1,25
 748 846 748 846 744 827 c 2,26,-1
 729 776 l 2,27,28
 719 733 719 733 668 733 c 2,29,-1
 318 733 l 1,30,-1
 166 141 l 1,31,-1
 559 141 l 2,32,33
 578 141 578 141 585 127 c 128,-1,34
 592 113 592 113 588 94 c 2,35,-1
 574 43 l 2,36,37
 563 0 563 0 512 0 c 2,0,-1
EndSplineSet
Fore
SplineSet
512 0 m 2,0,-1
 21 0 l 2,1,2
 -4 0 -4 0 -15.5 18.5 c 128,-1,3
 -27 37 -27 37 -20 63 c 2,4,-1
 305 1341 l 1,5,-1
 223 1341 l 2,6,7
 193 1341 193 1341 185.5 1350.5 c 128,-1,8
 178 1360 178 1360 186 1395 c 2,9,-1
 199 1442 l 2,10,11
 207 1468 207 1468 216 1475.5 c 128,-1,12
 225 1483 225 1483 254 1483 c 2,13,-1
 922 1483 l 2,14,15
 950 1483 950 1483 959.5 1472.5 c 128,-1,16
 969 1462 969 1462 961 1432 c 2,17,-1
 946 1380 l 2,18,19
 936 1341 936 1341 895 1341 c 2,20,-1
 471 1341 l 1,21,-1
 352 874 l 1,22,-1
 715 874 l 2,23,24
 733 874 733 874 740.5 860 c 128,-1,25
 748 846 748 846 744 827 c 2,26,-1
 729 776 l 2,27,28
 719 733 719 733 668 733 c 2,29,-1
 318 733 l 1,30,-1
 166 141 l 1,31,-1
 559 141 l 2,32,33
 578 141 578 141 585 127 c 128,-1,34
 592 113 592 113 588 94 c 2,35,-1
 574 43 l 2,36,37
 563 0 563 0 512 0 c 2,0,-1
EndSplineSet
EndChar

StartChar: F
Encoding: 70 70 39
Width: 808
Flags: W
HStem: 0 21G<8.5 104.5> 625 141<326 713.176> 1341 142<218.286 305 471 949.641>
DStem2: -20 63 141 45 0.246756 0.969078<-35.167 620.869 766.639 1318.68>
LayerCount: 2
Back
SplineSet
897 1341 m 2,0,-1
 471 1341 l 1,1,-1
 326 766 l 1,2,-1
 698 766 l 2,3,4
 717 766 717 766 724 751.5 c 128,-1,5
 731 737 731 737 727 719 c 2,6,-1
 713 668 l 2,7,8
 703 625 703 625 651 625 c 2,9,-1
 289 625 l 1,10,-1
 141 45 l 2,11,12
 129 0 129 0 80 0 c 2,13,-1
 21 0 l 2,14,15
 -4 0 -4 0 -15.5 18.5 c 128,-1,16
 -27 37 -27 37 -20 63 c 2,17,-1
 305 1341 l 1,18,-1
 225 1341 l 2,19,20
 195 1341 195 1341 187.5 1350.5 c 128,-1,21
 180 1360 180 1360 189 1395 c 2,22,-1
 201 1442 l 2,23,24
 209 1468 209 1468 218 1475.5 c 128,-1,25
 227 1483 227 1483 256 1483 c 2,26,-1
 924 1483 l 2,27,28
 952 1483 952 1483 961.5 1472.5 c 128,-1,29
 971 1462 971 1462 963 1432 c 2,30,-1
 948 1380 l 2,31,32
 938 1341 938 1341 897 1341 c 2,0,-1
EndSplineSet
Fore
SplineSet
897 1341 m 2,0,-1
 471 1341 l 1,1,-1
 326 766 l 1,2,-1
 698 766 l 2,3,4
 717 766 717 766 724 751.5 c 128,-1,5
 731 737 731 737 727 719 c 2,6,-1
 713 668 l 2,7,8
 703 625 703 625 651 625 c 2,9,-1
 289 625 l 1,10,-1
 141 45 l 2,11,12
 129 0 129 0 80 0 c 2,13,-1
 21 0 l 2,14,15
 -4 0 -4 0 -15.5 18.5 c 128,-1,16
 -27 37 -27 37 -20 63 c 2,17,-1
 305 1341 l 1,18,-1
 225 1341 l 2,19,20
 195 1341 195 1341 187.5 1350.5 c 128,-1,21
 180 1360 180 1360 189 1395 c 2,22,-1
 201 1442 l 2,23,24
 209 1468 209 1468 218 1475.5 c 128,-1,25
 227 1483 227 1483 256 1483 c 2,26,-1
 924 1483 l 2,27,28
 952 1483 952 1483 961.5 1472.5 c 128,-1,29
 971 1462 971 1462 963 1432 c 2,30,-1
 948 1380 l 2,31,32
 938 1341 938 1341 897 1341 c 2,0,-1
EndSplineSet
EndChar

StartChar: G
Encoding: 71 71 40
Width: 880
Flags: MW
HStem: -11 147<228 408> 557 139<395 605> 1327 163<559 634>
VStem: 17 165<177.205 746.839> 741 163<1057 1273>
LayerCount: 2
Back
SplineSet
431 696 m 2,0,-1
 804 696 l 2,1,2
 836 696 836 696 822 651 c 0,3,4
 705 279 705 279 590.5 139.5 c 128,-1,5
 476 0 476 0 336.5 -11.5 c 128,-1,6
 197 -23 197 -23 110 62 c 128,-1,7
 23 147 23 147 15 377.5 c 128,-1,8
 7 608 7 608 79.5 872.5 c 128,-1,9
 152 1137 152 1137 291.5 1301.5 c 128,-1,10
 431 1466 431 1466 559 1489.5 c 128,-1,11
 687 1513 687 1513 757.5 1464 c 128,-1,12
 828 1415 828 1415 866 1301.5 c 128,-1,13
 904 1188 904 1188 904 1130.5 c 128,-1,14
 904 1073 904 1073 863 1057 c 2,15,-1
 791 1036 l 2,16,17
 771 1032 771 1032 757.5 1043.5 c 128,-1,18
 744 1055 744 1055 741 1118.5 c 128,-1,19
 738 1182 738 1182 709.5 1248.5 c 128,-1,20
 681 1315 681 1315 634 1327 c 0,21,22
 537 1352 537 1352 423.5 1203.5 c 128,-1,23
 310 1055 310 1055 248.5 830.5 c 128,-1,24
 187 606 187 606 182 452.5 c 128,-1,25
 177 299 177 299 208.5 215 c 128,-1,26
 240 131 240 131 312 136 c 128,-1,27
 384 141 384 141 458.5 231.5 c 128,-1,28
 533 322 533 322 605 557 c 1,29,-1
 408 557 l 2,30,31
 369 557 369 557 384 614 c 2,32,-1
 400 672 l 2,33,34
 408 696 408 696 431 696 c 2,0,-1
EndSplineSet
Fore
SplineSet
431 696 m 2,0,-1
 804 696 l 2,1,2
 836 696 836 696 822 651 c 0,3,4
 705 279 705 279 590.5 139.5 c 128,-1,5
 476 0 476 0 336.5 -11.5 c 128,-1,6
 197 -23 197 -23 108 67 c 128,-1,7
 19 157 19 157 17 386.5 c 128,-1,8
 15 616 15 616 83.5 876.5 c 128,-1,9
 152 1137 152 1137 291.5 1301.5 c 128,-1,10
 431 1466 431 1466 559 1489.5 c 128,-1,11
 687 1513 687 1513 757.5 1464 c 128,-1,12
 828 1415 828 1415 866 1301.5 c 128,-1,13
 904 1188 904 1188 904 1130 c 0,14,15
 904 1068.95833333 904 1068.95833333 863 1057 c 2,16,-1
 791 1036 l 2,17,18
 773.341968912 1030.84974093 773.341968912 1030.84974093 758 1044 c 0,19,20
 744 1056 744 1056 741 1119 c 128,-1,21
 738 1182 738 1182 709.5 1248.5 c 128,-1,22
 681 1315 681 1315 634 1327 c 0,23,24
 537 1352 537 1352 423.5 1203.5 c 128,-1,25
 310 1055 310 1055 246 824 c 128,-1,26
 182 593 182 593 182 438 c 128,-1,27
 182 283 182 283 211 207 c 128,-1,28
 240 131 240 131 312 136 c 128,-1,29
 384 141 384 141 458.5 231.5 c 128,-1,30
 533 322 533 322 605 557 c 1,31,-1
 408 557 l 2,32,33
 368.275862069 557 368.275862069 557 384 614 c 2,34,-1
 400 672 l 2,35,36
 406.620689655 696 406.620689655 696 431 696 c 2,0,-1
EndSplineSet
EndChar

StartChar: H
Encoding: 72 72 41
Width: 1091
Flags: W
HStem: 0 21G<6.5 102.5 659.5 755.5> 727 141<348 801> 1463 20G<364.5 461 1018 1114.5>
DStem2: -22 63 139 45 0.24751 0.968885<-35.3874 726.256 871.531 1476.61> 631 63 793 45 0.246848 0.969054<-35.1554 685.416 830.692 1476.53>
LayerCount: 2
Back
SplineSet
328 1438 m 2,0,1
 340 1483 340 1483 389 1483 c 2,2,-1
 449 1483 l 2,3,4
 473 1483 473 1483 484.5 1464.5 c 128,-1,5
 496 1446 496 1446 490 1419 c 2,6,-1
 348 868 l 1,7,-1
 836 868 l 1,8,-1
 981 1438 l 2,9,10
 993 1483 993 1483 1043 1483 c 2,11,-1
 1102 1483 l 2,12,13
 1127 1483 1127 1483 1138 1464.5 c 128,-1,14
 1149 1446 1149 1446 1143 1419 c 2,15,-1
 793 45 l 2,16,17
 780 0 780 0 731 0 c 2,18,-1
 672 0 l 2,19,20
 647 0 647 0 636 18.5 c 128,-1,21
 625 37 625 37 631 63 c 2,22,-1
 801 727 l 1,23,-1
 313 727 l 1,24,-1
 139 45 l 2,25,26
 127 0 127 0 78 0 c 2,27,-1
 19 0 l 2,28,29
 -6 0 -6 0 -17.5 18.5 c 128,-1,30
 -29 37 -29 37 -22 63 c 2,31,-1
 328 1438 l 2,0,1
EndSplineSet
Fore
SplineSet
328 1438 m 2,0,1
 340 1483 340 1483 389 1483 c 2,2,-1
 449 1483 l 2,3,4
 473 1483 473 1483 484.5 1464.5 c 128,-1,5
 496 1446 496 1446 490 1419 c 2,6,-1
 348 868 l 1,7,-1
 836 868 l 1,8,-1
 981 1438 l 2,9,10
 993 1483 993 1483 1043 1483 c 2,11,-1
 1102 1483 l 2,12,13
 1127 1483 1127 1483 1138 1464.5 c 128,-1,14
 1149 1446 1149 1446 1143 1419 c 2,15,-1
 793 45 l 2,16,17
 780 0 780 0 731 0 c 2,18,-1
 672 0 l 2,19,20
 647 0 647 0 636 18.5 c 128,-1,21
 625 37 625 37 631 63 c 2,22,-1
 801 727 l 1,23,-1
 313 727 l 1,24,-1
 139 45 l 2,25,26
 127 0 127 0 78 0 c 2,27,-1
 19 0 l 2,28,29
 -6 0 -6 0 -17.5 18.5 c 128,-1,30
 -29 37 -29 37 -22 63 c 2,31,-1
 328 1438 l 2,0,1
EndSplineSet
EndChar

StartChar: I
Encoding: 73 73 42
Width: 454
Flags: W
HStem: 0 21G<2 98.5> 1463 20G<360.5 457>
VStem: -27 512
DStem2: -27 63 135 45 0.246848 0.969054<-34.9091 1476.55>
LayerCount: 2
Back
SplineSet
324 1438 m 2,0,1
 336 1483 336 1483 385 1483 c 2,2,-1
 445 1483 l 2,3,4
 469 1483 469 1483 480.5 1464.5 c 128,-1,5
 492 1446 492 1446 485 1419 c 2,6,-1
 135 45 l 2,7,8
 123 0 123 0 74 0 c 2,9,-1
 14 0 l 2,10,11
 -10 0 -10 0 -21.5 18.5 c 128,-1,12
 -33 37 -33 37 -27 63 c 2,13,-1
 324 1438 l 2,0,1
EndSplineSet
Fore
SplineSet
324 1438 m 2,0,1
 336 1483 336 1483 385 1483 c 2,2,-1
 445 1483 l 2,3,4
 469 1483 469 1483 480.5 1464.5 c 128,-1,5
 492 1446 492 1446 485 1419 c 2,6,-1
 135 45 l 2,7,8
 123 0 123 0 74 0 c 2,9,-1
 14 0 l 2,10,11
 -10 0 -10 0 -21.5 18.5 c 128,-1,12
 -33 37 -33 37 -27 63 c 2,13,-1
 324 1438 l 2,0,1
EndSplineSet
EndChar

StartChar: J
Encoding: 74 74 43
Width: 468
Flags: W
HStem: 1463 20G<365.5 462.5>
DStem2: -13 98 149 76 0.246433 0.96916<-183.23 1440.17>
LayerCount: 2
Back
SplineSet
389 1483 m 2,0,-1
 450 1483 l 2,1,2
 475 1483 475 1483 486 1464.5 c 128,-1,3
 497 1446 497 1446 491 1421 c 2,4,-1
 149 76 l 2,5,6
 108 -82 108 -82 18 -162 c 128,-1,7
 -72 -242 -72 -242 -166 -268 c 0,8,9
 -203 -281 -203 -281 -215 -256 c 2,10,-1
 -240 -209 l 2,11,12
 -258 -172 -258 -172 -219 -154 c 0,13,14
 -58 -80 -58 -80 -13 98 c 2,15,-1
 330 1438 l 2,16,17
 342 1483 342 1483 389 1483 c 2,0,-1
EndSplineSet
Fore
SplineSet
389 1483 m 2,0,-1
 450 1483 l 2,1,2
 475 1483 475 1483 486 1464.5 c 128,-1,3
 497 1446 497 1446 491 1421 c 2,4,-1
 149 76 l 2,5,6
 108 -82 108 -82 18 -162 c 128,-1,7
 -72 -242 -72 -242 -166 -268 c 0,8,9
 -203 -281 -203 -281 -215 -256 c 2,10,-1
 -240 -209 l 2,11,12
 -258 -172 -258 -172 -219 -154 c 0,13,14
 -58 -80 -58 -80 -13 98 c 2,15,-1
 330 1438 l 2,16,17
 342 1483 342 1483 389 1483 c 2,0,-1
EndSplineSet
EndChar

StartChar: K
Encoding: 75 75 44
Width: 872
Flags: W
HStem: 0 21G<2 98.5 536.5 653.5> 1463 20G<360.5 457 878.5 998.5>
DStem2: -27 63 135 45 0.246848 0.969054<-34.9091 696.316 855.177 1476.55> 453 762 301 698 0.285717 -0.958314<17.9031 737.509> 340 852 453 762 0.635345 0.772228<2.29344 853.533>
LayerCount: 2
Back
SplineSet
324 1438 m 2,0,1
 336 1483 336 1483 385 1483 c 2,2,-1
 445 1483 l 2,3,4
 469 1483 469 1483 480.5 1464.5 c 128,-1,5
 492 1446 492 1446 485 1419 c 2,6,-1
 340 852 l 1,7,-1
 832 1450 l 2,8,9
 858 1483 858 1483 899 1483 c 2,10,-1
 985 1483 l 2,11,12
 1012 1483 1012 1483 1020 1464.5 c 128,-1,13
 1028 1446 1028 1446 1012 1425 c 2,14,-1
 453 762 l 1,15,-1
 662 61 l 2,16,17
 680 0 680 0 627 0 c 2,18,-1
 551 0 l 2,19,20
 522 0 522 0 512 10 c 128,-1,21
 502 20 502 20 494 51 c 2,22,-1
 301 698 l 1,23,-1
 135 45 l 2,24,25
 123 0 123 0 74 0 c 2,26,-1
 14 0 l 2,27,28
 -10 0 -10 0 -21.5 18.5 c 128,-1,29
 -33 37 -33 37 -27 63 c 2,30,-1
 324 1438 l 2,0,1
EndSplineSet
Fore
SplineSet
324 1438 m 2,0,1
 336 1483 336 1483 385 1483 c 2,2,-1
 445 1483 l 2,3,4
 469 1483 469 1483 480.5 1464.5 c 128,-1,5
 492 1446 492 1446 485 1419 c 2,6,-1
 340 852 l 1,7,-1
 832 1450 l 2,8,9
 858 1483 858 1483 899 1483 c 2,10,-1
 985 1483 l 2,11,12
 1012 1483 1012 1483 1020 1464.5 c 128,-1,13
 1028 1446 1028 1446 1012 1425 c 2,14,-1
 453 762 l 1,15,-1
 662 61 l 2,16,17
 680 0 680 0 627 0 c 2,18,-1
 551 0 l 2,19,20
 522 0 522 0 512 10 c 128,-1,21
 502 20 502 20 494 51 c 2,22,-1
 301 698 l 1,23,-1
 135 45 l 2,24,25
 123 0 123 0 74 0 c 2,26,-1
 14 0 l 2,27,28
 -10 0 -10 0 -21.5 18.5 c 128,-1,29
 -33 37 -33 37 -27 63 c 2,30,-1
 324 1438 l 2,0,1
EndSplineSet
EndChar

StartChar: L
Encoding: 76 76 45
Width: 788
Flags: W
HStem: 0 141<160 639.438> 1463 20G<360.5 457>
DStem2: -27 63 160 141 0.247341 0.968929<121.829 1476.82>
LayerCount: 2
Back
SplineSet
574 0 m 2,0,-1
 14 0 l 2,1,2
 -10 0 -10 0 -21.5 18.5 c 128,-1,3
 -33 37 -33 37 -27 63 c 2,4,-1
 324 1438 l 2,5,6
 336 1483 336 1483 385 1483 c 2,7,-1
 445 1483 l 2,8,9
 469 1483 469 1483 480.5 1464.5 c 128,-1,10
 492 1446 492 1446 485 1419 c 2,11,-1
 160 141 l 1,12,-1
 623 141 l 2,13,14
 641 141 641 141 649.5 127 c 128,-1,15
 658 113 658 113 653 94 c 2,16,-1
 639 43 l 2,17,18
 629 0 629 0 574 0 c 2,0,-1
EndSplineSet
Fore
SplineSet
574 0 m 2,0,-1
 14 0 l 2,1,2
 -10 0 -10 0 -21.5 18.5 c 128,-1,3
 -33 37 -33 37 -27 63 c 2,4,-1
 324 1438 l 2,5,6
 336 1483 336 1483 385 1483 c 2,7,-1
 445 1483 l 2,8,9
 469 1483 469 1483 480.5 1464.5 c 128,-1,10
 492 1446 492 1446 485 1419 c 2,11,-1
 160 141 l 1,12,-1
 623 141 l 2,13,14
 641 141 641 141 649.5 127 c 128,-1,15
 658 113 658 113 653 94 c 2,16,-1
 639 43 l 2,17,18
 629 0 629 0 574 0 c 2,0,-1
EndSplineSet
EndChar

StartChar: M
Encoding: 77 77 46
Width: 1171
Flags: W
HStem: 0 21G<2 98.5 739.5 835.5> 1463 20G<359.5 470.5 1098.5 1195>
VStem: 391 142<708.336 985.56>
DStem2: -27 63 135 45 0.247987 0.968763<-35.1449 1014.72> 533 569 586 406 0.513775 0.857925<0 563.699> 711 63 873 45 0.246848 0.969054<-35.1554 951.477 1463.44 1476.55>
LayerCount: 2
Back
SplineSet
324 1438 m 2,0,1
 336 1481 336 1481 383 1483 c 2,2,-1
 449 1483 l 2,3,4
 492 1483 492 1483 498 1436 c 0,5,6
 535 1051 535 1051 539 883 c 128,-1,7
 543 715 543 715 533 569 c 1,8,-1
 1057 1444 l 2,9,10
 1079 1483 1079 1483 1118 1483 c 2,11,-1
 1182 1483 l 2,12,13
 1208 1483 1208 1483 1218.5 1463.5 c 128,-1,14
 1229 1444 1229 1444 1223 1419 c 2,15,-1
 873 45 l 2,16,17
 860 0 860 0 811 0 c 2,18,-1
 752 0 l 2,19,20
 727 0 727 0 716 18.5 c 128,-1,21
 705 37 705 37 711 63 c 2,22,-1
 946 985 l 1,23,24
 860 836 860 836 741.5 650.5 c 128,-1,25
 623 465 623 465 586 406 c 0,26,27
 535 322 535 322 483 326 c 2,28,-1
 442 328 l 2,29,30
 385 332 385 332 391 410 c 0,31,32
 406 633 406 633 381 1006 c 1,33,-1
 135 45 l 2,34,35
 123 0 123 0 74 0 c 2,36,-1
 14 0 l 2,37,38
 -10 0 -10 0 -21.5 18.5 c 128,-1,39
 -33 37 -33 37 -27 63 c 2,40,-1
 324 1438 l 2,0,1
EndSplineSet
Fore
SplineSet
324 1438 m 2,0,1
 336 1481 336 1481 383 1483 c 2,2,-1
 449 1483 l 2,3,4
 492 1483 492 1483 498 1436 c 0,5,6
 535 1051 535 1051 539 883 c 128,-1,7
 543 715 543 715 533 569 c 1,8,-1
 1057 1444 l 2,9,10
 1079 1483 1079 1483 1118 1483 c 2,11,-1
 1182 1483 l 2,12,13
 1208 1483 1208 1483 1218.5 1463.5 c 128,-1,14
 1229 1444 1229 1444 1223 1419 c 2,15,-1
 873 45 l 2,16,17
 860 0 860 0 811 0 c 2,18,-1
 752 0 l 2,19,20
 727 0 727 0 716 18.5 c 128,-1,21
 705 37 705 37 711 63 c 2,22,-1
 946 985 l 1,23,24
 860 836 860 836 741.5 650.5 c 128,-1,25
 623 465 623 465 586 406 c 0,26,27
 535 322 535 322 483 326 c 2,28,-1
 442 328 l 2,29,30
 385 332 385 332 391 410 c 0,31,32
 406 633 406 633 381 1006 c 1,33,-1
 135 45 l 2,34,35
 123 0 123 0 74 0 c 2,36,-1
 14 0 l 2,37,38
 -10 0 -10 0 -21.5 18.5 c 128,-1,39
 -33 37 -33 37 -27 63 c 2,40,-1
 324 1438 l 2,0,1
EndSplineSet
EndChar

StartChar: N
Encoding: 78 78 47
Width: 1058
Flags: W
HStem: 0 21G<2 98.5 617.5 723> 1463 20G<359.5 456 985.5 1081.5>
DStem2: -27 63 135 45 0.247954 0.968772<-35.1453 1107.61> 498 1419 404 1096 0.173026 -0.984917<301.864 1051.86> 680 383 760 45 0.246209 0.969217<0 1146.15>
LayerCount: 2
Back
SplineSet
324 1438 m 2,0,1
 336 1481 336 1481 383 1483 c 2,2,-1
 445 1483 l 2,3,4
 467 1483 467 1483 480.5 1467.5 c 128,-1,5
 494 1452 494 1452 498 1419 c 2,6,-1
 680 383 l 1,7,-1
 948 1438 l 2,8,9
 961 1483 961 1483 1010 1483 c 2,10,-1
 1069 1483 l 2,11,12
 1094 1483 1094 1483 1105 1464.5 c 128,-1,13
 1116 1446 1116 1446 1110 1419 c 2,14,-1
 760 45 l 2,15,16
 748 0 748 0 698 0 c 2,17,-1
 625 0 l 2,18,19
 610 0 610 0 600 9 c 128,-1,20
 590 18 590 18 584 63 c 2,21,-1
 404 1096 l 1,22,-1
 135 45 l 2,23,24
 123 0 123 0 74 0 c 2,25,-1
 14 0 l 2,26,27
 -10 0 -10 0 -21.5 18.5 c 128,-1,28
 -33 37 -33 37 -27 63 c 2,29,-1
 324 1438 l 2,0,1
EndSplineSet
Fore
SplineSet
324 1438 m 2,0,1
 336 1481 336 1481 383 1483 c 2,2,-1
 445 1483 l 2,3,4
 467 1483 467 1483 480.5 1467.5 c 128,-1,5
 494 1452 494 1452 498 1419 c 2,6,-1
 680 383 l 1,7,-1
 948 1438 l 2,8,9
 961 1483 961 1483 1010 1483 c 2,10,-1
 1069 1483 l 2,11,12
 1094 1483 1094 1483 1105 1464.5 c 128,-1,13
 1116 1446 1116 1446 1110 1419 c 2,14,-1
 760 45 l 2,15,16
 748 0 748 0 698 0 c 2,17,-1
 625 0 l 2,18,19
 610 0 610 0 600 9 c 128,-1,20
 590 18 590 18 584 63 c 2,21,-1
 404 1096 l 1,22,-1
 135 45 l 2,23,24
 123 0 123 0 74 0 c 2,25,-1
 14 0 l 2,26,27
 -10 0 -10 0 -21.5 18.5 c 128,-1,28
 -33 37 -33 37 -27 63 c 2,29,-1
 324 1438 l 2,0,1
EndSplineSet
EndChar

StartChar: O
Encoding: 79 79 48
Width: 913
Flags: MW
HStem: -10 139<239 444> 1331 168<502 715>
VStem: 14 169<192 741> 761 171<1071 1146>
LayerCount: 2
Back
SplineSet
14 444 m 0,0,1
 14 631 14 631 69.5 816 c 128,-1,2
 125 1001 125 1001 204 1147.5 c 128,-1,3
 283 1294 283 1294 399.5 1396.5 c 128,-1,4
 516 1499 516 1499 641 1499 c 0,5,6
 727 1499 727 1499 819 1442 c 0,7,8
 883 1403 883 1403 907.5 1319 c 128,-1,9
 932 1235 932 1235 932 1071 c 128,-1,10
 932 907 932 907 860 635 c 0,11,12
 795 383 795 383 668 197 c 0,13,14
 600 100 600 100 507 46 c 128,-1,15
 414 -8 414 -8 327 -10 c 128,-1,16
 240 -12 240 -12 160 31 c 0,17,18
 14 106 14 106 14 444 c 0,0,1
242 788 m 0,19,20
 184 598 184 598 183 442.5 c 128,-1,21
 182 287 182 287 219 208 c 128,-1,22
 256 129 256 129 315 129 c 0,23,24
 424 129 424 129 506 236 c 0,25,26
 606 375 606 375 698 674 c 0,27,28
 782 961 782 961 760.5 1146 c 128,-1,29
 739 1331 739 1331 633 1331 c 0,30,31
 520 1331 520 1331 432 1217 c 0,32,33
 324 1073 324 1073 242 788 c 0,19,20
EndSplineSet
Fore
SplineSet
14 444 m 0,0,1
 14 631 14 631 69.5 816 c 128,-1,2
 125 1001 125 1001 204 1147.5 c 128,-1,3
 283 1294 283 1294 399.5 1396.5 c 128,-1,4
 516 1499 516 1499 641 1499 c 0,5,6
 727 1499 727 1499 819 1442 c 0,7,8
 883 1403 883 1403 907.5 1319 c 128,-1,9
 932 1235 932 1235 932 1071 c 128,-1,10
 932 907 932 907 860 635 c 0,11,12
 795 383 795 383 668 197 c 0,13,14
 600 100 600 100 507 46 c 128,-1,15
 414 -8 414 -8 327 -10 c 128,-1,16
 240 -12 240 -12 160 31 c 0,17,18
 14 106 14 106 14 444 c 0,0,1
242 788 m 0,19,20
 184 598 184 598 183 442.5 c 128,-1,21
 182 287 182 287 219 208 c 128,-1,22
 256 129 256 129 315 129 c 0,23,24
 424 129 424 129 506 236 c 0,25,26
 606 375 606 375 698 674 c 0,27,28
 782 961 782 961 760.5 1146 c 128,-1,29
 739 1331 739 1331 633 1331 c 0,30,31
 520 1331 520 1331 432 1217 c 0,32,33
 324 1073 324 1073 242 788 c 0,19,20
EndSplineSet
EndChar

StartChar: P
Encoding: 80 80 49
Width: 919
Flags: MW
HStem: 0 43G<6 103> 632 128<434 504> 1343 139<202 303 469 709>
VStem: 741 166<969 1310>
DStem2: -22 63 139 45 0.246547 0.969131<-35.5746 607.66 753.195 1320.77>
LayerCount: 2
Back
SplineSet
250 1483 m 2,0,-1
 572 1483 l 2,1,2
 737 1483 737 1483 821 1413 c 128,-1,3
 905 1343 905 1343 907 1207 c 128,-1,4
 909 1071 909 1071 857 927.5 c 128,-1,5
 805 784 805 784 711 716.5 c 128,-1,6
 617 649 617 649 504 631.5 c 128,-1,7
 391 614 391 614 285 612 c 1,8,-1
 139 45 l 2,9,10
 127 0 127 0 78 0 c 2,11,-1
 19 0 l 2,12,13
 -6 0 -6 0 -17.5 18.5 c 128,-1,14
 -29 37 -29 37 -22 63 c 2,15,-1
 303 1343 l 1,16,17
 252 1343 252 1343 230.5 1343 c 128,-1,18
 209 1343 209 1343 196.5 1360.5 c 128,-1,19
 184 1378 184 1378 191 1401 c 2,20,-1
 203 1442 l 2,21,22
 207 1458 207 1458 221.5 1470.5 c 128,-1,23
 236 1483 236 1483 250 1483 c 2,0,-1
469 1341 m 1,24,-1
 320 754 l 1,25,-1
 434 760 l 2,26,27
 598 772 598 772 649.5 864 c 128,-1,28
 701 956 701 956 721 1052.5 c 128,-1,29
 741 1149 741 1149 741 1212 c 0,30,31
 741 1333 741 1333 602 1339 c 0,32,33
 578 1341 578 1341 469 1341 c 1,24,-1
EndSplineSet
Fore
SplineSet
250 1483 m 2,0,-1
 572 1483 l 2,1,2
 737 1483 737 1483 821 1413 c 128,-1,3
 905 1343 905 1343 907 1207 c 128,-1,4
 909 1071 909 1071 857 927.5 c 128,-1,5
 805 784 805 784 711 716.5 c 128,-1,6
 617 649 617 649 504 631.5 c 128,-1,7
 391 614 391 614 285 612 c 1,8,-1
 139 45 l 2,9,10
 127 0 127 0 78 0 c 2,11,-1
 19 0 l 2,12,13
 -6 0 -6 0 -17.5 18.5 c 128,-1,14
 -29 37 -29 37 -22 63 c 2,15,-1
 303 1343 l 1,16,17
 252 1343 252 1343 230.5 1343 c 128,-1,18
 209 1343 209 1343 196.5 1360.5 c 128,-1,19
 184 1378 184 1378 191 1401 c 2,20,-1
 203 1442 l 2,21,22
 207 1458 207 1458 221.5 1470.5 c 128,-1,23
 236 1483 236 1483 250 1483 c 2,0,-1
469 1341 m 1,24,-1
 320 754 l 1,25,-1
 434 760 l 2,26,27
 598 772 598 772 649.5 864 c 128,-1,28
 701 956 701 956 721 1052.5 c 128,-1,29
 741 1149 741 1149 741 1212 c 0,30,31
 741 1333 741 1333 602 1339 c 0,32,33
 578 1341 578 1341 469 1341 c 1,24,-1
EndSplineSet
EndChar

StartChar: Q
Encoding: 81 81 50
Width: 942
Flags: MW
HStem: 2 128<342 396> 1331 168<502 712>
VStem: 14 167<189 741> 758 171<1071 1146>
LayerCount: 2
Back
SplineSet
146 -100 m 2,0,-1
 160 -53 l 2,1,2
 169 -12 169 -12 228 2 c 1,3,4
 189 14 189 14 156 31 c 0,5,6
 25 113 25 113 14 368 c 128,-1,7
 3 623 3 623 67.5 819.5 c 128,-1,8
 132 1016 132 1016 207.5 1158 c 128,-1,9
 283 1300 283 1300 400 1399.5 c 128,-1,10
 517 1499 517 1499 617 1499 c 128,-1,11
 717 1499 717 1499 799 1452 c 128,-1,12
 881 1405 881 1405 904.5 1320 c 128,-1,13
 928 1235 928 1235 929 1071 c 128,-1,14
 930 907 930 907 863.5 658.5 c 128,-1,15
 797 410 797 410 691 238 c 0,16,17
 572 45 572 45 396 2 c 1,18,19
 412 -4 412 -4 427 -10 c 0,20,21
 541 -66 541 -66 672 -10 c 0,22,23
 693 -2 693 -2 704 -19.5 c 128,-1,24
 715 -37 715 -37 709 -63 c 2,25,-1
 697 -115 l 2,26,27
 691 -150 691 -150 656 -164 c 0,28,29
 537 -219 537 -219 422.5 -162.5 c 128,-1,30
 308 -106 308 -106 177 -164 c 0,31,32
 154 -172 154 -172 146 -154.5 c 128,-1,33
 138 -137 138 -137 146 -100 c 2,0,-1
238 788 m 0,34,35
 183 598 183 598 181 442.5 c 128,-1,36
 179 287 179 287 217 205 c 128,-1,37
 255 123 255 123 342 130 c 128,-1,38
 429 137 429 137 515 253 c 128,-1,39
 601 369 601 369 691 665 c 128,-1,40
 781 961 781 961 758.5 1146 c 128,-1,41
 736 1331 736 1331 625.5 1331 c 128,-1,42
 515 1331 515 1331 417.5 1202 c 128,-1,43
 320 1073 320 1073 238 788 c 0,34,35
EndSplineSet
Fore
SplineSet
146 -100 m 2,0,-1
 160 -53 l 2,1,2
 169 -12 169 -12 228 2 c 1,3,4
 189 14 189 14 156 31 c 0,5,6
 25 113 25 113 14 368 c 128,-1,7
 3 623 3 623 67.5 819.5 c 128,-1,8
 132 1016 132 1016 207.5 1158 c 128,-1,9
 283 1300 283 1300 400 1399.5 c 128,-1,10
 517 1499 517 1499 617 1499 c 128,-1,11
 717 1499 717 1499 799 1452 c 128,-1,12
 881 1405 881 1405 904.5 1320 c 128,-1,13
 928 1235 928 1235 929 1071 c 128,-1,14
 930 907 930 907 863.5 658.5 c 128,-1,15
 797 410 797 410 691 238 c 0,16,17
 572 45 572 45 396 2 c 1,18,19
 412 -4 412 -4 427 -10 c 0,20,21
 541 -66 541 -66 672 -10 c 0,22,23
 693 -2 693 -2 704 -19.5 c 128,-1,24
 715 -37 715 -37 709 -63 c 2,25,-1
 697 -115 l 2,26,27
 691 -150 691 -150 656 -164 c 0,28,29
 537 -219 537 -219 422.5 -162.5 c 128,-1,30
 308 -106 308 -106 177 -164 c 0,31,32
 154 -172 154 -172 146 -154.5 c 128,-1,33
 138 -137 138 -137 146 -100 c 2,0,-1
238 788 m 0,34,35
 183 598 183 598 181 442.5 c 128,-1,36
 179 287 179 287 217 205 c 128,-1,37
 255 123 255 123 342 130 c 128,-1,38
 429 137 429 137 515 253 c 128,-1,39
 601 369 601 369 691 665 c 128,-1,40
 781 961 781 961 758.5 1146 c 128,-1,41
 736 1331 736 1331 625.5 1331 c 128,-1,42
 515 1331 515 1331 417.5 1202 c 128,-1,43
 320 1073 320 1073 238 788 c 0,34,35
EndSplineSet
EndChar

StartChar: R
Encoding: 82 82 51
Width: 921
Flags: W
HStem: 0 21G<6.5 102.5 539.5 650.5> 1341 142<202.174 303 469 705.417>
VStem: 741 168<964.973 1303.15>
DStem2: -22 63 139 45 0.246459 0.969153<-35.2028 645.558 789.39 1318.68> 574 676 420 651 0.153282 -0.988182<1.09907 642.509>
LayerCount: 2
Back
SplineSet
303 1341 m 1,0,1
 252 1341 252 1341 231.5 1341 c 128,-1,2
 211 1341 211 1341 198.5 1358.5 c 128,-1,3
 186 1376 186 1376 193 1399 c 2,4,-1
 203 1442 l 2,5,6
 207 1458 207 1458 222.5 1470.5 c 128,-1,7
 238 1483 238 1483 250 1483 c 2,8,-1
 598 1483 l 2,9,10
 739 1483 739 1483 824 1412 c 128,-1,11
 909 1341 909 1341 909 1204 c 128,-1,12
 909 1067 909 1067 858 946 c 0,13,14
 770 739 770 739 574 676 c 1,15,-1
 668 70 l 2,16,17
 678 0 678 0 623 0 c 2,18,-1
 553 0 l 2,19,20
 526 0 526 0 514 16.5 c 128,-1,21
 502 33 502 33 498 72 c 2,22,-1
 420 651 l 1,23,-1
 293 649 l 1,24,-1
 139 45 l 2,25,26
 127 0 127 0 78 0 c 2,27,-1
 19 0 l 2,28,29
 -6 0 -6 0 -17.5 18.5 c 128,-1,30
 -29 37 -29 37 -22 63 c 2,31,-1
 303 1341 l 1,0,1
469 1339 m 1,32,-1
 330 788 l 1,33,-1
 457 795 l 2,34,35
 596 801 596 801 668.5 912.5 c 128,-1,36
 741 1024 741 1024 741 1212 c 0,37,38
 741 1266 741 1266 706.5 1299.5 c 128,-1,39
 672 1333 672 1333 619.5 1336 c 128,-1,40
 567 1339 567 1339 469 1339 c 1,32,-1
EndSplineSet
Fore
SplineSet
303 1341 m 1,0,1
 252 1341 252 1341 231.5 1341 c 128,-1,2
 211 1341 211 1341 198.5 1358.5 c 128,-1,3
 186 1376 186 1376 193 1399 c 2,4,-1
 203 1442 l 2,5,6
 207 1458 207 1458 222.5 1470.5 c 128,-1,7
 238 1483 238 1483 250 1483 c 2,8,-1
 598 1483 l 2,9,10
 739 1483 739 1483 824 1412 c 128,-1,11
 909 1341 909 1341 909 1204 c 128,-1,12
 909 1067 909 1067 858 946 c 0,13,14
 770 739 770 739 574 676 c 1,15,-1
 668 70 l 2,16,17
 678 0 678 0 623 0 c 2,18,-1
 553 0 l 2,19,20
 526 0 526 0 514 16.5 c 128,-1,21
 502 33 502 33 498 72 c 2,22,-1
 420 651 l 1,23,-1
 293 649 l 1,24,-1
 139 45 l 2,25,26
 127 0 127 0 78 0 c 2,27,-1
 19 0 l 2,28,29
 -6 0 -6 0 -17.5 18.5 c 128,-1,30
 -29 37 -29 37 -22 63 c 2,31,-1
 303 1341 l 1,0,1
469 1339 m 1,32,-1
 330 788 l 1,33,-1
 457 795 l 2,34,35
 596 801 596 801 668.5 912.5 c 128,-1,36
 741 1024 741 1024 741 1212 c 0,37,38
 741 1266 741 1266 706.5 1299.5 c 128,-1,39
 672 1333 672 1333 619.5 1336 c 128,-1,40
 567 1339 567 1339 469 1339 c 1,32,-1
EndSplineSet
EndChar

StartChar: S
Encoding: 83 83 52
Width: 899
Flags: MW
HStem: -33 125<287 414> 1352 154<576 671>
VStem: 52 154<137 457> 222 168<895 1143> 591 171<333 626> 754 156<1019 1309>
DStem2: 486 846 363 721 0.94635 -0.323144<-88.2879 156.931>
LayerCount: 2
Back
SplineSet
910 1083 m 0,0,1
 910 1032 910 1032 875 1022 c 2,2,-1
 803 999 l 2,3,4
 787 993 787 993 770.5 1004.5 c 128,-1,5
 754 1016 754 1016 754 1042 c 0,6,7
 754 1313 754 1313 666 1354 c 0,8,9
 625 1374 625 1374 576 1352 c 4,10,11
 512 1319 512 1319 453 1214.5 c 128,-1,12
 394 1110 394 1110 390 977 c 0,13,14
 388 924 388 924 408 894 c 128,-1,15
 428 864 428 864 486 846 c 2,16,-1
 570 817 l 2,17,18
 689 776 689 776 726.5 722 c 128,-1,19
 764 668 764 668 762 563 c 0,20,21
 760 342 760 342 618 155.5 c 128,-1,22
 476 -31 476 -31 293 -33 c 0,23,24
 52 -33 52 -33 52 360 c 0,25,26
 48 442 48 442 82 453 c 2,27,-1
 158 477 l 2,28,29
 179 485 179 485 192 474 c 128,-1,30
 205 463 205 463 205 438 c 0,31,32
 203 131 203 131 287 92 c 1,33,34
 318 86 318 86 367 106 c 0,35,36
 451 143 451 143 515.5 258 c 128,-1,37
 580 373 580 373 591.5 482.5 c 128,-1,38
 603 592 603 592 578 627 c 128,-1,39
 553 662 553 662 449 694 c 2,40,-1
 363 721 l 2,41,42
 306 739 306 739 264 786.5 c 128,-1,43
 222 834 222 834 222 905 c 0,44,45
 222 1032 222 1032 276 1168.5 c 128,-1,46
 330 1305 330 1305 436.5 1405 c 128,-1,47
 543 1505 543 1505 671 1505 c 132,-1,48
 799 1505 799 1505 854.5 1396.5 c 128,-1,49
 910 1288 910 1288 910 1083 c 0,0,1
EndSplineSet
Fore
SplineSet
910 1083 m 0,0,1
 910 1032 910 1032 875 1022 c 2,2,-1
 803 999 l 2,3,4
 787 993 787 993 770.5 1004.5 c 128,-1,5
 754 1016 754 1016 754 1042 c 0,6,7
 754 1313 754 1313 666 1354 c 0,8,9
 625 1374 625 1374 576 1352 c 4,10,11
 512 1319 512 1319 453 1214.5 c 128,-1,12
 394 1110 394 1110 390 977 c 0,13,14
 388 924 388 924 408 894 c 128,-1,15
 428 864 428 864 486 846 c 2,16,-1
 570 817 l 2,17,18
 689 776 689 776 726.5 722 c 128,-1,19
 764 668 764 668 762 563 c 0,20,21
 760 342 760 342 618 155.5 c 128,-1,22
 476 -31 476 -31 293 -33 c 0,23,24
 52 -33 52 -33 52 360 c 0,25,26
 48 442 48 442 82 453 c 2,27,-1
 158 477 l 2,28,29
 179 485 179 485 192 474 c 128,-1,30
 205 463 205 463 205 438 c 0,31,32
 203 131 203 131 287 92 c 1,33,34
 318 86 318 86 367 106 c 0,35,36
 451 143 451 143 515.5 258 c 128,-1,37
 580 373 580 373 591.5 482.5 c 128,-1,38
 603 592 603 592 578 627 c 128,-1,39
 553 662 553 662 449 694 c 2,40,-1
 363 721 l 2,41,42
 306 739 306 739 264 786.5 c 128,-1,43
 222 834 222 834 222 905 c 0,44,45
 222 1032 222 1032 276 1168.5 c 128,-1,46
 330 1305 330 1305 436.5 1405 c 128,-1,47
 543 1505 543 1505 671 1505 c 132,-1,48
 799 1505 799 1505 854.5 1396.5 c 128,-1,49
 910 1288 910 1288 910 1083 c 0,0,1
EndSplineSet
EndChar

StartChar: T
Encoding: 84 84 53
Width: 911
Flags: W
HStem: 0 21G<215.5 312> 1335 148<175.38 511 679 1055.34>
DStem2: 187 63 349 45 0.247833 0.968803<-34.6747 1312.61>
LayerCount: 2
Back
SplineSet
992 1335 m 2,0,-1
 679 1335 l 1,1,-1
 349 45 l 2,2,3
 337 0 337 0 287 0 c 2,4,-1
 228 0 l 2,5,6
 203 0 203 0 192 18.5 c 128,-1,7
 181 37 181 37 187 63 c 2,8,-1
 511 1335 l 1,9,-1
 187 1335 l 2,10,11
 128 1335 128 1335 142 1382 c 2,12,-1
 156 1442 l 2,13,14
 163 1468 163 1468 175 1475.5 c 128,-1,15
 187 1483 187 1483 218 1483 c 2,16,-1
 1017 1483 l 2,17,18
 1080 1483 1080 1483 1066 1425 c 2,19,-1
 1055 1378 l 2,20,21
 1047 1335 1047 1335 992 1335 c 2,0,-1
EndSplineSet
Fore
SplineSet
992 1335 m 2,0,-1
 679 1335 l 1,1,-1
 349 45 l 2,2,3
 337 0 337 0 287 0 c 2,4,-1
 228 0 l 2,5,6
 203 0 203 0 192 18.5 c 128,-1,7
 181 37 181 37 187 63 c 2,8,-1
 511 1335 l 1,9,-1
 187 1335 l 2,10,11
 128 1335 128 1335 142 1382 c 2,12,-1
 156 1442 l 2,13,14
 163 1468 163 1468 175 1475.5 c 128,-1,15
 187 1483 187 1483 218 1483 c 2,16,-1
 1017 1483 l 2,17,18
 1080 1483 1080 1483 1066 1425 c 2,19,-1
 1055 1378 l 2,20,21
 1047 1335 1047 1335 992 1335 c 2,0,-1
EndSplineSet
EndChar

StartChar: U
Encoding: 85 85 54
Width: 1013
Flags: W
HStem: -14 133<205.142 459.08> 1463 20G<293.5 389.5 907.5 996>
DStem2: 35 571 187 506 0.247004 0.969015<-284.74 952.432> 627 483 783 469 0.247545 0.968876<-288.366 1043.31>
LayerCount: 2
Back
SplineSet
295 -14 m 0,0,1
 156 -12 156 -12 84 59 c 0,2,3
 -59 209 -59 209 35 571 c 2,4,-1
 256 1438 l 2,5,6
 269 1483 269 1483 318 1483 c 2,7,-1
 377 1483 l 2,8,9
 402 1483 402 1483 413 1464.5 c 128,-1,10
 424 1446 424 1446 418 1419 c 2,11,-1
 187 506 l 2,12,13
 89 119 89 119 326 119 c 0,14,15
 424 119 424 119 501 201 c 128,-1,16
 578 283 578 283 627 483 c 2,17,-1
 871 1438 l 2,18,19
 883 1483 883 1483 932 1483 c 2,20,-1
 984 1483 l 2,21,22
 1008 1483 1008 1483 1018.5 1464.5 c 128,-1,23
 1029 1446 1029 1446 1022 1419 c 2,24,-1
 783 469 l 2,25,26
 717 205 717 205 596 98 c 0,27,28
 547 51 547 51 471.5 18.5 c 128,-1,29
 396 -14 396 -14 295 -14 c 0,0,1
EndSplineSet
Fore
SplineSet
295 -14 m 0,0,1
 156 -12 156 -12 84 59 c 0,2,3
 -59 209 -59 209 35 571 c 2,4,-1
 256 1438 l 2,5,6
 269 1483 269 1483 318 1483 c 2,7,-1
 377 1483 l 2,8,9
 402 1483 402 1483 413 1464.5 c 128,-1,10
 424 1446 424 1446 418 1419 c 2,11,-1
 187 506 l 2,12,13
 89 119 89 119 326 119 c 0,14,15
 424 119 424 119 501 201 c 128,-1,16
 578 283 578 283 627 483 c 2,17,-1
 871 1438 l 2,18,19
 883 1483 883 1483 932 1483 c 2,20,-1
 984 1483 l 2,21,22
 1008 1483 1008 1483 1018.5 1464.5 c 128,-1,23
 1029 1446 1029 1446 1022 1419 c 2,24,-1
 783 469 l 2,25,26
 717 205 717 205 596 98 c 0,27,28
 547 51 547 51 471.5 18.5 c 128,-1,29
 396 -14 396 -14 295 -14 c 0,0,1
EndSplineSet
EndChar

StartChar: V
Encoding: 86 86 55
Width: 919
Flags: W
DStem2: 119 111 285 178 0.0543414 0.998522<75.9217 1371.44>
LayerCount: 2
Back
SplineSet
285 178 m 5,0,-1
 906 1440 l 6,1,2
 928 1487 928 1487 984 1481 c 2,3,-1
 1029 1477 l 2,4,5
 1096 1470 1096 1470 1072 1399 c 5,6,-1
 388 82 l 6,7,8
 351 4 351 4 265 0 c 2,9,-1
 201 -2 l 2,10,11
 160 -4 160 -4 137.5 27.5 c 128,-1,12
 115 59 115 59 119 111 c 2,13,-1
 191 1434 l 2,14,15
 197 1479 197 1479 253 1479 c 2,16,-1
 322 1479 l 2,17,18
 375 1479 375 1479 369 1423 c 2,19,-1
 285 178 l 5,0,-1
EndSplineSet
Fore
SplineSet
285 178 m 5,0,-1
 906 1440 l 6,1,2
 928 1487 928 1487 984 1481 c 2,3,-1
 1029 1477 l 2,4,5
 1096 1470 1096 1470 1072 1399 c 5,6,-1
 388 82 l 6,7,8
 351 4 351 4 265 0 c 2,9,-1
 201 -2 l 2,10,11
 160 -4 160 -4 137.5 27.5 c 128,-1,12
 115 59 115 59 119 111 c 2,13,-1
 191 1434 l 2,14,15
 197 1479 197 1479 253 1479 c 2,16,-1
 322 1479 l 2,17,18
 375 1479 375 1479 369 1423 c 2,19,-1
 285 178 l 5,0,-1
EndSplineSet
EndChar

StartChar: W
Encoding: 87 87 56
Width: 1433
Flags: W
HStem: 0 21G<177.5 302.5 787.5 926> 1463 20G<320.5 459 832.5 957.5 1358 1469.5>
VStem: 1331 172<1129.14 1472.17>
LayerCount: 2
Back
SplineSet
431 1483 m 2,0,1
 487 1479 487 1479 448 1403 c 0,2,3
 362 1245 362 1245 291.5 877.5 c 128,-1,4
 221 510 221 510 270 260 c 1,5,6
 425 430 425 430 561.5 730 c 128,-1,7
 698 1030 698 1030 745 1262 c 1,8,-1
 749 1266 l 1,9,10
 767 1356 767 1356 788 1430 c 0,11,12
 806 1483 806 1483 859 1483 c 2,13,-1
 933 1483 l 2,14,15
 982 1483 982 1483 960 1421 c 0,16,17
 878 1180 878 1180 847 844 c 128,-1,18
 816 508 816 508 880 238 c 1,19,20
 1066 449 1066 449 1192 804 c 128,-1,21
 1318 1159 1318 1159 1331 1434 c 0,22,23
 1333 1462 1333 1462 1339 1472.5 c 128,-1,24
 1345 1483 1345 1483 1371 1483 c 2,25,-1
 1453 1483 l 2,26,27
 1486 1483 1486 1483 1495.5 1472.5 c 128,-1,28
 1505 1462 1505 1462 1503 1432 c 0,29,30
 1492 1214 1492 1214 1412.5 941 c 128,-1,31
 1333 668 1333 668 1177 399.5 c 128,-1,32
 1021 131 1021 131 831 0 c 1,33,-1
 806 0 l 2,34,35
 769 0 769 0 755 41 c 0,36,37
 677 266 677 266 685 666 c 1,38,39
 612 489 612 489 485 306 c 128,-1,40
 358 123 358 123 247 0 c 1,41,-1
 196 0 l 2,42,43
 159 0 159 0 145 41 c 0,44,45
 57 317 57 317 101 737 c 128,-1,46
 145 1157 145 1157 286 1454 c 0,47,48
 300 1483 300 1483 341 1483 c 2,49,-1
 431 1483 l 2,0,1
EndSplineSet
Fore
SplineSet
431 1483 m 2,0,1
 487 1479 487 1479 448 1403 c 0,2,3
 362 1245 362 1245 291.5 877.5 c 128,-1,4
 221 510 221 510 270 260 c 1,5,6
 425 430 425 430 561.5 730 c 128,-1,7
 698 1030 698 1030 745 1262 c 1,8,-1
 749 1266 l 1,9,10
 767 1356 767 1356 788 1430 c 0,11,12
 806 1483 806 1483 859 1483 c 2,13,-1
 933 1483 l 2,14,15
 982 1483 982 1483 960 1421 c 0,16,17
 878 1180 878 1180 847 844 c 128,-1,18
 816 508 816 508 880 238 c 1,19,20
 1066 449 1066 449 1192 804 c 128,-1,21
 1318 1159 1318 1159 1331 1434 c 0,22,23
 1333 1462 1333 1462 1339 1472.5 c 128,-1,24
 1345 1483 1345 1483 1371 1483 c 2,25,-1
 1453 1483 l 2,26,27
 1486 1483 1486 1483 1495.5 1472.5 c 128,-1,28
 1505 1462 1505 1462 1503 1432 c 0,29,30
 1492 1214 1492 1214 1412.5 941 c 128,-1,31
 1333 668 1333 668 1177 399.5 c 128,-1,32
 1021 131 1021 131 831 0 c 1,33,-1
 806 0 l 2,34,35
 769 0 769 0 755 41 c 0,36,37
 677 266 677 266 685 666 c 1,38,39
 612 489 612 489 485 306 c 128,-1,40
 358 123 358 123 247 0 c 1,41,-1
 196 0 l 2,42,43
 159 0 159 0 145 41 c 0,44,45
 57 317 57 317 101 737 c 128,-1,46
 145 1157 145 1157 286 1454 c 0,47,48
 300 1483 300 1483 341 1483 c 2,49,-1
 431 1483 l 2,0,1
EndSplineSet
EndChar

StartChar: X
Encoding: 88 88 57
Width: 823
Flags: W
HStem: 0 21G<-86 53.5 492.5 606.5> 1465 20G<188 308.5 777.5 912>
DStem2: 445 881 305 780 0.208779 -0.977963<-627.116 -541.44 -541.44 0 276.126 876.26>
LayerCount: 2
Back
SplineSet
496 684 m 1,0,-1
 631 66 l 2,1,2
 637 39 637 39 628 19.5 c 128,-1,3
 619 0 619 0 594 0 c 2,4,-1
 518 0 l 2,5,6
 467 0 467 0 453 70 c 2,7,-1
 367 582 l 1,8,-1
 101 47 l 2,9,10
 80 0 80 0 27 0 c 2,11,-1
 -49 0 l 2,12,13
 -123 0 -123 0 -82 86 c 2,14,-1
 305 780 l 1,15,-1
 172 1403 l 2,16,17
 150 1485 150 1485 226 1485 c 2,18,-1
 275 1485 l 2,19,20
 342 1485 342 1485 353 1415 c 2,21,-1
 445 881 l 1,22,-1
 736 1450 l 2,23,24
 752 1485 752 1485 803 1485 c 2,25,-1
 869 1485 l 2,26,27
 955 1485 955 1485 908 1399 c 2,28,-1
 496 684 l 1,0,-1
EndSplineSet
Fore
SplineSet
496 684 m 1,0,-1
 631 66 l 2,1,2
 637 39 637 39 628 19.5 c 128,-1,3
 619 0 619 0 594 0 c 2,4,-1
 518 0 l 2,5,6
 467 0 467 0 453 70 c 2,7,-1
 367 582 l 1,8,-1
 101 47 l 2,9,10
 80 0 80 0 27 0 c 2,11,-1
 -49 0 l 2,12,13
 -123 0 -123 0 -82 86 c 2,14,-1
 305 780 l 1,15,-1
 172 1403 l 2,16,17
 150 1485 150 1485 226 1485 c 2,18,-1
 275 1485 l 2,19,20
 342 1485 342 1485 353 1415 c 2,21,-1
 445 881 l 1,22,-1
 736 1450 l 2,23,24
 752 1485 752 1485 803 1485 c 2,25,-1
 869 1485 l 2,26,27
 955 1485 955 1485 908 1399 c 2,28,-1
 496 684 l 1,0,-1
EndSplineSet
EndChar

StartChar: Y
Encoding: 89 89 58
Width: 819
Flags: W
HStem: 0 21G<180.5 276.5>
VStem: 295 129<768 1095.05>
DStem2: 152 63 313 45 0.246259 0.969204<-35.2269 590.71>
LayerCount: 2
Back
SplineSet
424 768 m 1,0,1
 615 1053 615 1053 693.5 1189 c 128,-1,2
 772 1325 772 1325 834 1456 c 0,3,4
 848 1487 848 1487 895 1483 c 2,5,-1
 959 1475 l 2,6,7
 981 1473 981 1473 990.5 1453.5 c 128,-1,8
 1000 1434 1000 1434 983 1401 c 0,9,10
 748 989 748 989 453 596 c 1,11,-1
 313 45 l 2,12,13
 301 0 301 0 252 0 c 2,14,-1
 193 0 l 2,15,16
 168 0 168 0 157 18.5 c 128,-1,17
 146 37 146 37 152 63 c 2,18,-1
 295 629 l 1,19,20
 295 764 295 764 263.5 1013 c 128,-1,21
 232 1262 232 1262 199 1391 c 0,22,23
 186 1427 186 1427 199.5 1453 c 128,-1,24
 213 1479 213 1479 244 1481 c 2,25,-1
 301 1489 l 2,26,27
 330 1491 330 1491 342 1482 c 128,-1,28
 354 1473 354 1473 361 1440 c 0,29,30
 424 1059 424 1059 424 768 c 1,0,1
EndSplineSet
Fore
SplineSet
424 768 m 1,0,1
 615 1053 615 1053 693.5 1189 c 128,-1,2
 772 1325 772 1325 834 1456 c 0,3,4
 848 1487 848 1487 895 1483 c 2,5,-1
 959 1475 l 2,6,7
 981 1473 981 1473 990.5 1453.5 c 128,-1,8
 1000 1434 1000 1434 983 1401 c 0,9,10
 748 989 748 989 453 596 c 1,11,-1
 313 45 l 2,12,13
 301 0 301 0 252 0 c 2,14,-1
 193 0 l 2,15,16
 168 0 168 0 157 18.5 c 128,-1,17
 146 37 146 37 152 63 c 2,18,-1
 295 629 l 1,19,20
 295 764 295 764 263.5 1013 c 128,-1,21
 232 1262 232 1262 199 1391 c 0,22,23
 186 1427 186 1427 199.5 1453 c 128,-1,24
 213 1479 213 1479 244 1481 c 2,25,-1
 301 1489 l 2,26,27
 330 1491 330 1491 342 1482 c 128,-1,28
 354 1473 354 1473 361 1440 c 0,29,30
 424 1059 424 1059 424 768 c 1,0,1
EndSplineSet
EndChar

StartChar: Z
Encoding: 90 90 59
Width: 937
Flags: W
HStem: 0 147<154 677.26> 1335 148<273.582 760 939 1003.26>
DStem2: -55 94 154 147 0.551292 0.834312<159.439 1484.68>
LayerCount: 2
Back
SplineSet
310 1483 m 2,0,-1
 977 1483 l 2,1,2
 1025 1483 1025 1483 1016 1440 c 2,3,-1
 1004 1380 l 2,4,5
 996 1333 996 1333 947 1335 c 2,6,-1
 939 1335 l 1,7,-1
 154 147 l 1,8,-1
 642 147 l 2,9,10
 701 147 701 147 689 92 c 2,11,-1
 678 45 l 2,12,13
 666 0 666 0 611 0 c 2,14,-1
 9 0 l 2,15,16
 -42 0 -42 0 -56.5 27.5 c 128,-1,17
 -71 55 -71 55 -55 94 c 1,18,-1
 760 1335 l 1,19,-1
 304 1335 l 2,20,21
 246 1335 246 1335 259 1389 c 2,22,-1
 277 1454 l 2,23,24
 283 1485 283 1485 310 1483 c 2,0,-1
EndSplineSet
Fore
SplineSet
310 1483 m 2,0,-1
 977 1483 l 2,1,2
 1025 1483 1025 1483 1016 1440 c 2,3,-1
 1004 1380 l 2,4,5
 996 1333 996 1333 947 1335 c 2,6,-1
 939 1335 l 1,7,-1
 154 147 l 1,8,-1
 642 147 l 2,9,10
 701 147 701 147 689 92 c 2,11,-1
 678 45 l 2,12,13
 666 0 666 0 611 0 c 2,14,-1
 9 0 l 2,15,16
 -42 0 -42 0 -56.5 27.5 c 128,-1,17
 -71 55 -71 55 -55 94 c 1,18,-1
 760 1335 l 1,19,-1
 304 1335 l 2,20,21
 246 1335 246 1335 259 1389 c 2,22,-1
 277 1454 l 2,23,24
 283 1485 283 1485 310 1483 c 2,0,-1
EndSplineSet
EndChar

StartChar: bracketleft
Encoding: 91 91 60
Width: 518
Flags: W
HStem: -336 143<28 257.12> 1622 143<499 793.608>
DStem2: -136 -244 28 -193 0.25072 0.96806<90.4892 1965.61>
LayerCount: 2
Back
SplineSet
499 1622 m 1,0,-1
 28 -193 l 1,1,-1
 219 -193 l 2,2,3
 280 -193 280 -193 266 -258 c 2,4,-1
 262 -279 l 2,5,6
 257 -301 257 -301 235.5 -318.5 c 128,-1,7
 214 -336 214 -336 192 -336 c 2,8,-1
 -76 -336 l 2,9,10
 -160 -336 -160 -336 -136 -244 c 2,11,-1
 368 1702 l 2,12,13
 386 1765 386 1765 452 1765 c 2,14,-1
 755 1765 l 2,15,16
 817 1765 817 1765 802 1700 c 2,17,-1
 798 1679 l 2,18,19
 794 1657 794 1657 772.5 1639.5 c 128,-1,20
 751 1622 751 1622 729 1622 c 2,21,-1
 499 1622 l 1,0,-1
EndSplineSet
Fore
SplineSet
499 1622 m 1,0,-1
 28 -193 l 1,1,-1
 219 -193 l 2,2,3
 280 -193 280 -193 266 -258 c 2,4,-1
 262 -279 l 2,5,6
 257 -301 257 -301 235.5 -318.5 c 128,-1,7
 214 -336 214 -336 192 -336 c 2,8,-1
 -76 -336 l 2,9,10
 -160 -336 -160 -336 -136 -244 c 2,11,-1
 368 1702 l 2,12,13
 386 1765 386 1765 452 1765 c 2,14,-1
 755 1765 l 2,15,16
 817 1765 817 1765 802 1700 c 2,17,-1
 798 1679 l 2,18,19
 794 1657 794 1657 772.5 1639.5 c 128,-1,20
 751 1622 751 1622 729 1622 c 2,21,-1
 499 1622 l 1,0,-1
EndSplineSet
EndChar

StartChar: backslash
Encoding: 92 92 61
Width: 614
Flags: W
HStem: 0 21G<329.5 418.5> 1536 20G<199.5 299.5>
VStem: 177 276
DStem2: 328 1511 177 1493 0.0871329 -0.996197<-48.892 1502.38>
LayerCount: 2
Back
SplineSet
304 41 m 2,0,-1
 177 1493 l 2,1,2
 171 1556 171 1556 228 1556 c 2,3,-1
 275 1556 l 2,4,5
 324 1556 324 1556 328 1511 c 2,6,-1
 453 45 l 2,7,8
 455 25 455 25 442 12.5 c 128,-1,9
 429 0 429 0 408 0 c 2,10,-1
 351 0 l 2,11,12
 308 0 308 0 304 41 c 2,0,-1
EndSplineSet
Fore
SplineSet
304 41 m 2,0,-1
 177 1493 l 2,1,2
 171 1556 171 1556 228 1556 c 2,3,-1
 275 1556 l 2,4,5
 324 1556 324 1556 328 1511 c 2,6,-1
 453 45 l 2,7,8
 455 25 455 25 442 12.5 c 128,-1,9
 429 0 429 0 408 0 c 2,10,-1
 351 0 l 2,11,12
 308 0 308 0 304 41 c 2,0,-1
EndSplineSet
EndChar

StartChar: bracketright
Encoding: 93 93 62
Width: 593
Flags: W
HStem: -336 143<-264.02 31> 1620 145<266.634 494>
DStem2: 31 -193 165 -272 0.247572 0.968869<0 1871.19>
LayerCount: 2
Back
SplineSet
31 -193 m 1,0,-1
 494 1620 l 1,1,-1
 306 1620 l 2,2,3
 244 1620 244 1620 259 1686 c 2,4,-1
 263 1708 l 2,5,6
 267 1731 267 1731 288.5 1748 c 128,-1,7
 310 1765 310 1765 332 1765 c 2,8,-1
 603 1765 l 2,9,10
 687 1765 687 1765 662 1673 c 2,11,-1
 165 -272 l 2,12,13
 146 -336 146 -336 81 -336 c 2,14,-1
 -225 -336 l 2,15,16
 -286 -336 -286 -336 -272 -270 c 2,17,-1
 -268 -250 l 2,18,19
 -264 -227 -264 -227 -242.5 -210 c 128,-1,20
 -221 -193 -221 -193 -198 -193 c 2,21,-1
 31 -193 l 1,0,-1
EndSplineSet
Fore
SplineSet
31 -193 m 1,0,-1
 494 1620 l 1,1,-1
 306 1620 l 2,2,3
 244 1620 244 1620 259 1686 c 2,4,-1
 263 1708 l 2,5,6
 267 1731 267 1731 288.5 1748 c 128,-1,7
 310 1765 310 1765 332 1765 c 2,8,-1
 603 1765 l 2,9,10
 687 1765 687 1765 662 1673 c 2,11,-1
 165 -272 l 2,12,13
 146 -336 146 -336 81 -336 c 2,14,-1
 -225 -336 l 2,15,16
 -286 -336 -286 -336 -272 -270 c 2,17,-1
 -268 -250 l 2,18,19
 -264 -227 -264 -227 -242.5 -210 c 128,-1,20
 -221 -193 -221 -193 -198 -193 c 2,21,-1
 31 -193 l 1,0,-1
EndSplineSet
EndChar

StartChar: asciicircum
Encoding: 94 94 63
Width: 860
Flags: W
VStem: 635 156<498.732 697.103>
DStem2: 4 535 168 526 0.563786 0.825921<21.0979 841.4>
LayerCount: 2
Back
SplineSet
635 1303 m 2,0,-1
 658 1303 l 2,1,2
 686 1303 686 1303 707.5 1282.5 c 128,-1,3
 729 1262 729 1262 731 1223 c 2,4,-1
 791 532 l 2,5,6
 791 498 791 498 731 498 c 2,7,-1
 688 498 l 2,8,9
 635 498 635 498 635 535 c 2,10,-1
 596 1153 l 1,11,-1
 168 526 l 2,12,13
 152 498 152 498 125 498 c 2,14,-1
 31 498 l 2,15,16
 6 498 6 498 0 509 c 128,-1,17
 -6 520 -6 520 4 535 c 2,18,-1
 475 1212 l 2,19,20
 535 1303 535 1303 635 1303 c 2,0,-1
EndSplineSet
Fore
SplineSet
635 1303 m 2,0,-1
 658 1303 l 2,1,2
 686 1303 686 1303 707.5 1282.5 c 128,-1,3
 729 1262 729 1262 731 1223 c 2,4,-1
 791 532 l 2,5,6
 791 498 791 498 731 498 c 2,7,-1
 688 498 l 2,8,9
 635 498 635 498 635 535 c 2,10,-1
 596 1153 l 1,11,-1
 168 526 l 2,12,13
 152 498 152 498 125 498 c 2,14,-1
 31 498 l 2,15,16
 6 498 6 498 0 509 c 128,-1,17
 -6 520 -6 520 4 535 c 2,18,-1
 475 1212 l 2,19,20
 535 1303 535 1303 635 1303 c 2,0,-1
EndSplineSet
EndChar

StartChar: underscore
Encoding: 95 95 64
Width: 1087
Flags: W
HStem: -229 141<-103.135 854.32>
LayerCount: 2
Back
SplineSet
-71 -88 m 2,0,-1
 830 -88 l 2,1,2
 873 -88 873 -88 865 -135 c 2,3,-1
 854 -186 l 2,4,5
 846 -229 846 -229 801 -229 c 2,6,-1
 -79 -229 l 2,7,8
 -129 -229 -129 -229 -116 -182 c 2,9,-1
 -98 -111 l 2,10,11
 -92 -88 -92 -88 -71 -88 c 2,0,-1
EndSplineSet
Fore
SplineSet
-71 -88 m 2,0,-1
 830 -88 l 2,1,2
 873 -88 873 -88 865 -135 c 2,3,-1
 854 -186 l 2,4,5
 846 -229 846 -229 801 -229 c 2,6,-1
 -79 -229 l 2,7,8
 -129 -229 -129 -229 -116 -182 c 2,9,-1
 -98 -111 l 2,10,11
 -92 -88 -92 -88 -71 -88 c 2,0,-1
EndSplineSet
EndChar

StartChar: grave
Encoding: 96 96 65
Width: 493
Flags: W
HStem: 1167 263<295.703 317.438>
VStem: 118 310
LayerCount: 2
Back
SplineSet
248 1430 m 2,0,1
 289 1430 289 1430 312 1395 c 2,2,-1
 428 1206 l 2,3,4
 439 1190 439 1190 429.5 1178.5 c 128,-1,5
 420 1167 420 1167 402 1167 c 2,6,-1
 369 1167 l 2,7,8
 338 1167 338 1167 310 1196 c 2,9,-1
 127 1386 l 1,10,11
 113 1407 113 1407 118 1418.5 c 128,-1,12
 123 1430 123 1430 140 1430 c 2,13,-1
 248 1430 l 2,0,1
EndSplineSet
Fore
SplineSet
248 1430 m 2,0,1
 289 1430 289 1430 312 1395 c 2,2,-1
 428 1206 l 2,3,4
 439 1190 439 1190 429.5 1178.5 c 128,-1,5
 420 1167 420 1167 402 1167 c 2,6,-1
 369 1167 l 2,7,8
 338 1167 338 1167 310 1196 c 2,9,-1
 127 1386 l 1,10,11
 113 1407 113 1407 118 1418.5 c 128,-1,12
 123 1430 123 1430 140 1430 c 2,13,-1
 248 1430 l 2,0,1
EndSplineSet
EndChar

StartChar: a
Encoding: 97 97 66
Width: 770
Flags: MW
HStem: -6 43G<166 190> 888 148<389 467> 1008 41G<644 729>
VStem: 11 142<162 227>
DStem2: 433 470 500 156 0.287348 0.957826<-218.886 435.48>
LayerCount: 2
Back
SplineSet
597 999 m 1,0,1
 605 1047 605 1047 644 1047 c 2,2,-1
 691 1049 l 2,3,4
 766 1047 766 1047 746 975 c 2,5,-1
 500 156 l 1,6,7
 564 203 564 203 627 291 c 0,8,9
 650 324 650 324 678 305 c 2,10,-1
 728 272 l 2,11,12
 760 250 760 250 738 221 c 0,13,14
 654 123 654 123 583.5 68.5 c 128,-1,15
 513 14 513 14 416 -8 c 0,16,17
 388 -12 388 -12 379 14 c 2,18,-1
 341 127 l 1,19,20
 283 51 283 51 242 22.5 c 128,-1,21
 201 -6 201 -6 179 -6 c 2,22,-1
 175 -6 l 2,23,24
 158 -6 158 -6 124.5 17.5 c 128,-1,25
 91 41 91 41 58 79 c 128,-1,26
 25 117 25 117 10.5 162 c 128,-1,27
 -4 207 -4 207 12.5 325.5 c 128,-1,28
 29 444 29 444 106 657 c 128,-1,29
 183 870 183 870 264 954 c 128,-1,30
 345 1038 345 1038 467 1036 c 0,31,32
 535 1036 535 1036 597 999 c 1,0,1
566 885 m 1,33,34
 457 946 457 946 388.5 887.5 c 128,-1,35
 320 829 320 829 254.5 649 c 128,-1,36
 189 469 189 469 169.5 366.5 c 128,-1,37
 150 264 150 264 153 227 c 128,-1,38
 156 190 156 190 189 173 c 128,-1,39
 222 156 222 156 298.5 240 c 128,-1,40
 375 324 375 324 432.5 470 c 128,-1,41
 490 616 490 616 566 885 c 1,33,34
EndSplineSet
Fore
SplineSet
597 999 m 1,0,1
 605 1047 605 1047 644 1047 c 2,2,-1
 691 1049 l 2,3,4
 766 1047 766 1047 746 975 c 2,5,-1
 500 156 l 1,6,7
 564 203 564 203 627 291 c 0,8,9
 650 324 650 324 678 305 c 2,10,-1
 728 272 l 2,11,12
 760 250 760 250 738 221 c 0,13,14
 654 123 654 123 583.5 68.5 c 128,-1,15
 513 14 513 14 416 -8 c 0,16,17
 388 -12 388 -12 379 14 c 2,18,-1
 341 127 l 1,19,20
 283 51 283 51 242 22.5 c 128,-1,21
 201 -6 201 -6 179 -6 c 2,22,-1
 175 -6 l 2,23,24
 158 -6 158 -6 124.5 17.5 c 128,-1,25
 91 41 91 41 58 79 c 128,-1,26
 25 117 25 117 10.5 162 c 128,-1,27
 -4 207 -4 207 12.5 325.5 c 128,-1,28
 29 444 29 444 106 657 c 128,-1,29
 183 870 183 870 264 954 c 128,-1,30
 345 1038 345 1038 467 1036 c 0,31,32
 535 1036 535 1036 597 999 c 1,0,1
566 885 m 1,33,34
 457 946 457 946 388.5 887.5 c 128,-1,35
 320 829 320 829 254.5 649 c 128,-1,36
 189 469 189 469 169.5 366.5 c 128,-1,37
 150 264 150 264 153 227 c 128,-1,38
 156 190 156 190 189 173 c 128,-1,39
 222 156 222 156 298.5 240 c 128,-1,40
 375 324 375 324 432.5 470 c 128,-1,41
 490 616 490 616 566 885 c 1,33,34
EndSplineSet
EndChar

StartChar: b
Encoding: 98 98 67
Width: 759
Flags: MW
HStem: -8 119.355<167.231 357.561> 855 179<541 553> 1513 41G<395 495>
VStem: 578 144<801 857>
DStem2: 358 1509 334 809 0.251248 0.967923<-1530.76 -1487.83 -684.124 57.8142>
LayerCount: 2
Back
SplineSet
498 1444 m 29,0,0
 104.5 -78 l 13,0,0
166 143 m 1,0,1
 264 84 264 84 335.5 135 c 128,-1,2
 407 186 407 186 474.5 370.5 c 128,-1,3
 542 555 542 555 561.5 659.5 c 128,-1,4
 581 764 581 764 578 801 c 128,-1,5
 575 838 575 838 541.5 855 c 128,-1,6
 508 872 508 872 430 784 c 128,-1,7
 352 696 352 696 295.5 551 c 128,-1,8
 239 406 239 406 172 162 c 2,9,-1
 166 143 l 1,0,1
264 -8 m 0,10,11
 196 -8 196 -8 133 31 c 1,12,13
 116 0 116 0 78 0 c 2,14,-1
 43 0 l 2,15,16
 -29 0 -29 0 -17 66 c 2,17,-1
 358 1509 l 2,18,19
 370 1554 370 1554 420 1554 c 2,20,-1
 467 1554 l 2,21,22
 524 1554 524 1554 512 1507 c 2,23,-1
 334 809 l 1,24,-1
 364 860 l 2,25,26
 407 932 407 932 462.5 983 c 128,-1,27
 518 1034 518 1034 553 1034 c 2,28,-1
 557 1034 l 2,29,30
 573 1034 573 1034 608 1010.5 c 128,-1,31
 643 987 643 987 676.5 945 c 128,-1,32
 710 903 710 903 722.5 857 c 128,-1,33
 735 811 735 811 716.5 689 c 128,-1,34
 698 567 698 567 620 354 c 128,-1,35
 542 141 542 141 462.5 66.5 c 128,-1,36
 383 -8 383 -8 264 -8 c 0,10,11
EndSplineSet
Fore
SplineSet
157 143 m 1,0,1
 209.563478234 111.354492188 209.563478234 111.354492188 263.503595041 111.354545455 c 0,2,3
 302.35 111.354545455 302.35 111.354545455 335.5 135 c 0,4,5
 407 186 407 186 474.5 370.5 c 0,6,7
 535.543842974 537.353170796 535.543842974 537.353170796 561.5 659.5 c 0,8,9
 579.878278742 745.986164819 579.878278742 745.986164819 576.75 802.5 c 0,10,11
 572.979767979 857.213466428 572.979767979 857.213466428 528 857 c 0,12,13
 481.37804463 855.744140625 481.37804463 855.744140625 427 781 c 0,14,15
 337.18398557 660.604386023 337.18398557 660.604386023 288 532 c 0,16,17
 224.057562754 364.805784495 224.057562754 364.805784495 170 186 c 2,18,-1
 157 143 l 1,0,1
264 -8 m 0,19,20
 196 -8 196 -8 133 31 c 1,21,22
 116 0 116 0 78 0 c 2,23,-1
 43 0 l 2,24,25
 -29 0 -29 0 -17 66 c 2,26,-1
 358 1509 l 2,27,28
 370 1554 370 1554 420 1554 c 2,29,-1
 467 1554 l 2,30,31
 524 1554 524 1554 512 1507 c 2,32,-1
 334 809 l 1,33,-1
 364 860 l 2,34,35
 407 932 407 932 462.5 983 c 128,-1,36
 518 1034 518 1034 553 1034 c 2,37,-1
 557 1034 l 2,38,39
 573 1034 573 1034 608 1010.5 c 128,-1,40
 643 987 643 987 676.5 945 c 128,-1,41
 710 903 710 903 722.5 857 c 128,-1,42
 735 811 735 811 716.5 689 c 128,-1,43
 698 567 698 567 620 354 c 128,-1,44
 542 141 542 141 462.5 66.5 c 128,-1,45
 383 -8 383 -8 264 -8 c 0,19,20
EndSplineSet
EndChar

StartChar: c
Encoding: 99 99 68
Width: 604
Flags: MW
HStem: -15 148<201 209> 903 143<402 440>
VStem: -16 127<98 195>
LayerCount: 2
Back
SplineSet
629 926 m 0,0,1
 662 891 662 891 637 862 c 2,2,-1
 603 823 l 2,3,4
 568 784 568 784 541 813 c 2,5,-1
 519 838 l 2,6,7
 445 913 445 913 402 903 c 0,8,9
 328 889 328 889 246 745.5 c 128,-1,10
 164 602 164 602 128.5 449.5 c 128,-1,11
 93 297 93 297 111 195 c 0,12,13
 115 170 115 170 149 149.5 c 128,-1,14
 183 129 183 129 201 133 c 1,15,16
 263 166 263 166 338 256 c 0,17,18
 361 287 361 287 404 260 c 2,19,-1
 435 240 l 2,20,21
 500 201 500 201 324 59 c 0,22,23
 250 -4 250 -4 209 -15.5 c 128,-1,24
 168 -27 168 -27 85.5 15 c 128,-1,25
 3 57 3 57 -16 98 c 0,26,27
 -73 223 -73 223 -18 453.5 c 128,-1,28
 37 684 37 684 117 806 c 128,-1,29
 197 928 197 928 274 991.5 c 128,-1,30
 351 1055 351 1055 440 1046.5 c 128,-1,31
 529 1038 529 1038 629 926 c 0,0,1
EndSplineSet
Fore
SplineSet
629 926 m 0,0,1
 662 891 662 891 637 862 c 2,2,-1
 603 823 l 2,3,4
 568 784 568 784 541 813 c 2,5,-1
 519 838 l 2,6,7
 445 913 445 913 402 903 c 0,8,9
 328 889 328 889 246 745.5 c 128,-1,10
 164 602 164 602 128.5 449.5 c 128,-1,11
 93 297 93 297 111 195 c 0,12,13
 115 170 115 170 149 149.5 c 128,-1,14
 183 129 183 129 201 133 c 1,15,16
 263 166 263 166 338 256 c 0,17,18
 361 287 361 287 404 260 c 2,19,-1
 435 240 l 2,20,21
 500 201 500 201 324 59 c 0,22,23
 250 -4 250 -4 209 -15.5 c 128,-1,24
 168 -27 168 -27 85.5 15 c 128,-1,25
 3 57 3 57 -16 98 c 0,26,27
 -73 223 -73 223 -18 453.5 c 128,-1,28
 37 684 37 684 117 806 c 128,-1,29
 197 928 197 928 274 991.5 c 128,-1,30
 351 1055 351 1055 440 1046.5 c 128,-1,31
 529 1038 529 1038 629 926 c 0,0,1
EndSplineSet
EndChar

StartChar: d
Encoding: 100 100 69
Width: 794
Flags: MW
HStem: -6 186<184 238> 893 143<400 473> 1513 41G<776 884>
VStem: 10 160<201 207>
DStem2: 571 885 510 156 0.276644 0.960973<-478.804 0 118.711 709.456>
LayerCount: 2
Back
SplineSet
571 885 m 1,0,1
 469 942 469 942 400.5 893 c 128,-1,2
 332 844 332 844 269.5 675 c 128,-1,3
 207 506 207 506 178.5 378 c 128,-1,4
 150 250 150 250 170.5 201 c 128,-1,5
 191 152 191 152 238 180 c 0,6,7
 334 242 334 242 410.5 408.5 c 128,-1,8
 487 575 487 575 571 885 c 1,0,1
899 1507 m 2,9,-1
 510 156 l 1,10,11
 569 203 569 203 633 291 c 0,12,13
 655 324 655 324 684 305 c 2,14,-1
 733 272 l 2,15,16
 766 250 766 250 743 221 c 0,17,18
 659 123 659 123 588.5 68.5 c 128,-1,19
 518 14 518 14 422 -8 c 0,20,21
 393 -14 393 -14 385 14 c 2,22,-1
 346 127 l 1,23,24
 305 70 305 70 259 32 c 128,-1,25
 213 -6 213 -6 184 -6 c 2,26,-1
 180 -6 l 2,27,28
 141 -6 141 -6 76.5 61.5 c 128,-1,29
 12 129 12 129 10 207 c 0,30,31
 8 367 8 367 100.5 623 c 128,-1,32
 193 879 193 879 273.5 958.5 c 128,-1,33
 354 1038 354 1038 473 1036 c 0,34,35
 541 1036 541 1036 602 999 c 1,36,-1
 739 1509 l 2,37,38
 752 1554 752 1554 801 1554 c 2,39,-1
 854 1554 l 2,40,41
 913 1554 913 1554 899 1507 c 2,9,-1
EndSplineSet
Fore
SplineSet
571 885 m 1,0,1
 469 942 469 942 400.5 893 c 128,-1,2
 332 844 332 844 269.5 675 c 128,-1,3
 207 506 207 506 178.5 378 c 128,-1,4
 150 250 150 250 170.5 201 c 128,-1,5
 191 152 191 152 238 180 c 0,6,7
 334 242 334 242 410.5 408.5 c 128,-1,8
 487 575 487 575 571 885 c 1,0,1
899 1507 m 2,9,-1
 510 156 l 1,10,11
 569 203 569 203 633 291 c 0,12,13
 655 324 655 324 684 305 c 2,14,-1
 733 272 l 2,15,16
 766 250 766 250 743 221 c 0,17,18
 659 123 659 123 588.5 68.5 c 128,-1,19
 518 14 518 14 422 -8 c 0,20,21
 393 -14 393 -14 385 14 c 2,22,-1
 346 127 l 1,23,24
 305 70 305 70 259 32 c 128,-1,25
 213 -6 213 -6 184 -6 c 2,26,-1
 180 -6 l 2,27,28
 141 -6 141 -6 76.5 61.5 c 128,-1,29
 12 129 12 129 10 207 c 0,30,31
 8 367 8 367 100.5 623 c 128,-1,32
 193 879 193 879 273.5 958.5 c 128,-1,33
 354 1038 354 1038 473 1036 c 0,34,35
 541 1036 541 1036 602 999 c 1,36,-1
 739 1509 l 2,37,38
 752 1554 752 1554 801 1554 c 2,39,-1
 854 1554 l 2,40,41
 913 1554 913 1554 899 1507 c 2,9,-1
EndSplineSet
EndChar

StartChar: e
Encoding: 101 101 70
Width: 638
Flags: MW
HStem: -23 139<133 256> 283 133<128 153> 891 144.304<334.804 470.389>
VStem: -15 143<129 283> 475 148<649 888>
LayerCount: 2
Back
SplineSet
128 283 m 1,0,1
 100 133 100 133 184 117 c 1,2,3
 259 145 259 145 370 270 c 0,4,5
 389 287 389 287 411 274 c 2,6,-1
 450 250 l 2,7,8
 477 229 477 229 468 205 c 1,9,10
 429 131 429 131 324 48 c 128,-1,11
 219 -35 219 -35 155 -23 c 0,12,13
 10 14 10 14 -15 129 c 0,14,15
 -44 283 -44 283 36 552 c 128,-1,16
 116 821 116 821 259 958 c 0,17,18
 309 1004 309 1004 383.5 1026.5 c 128,-1,19
 458 1049 458 1049 541 1014 c 128,-1,20
 624 979 624 979 623 814 c 128,-1,21
 622 649 622 649 478.5 502.5 c 128,-1,22
 335 356 335 356 128 283 c 1,0,1
153 416 m 1,23,24
 249 457 249 457 317.5 512 c 128,-1,25
 386 567 386 567 430.5 646 c 128,-1,26
 475 725 475 725 475 808 c 128,-1,27
 475 891 475 891 427 891 c 0,28,29
 333 891 333 891 262.5 737.5 c 128,-1,30
 192 584 192 584 153 416 c 1,23,24
EndSplineSet
Fore
SplineSet
128 283 m 1,0,1
 100 133 100 133 184 117 c 1,2,3
 259 145 259 145 370 270 c 0,4,5
 389 287 389 287 411 274 c 2,6,-1
 450 250 l 2,7,8
 477 229 477 229 468 205 c 1,9,10
 429 131 429 131 324 48 c 128,-1,11
 219 -35 219 -35 155 -23 c 0,12,13
 10 14 10 14 -15 129 c 0,14,15
 -44 283 -44 283 36 552 c 128,-1,16
 116 821 116 821 259 958 c 1,17,18
 353.148132324 1035.30434783 353.148132324 1035.30434783 443.105860113 1035.30434783 c 0,19,20
 487.791099944 1036.43748798 487.791099944 1036.43748798 541 1014 c 0,21,22
 624 979 624 979 623 814 c 128,-1,23
 622 649 622 649 478.5 502.5 c 128,-1,24
 335 356 335 356 128 283 c 1,0,1
153 416 m 1,25,26
 249 457 249 457 317.5 512 c 128,-1,27
 386 567 386 567 430.5 646 c 128,-1,28
 475 725 475 725 475 808 c 128,-1,29
 475 891 475 891 427 891 c 0,30,31
 333 891 333 891 262.5 737.5 c 128,-1,32
 192 584 192 584 153 416 c 1,25,26
EndSplineSet
EndChar

StartChar: f
Encoding: 102 102 71
Width: 587
Flags: MW
HStem: 0 43G<95 184> 897 143<158 286 482 646> 1442 123<671 742>
DStem2: 62 47 220 45 0.254941 0.966957<-19.9388 878.747 1067.49 1427.97>
LayerCount: 2
Back
SplineSet
161 0 m 2,0,-1
 108 0 l 2,1,2
 83 0 83 0 70.5 13.5 c 128,-1,3
 58 27 58 27 62 47 c 2,4,-1
 286 897 l 1,5,-1
 171 897 l 2,6,7
 130 897 130 897 144 946 c 2,8,-1
 159 1001 l 2,9,10
 167 1040 167 1040 204 1040 c 2,11,-1
 325 1040 l 1,12,-1
 349 1135 l 2,13,14
 402 1335 402 1335 483 1435.5 c 128,-1,15
 564 1536 564 1536 634 1556 c 0,16,17
 697 1575 697 1575 742 1565 c 2,18,-1
 867 1532 l 2,19,20
 933 1516 933 1516 900 1456 c 2,21,-1
 873 1407 l 2,22,23
 859 1378 859 1378 802 1397 c 2,24,-1
 671 1442 l 1,25,26
 566 1356 566 1356 507 1135 c 2,27,-1
 482 1040 l 1,28,-1
 630 1040 l 2,29,30
 673 1040 673 1040 660 995 c 2,31,-1
 646 942 l 2,32,33
 632 897 632 897 591 897 c 2,34,-1
 443 897 l 1,35,-1
 220 45 l 2,36,37
 208 0 208 0 161 0 c 2,0,-1
EndSplineSet
Fore
SplineSet
161 0 m 2,0,-1
 108 0 l 2,1,2
 83 0 83 0 70.5 13.5 c 128,-1,3
 58 27 58 27 62 47 c 2,4,-1
 286 897 l 1,5,-1
 171 897 l 2,6,7
 130 897 130 897 144 946 c 2,8,-1
 159 1001 l 2,9,10
 167 1040 167 1040 204 1040 c 2,11,-1
 325 1040 l 1,12,-1
 349 1135 l 2,13,14
 402 1335 402 1335 483 1435.5 c 128,-1,15
 564 1536 564 1536 634 1556 c 0,16,17
 697 1575 697 1575 742 1565 c 2,18,-1
 867 1532 l 2,19,20
 933 1516 933 1516 900 1456 c 2,21,-1
 873 1407 l 2,22,23
 859 1378 859 1378 802 1397 c 2,24,-1
 671 1442 l 1,25,26
 566 1356 566 1356 507 1135 c 2,27,-1
 482 1040 l 1,28,-1
 630 1040 l 2,29,30
 673 1040 673 1040 660 995 c 2,31,-1
 646 942 l 2,32,33
 632 897 632 897 591 897 c 2,34,-1
 443 897 l 1,35,-1
 220 45 l 2,36,37
 208 0 208 0 161 0 c 2,0,-1
EndSplineSet
EndChar

StartChar: g
Encoding: 103 103 72
Width: 739
Flags: MW
HStem: -6 43G<140 170> 893 143<368 441>
VStem: -17 143<166 227>
DStem2: 245 -186 425 -102 0.29806 0.954547<-70.7938 356.239>
LayerCount: 2
Back
SplineSet
441 1036 m 0,0,1
 509 1036 509 1036 572 997 c 1,2,3
 584 1038 584 1038 615 1038 c 2,4,-1
 685 1040 l 2,5,6
 736 1042 736 1042 726 987 c 0,7,8
 679 799 679 799 425 -102 c 0,9,10
 372 -293 372 -293 263 -352 c 0,11,12
 206 -387 206 -387 174 -389 c 128,-1,13
 142 -391 142 -391 77 -354 c 2,14,-1
 -132 -236 l 2,15,16
 -181 -211 -181 -211 -149 -162 c 2,17,-1
 -118 -119 l 2,18,19
 -85 -82 -85 -82 -50 -102 c 2,20,-1
 177 -242 l 2,21,22
 224 -262 224 -262 245 -186 c 2,23,-1
 343 172 l 1,24,25
 298 96 298 96 242.5 45 c 128,-1,26
 187 -6 187 -6 152 -6 c 2,27,-1
 148 -6 l 2,28,29
 132 -6 132 -6 97 17.5 c 128,-1,30
 62 41 62 41 29.5 81 c 128,-1,31
 -3 121 -3 121 -16.5 166 c 128,-1,32
 -30 211 -30 211 -11.5 334 c 128,-1,33
 7 457 7 457 81.5 664.5 c 128,-1,34
 156 872 156 872 237 954 c 128,-1,35
 318 1036 318 1036 441 1036 c 0,0,1
539 885 m 1,36,37
 437 942 437 942 368.5 893 c 128,-1,38
 300 844 300 844 231.5 658.5 c 128,-1,39
 163 473 163 473 143.5 368.5 c 128,-1,40
 124 264 124 264 127 227 c 128,-1,41
 130 190 130 190 163.5 173 c 128,-1,42
 197 156 197 156 276 246 c 128,-1,43
 355 336 355 336 410.5 479.5 c 128,-1,44
 466 623 466 623 533 866 c 2,45,-1
 539 885 l 1,36,37
EndSplineSet
Fore
SplineSet
441 1036 m 0,0,1
 509 1036 509 1036 572 997 c 1,2,3
 584 1038 584 1038 615 1038 c 2,4,-1
 685 1040 l 2,5,6
 736 1042 736 1042 726 987 c 0,7,8
 679 799 679 799 425 -102 c 0,9,10
 372 -293 372 -293 263 -352 c 0,11,12
 206 -387 206 -387 174 -389 c 128,-1,13
 142 -391 142 -391 77 -354 c 2,14,-1
 -132 -236 l 2,15,16
 -181 -211 -181 -211 -149 -162 c 2,17,-1
 -118 -119 l 2,18,19
 -85 -82 -85 -82 -50 -102 c 2,20,-1
 177 -242 l 2,21,22
 224 -262 224 -262 245 -186 c 2,23,-1
 343 172 l 1,24,25
 298 96 298 96 242.5 45 c 128,-1,26
 187 -6 187 -6 152 -6 c 2,27,-1
 148 -6 l 2,28,29
 132 -6 132 -6 97 17.5 c 128,-1,30
 62 41 62 41 29.5 81 c 128,-1,31
 -3 121 -3 121 -16.5 166 c 128,-1,32
 -30 211 -30 211 -11.5 334 c 128,-1,33
 7 457 7 457 81.5 664.5 c 128,-1,34
 156 872 156 872 237 954 c 128,-1,35
 318 1036 318 1036 441 1036 c 0,0,1
539 885 m 1,36,37
 437 942 437 942 368.5 893 c 128,-1,38
 300 844 300 844 231.5 658.5 c 128,-1,39
 163 473 163 473 143.5 368.5 c 128,-1,40
 124 264 124 264 127 227 c 128,-1,41
 130 190 130 190 163.5 173 c 128,-1,42
 197 156 197 156 276 246 c 128,-1,43
 355 336 355 336 410.5 479.5 c 128,-1,44
 466 623 466 623 533 866 c 2,45,-1
 539 885 l 1,36,37
EndSplineSet
EndChar

StartChar: h
Encoding: 104 104 73
Width: 864
Flags: W
HStem: 0 21G<6 86.5 444.5 579.5> 1020 20G<690 775> 1534 20G<404.5 504.5>
DStem2: -9 53 242 465 0.250039 0.968236<-29.6813 202.351 461.673 1561.61> 242 465 385 456.5 0.514137 0.857708<0 537.787> 443 49 599 29 0.264485 0.96439<-19.4633 808.179>
LayerCount: 2
Back
SplineSet
70 0 m 2,0,-1
 13 0 l 2,1,2
 -1 0 -1 0 -8.5 16.5 c 128,-1,3
 -16 33 -16 33 -9 53 c 2,4,-1
 367 1509 l 2,5,6
 380 1554 380 1554 429 1554 c 2,7,-1
 476 1554 l 2,8,9
 533 1554 533 1554 521 1507 c 2,10,-1
 318 711 l 1,11,-1
 242 465 l 1,12,-1
 453 817 l 2,13,14
 521 928 521 928 592.5 984 c 128,-1,15
 664 1040 664 1040 716 1040 c 2,16,-1
 759 1040 l 2,17,18
 791 1040 791 1040 809.5 1029 c 128,-1,19
 828 1018 828 1018 839.5 979 c 128,-1,20
 851 940 851 940 828 864 c 2,21,-1
 599 29 l 2,22,23
 593 0 593 0 566 0 c 2,24,-1
 460 0 l 2,25,26
 429 0 429 0 443 49 c 2,27,-1
 658 752 l 2,28,29
 673 807 673 807 673 824.5 c 128,-1,30
 673 842 673 842 659.5 842 c 128,-1,31
 646 842 646 842 626.5 823.5 c 128,-1,32
 607 805 607 805 574 756 c 0,33,34
 535 700 535 700 481 611 c 128,-1,35
 427 522 427 522 385 456.5 c 128,-1,36
 343 391 343 391 264 270.5 c 128,-1,37
 185 150 185 150 120 29 c 0,38,39
 103 0 103 0 70 0 c 2,0,-1
EndSplineSet
Fore
SplineSet
70 0 m 2,0,-1
 13 0 l 2,1,2
 -1 0 -1 0 -8.5 16.5 c 128,-1,3
 -16 33 -16 33 -9 53 c 2,4,-1
 367 1509 l 2,5,6
 380 1554 380 1554 429 1554 c 2,7,-1
 476 1554 l 2,8,9
 533 1554 533 1554 521 1507 c 2,10,-1
 318 711 l 1,11,-1
 242 465 l 1,12,-1
 453 817 l 2,13,14
 521 928 521 928 592.5 984 c 128,-1,15
 664 1040 664 1040 716 1040 c 2,16,-1
 759 1040 l 2,17,18
 791 1040 791 1040 809.5 1029 c 128,-1,19
 828 1018 828 1018 839.5 979 c 128,-1,20
 851 940 851 940 828 864 c 2,21,-1
 599 29 l 2,22,23
 593 0 593 0 566 0 c 2,24,-1
 460 0 l 2,25,26
 429 0 429 0 443 49 c 2,27,-1
 658 752 l 2,28,29
 673 807 673 807 673 824.5 c 128,-1,30
 673 842 673 842 659.5 842 c 128,-1,31
 646 842 646 842 626.5 823.5 c 128,-1,32
 607 805 607 805 574 756 c 0,33,34
 535 700 535 700 481 611 c 128,-1,35
 427 522 427 522 385 456.5 c 128,-1,36
 343 391 343 391 264 270.5 c 128,-1,37
 185 150 185 150 120 29 c 0,38,39
 103 0 103 0 70 0 c 2,0,-1
EndSplineSet
EndChar

StartChar: i
Encoding: 105 105 74
Width: 391
Flags: W
HStem: 0 21G<-20.5 92.5> 1020 20G<246.5 351.5> 1153 199<269.394 420.059>
VStem: 240 211<1182.39 1321.06>
DStem2: -37 47 129 45 0.252091 0.967704<-18.2071 1037.25>
LayerCount: 2
Back
SplineSet
340 1352 m 2,0,-1
 359 1352 l 2,1,2
 393 1352 393 1352 422 1321 c 128,-1,3
 451 1290 451 1290 451 1250 c 128,-1,4
 451 1210 451 1210 421 1181.5 c 128,-1,5
 391 1153 391 1153 346 1153 c 2,6,-1
 330 1153 l 2,7,8
 295 1153 295 1153 267.5 1182.5 c 128,-1,9
 240 1212 240 1212 240 1252 c 128,-1,10
 240 1292 240 1292 268.5 1322 c 128,-1,11
 297 1352 297 1352 340 1352 c 2,0,-1
377 997 m 2,12,-1
 129 45 l 2,13,14
 117 0 117 0 68 0 c 2,15,-1
 8 0 l 2,16,17
 -49 0 -49 0 -37 47 c 2,18,-1
 213 999 l 2,19,20
 223 1040 223 1040 270 1040 c 2,21,-1
 338 1040 l 2,22,23
 365 1040 365 1040 374 1031 c 128,-1,24
 383 1022 383 1022 377 997 c 2,12,-1
EndSplineSet
Fore
SplineSet
340 1352 m 2,0,-1
 359 1352 l 2,1,2
 393 1352 393 1352 422 1321 c 128,-1,3
 451 1290 451 1290 451 1250 c 128,-1,4
 451 1210 451 1210 421 1181.5 c 128,-1,5
 391 1153 391 1153 346 1153 c 2,6,-1
 330 1153 l 2,7,8
 295 1153 295 1153 267.5 1182.5 c 128,-1,9
 240 1212 240 1212 240 1252 c 128,-1,10
 240 1292 240 1292 268.5 1322 c 128,-1,11
 297 1352 297 1352 340 1352 c 2,0,-1
377 997 m 2,12,-1
 129 45 l 2,13,14
 117 0 117 0 68 0 c 2,15,-1
 8 0 l 2,16,17
 -49 0 -49 0 -37 47 c 2,18,-1
 213 999 l 2,19,20
 223 1040 223 1040 270 1040 c 2,21,-1
 338 1040 l 2,22,23
 365 1040 365 1040 374 1031 c 128,-1,24
 383 1022 383 1022 377 997 c 2,12,-1
EndSplineSet
EndChar

StartChar: j
Encoding: 106 106 75
Width: 411
Flags: W
HStem: 1020 20G<277.5 388> 1153 199<296.394 447.574>
VStem: 267 211<1182.39 1321.06>
DStem2: 3 84 152 45 0.253993 0.967206<-212.075 984.402>
LayerCount: 2
Back
SplineSet
300 1040 m 2,0,-1
 363 1040 l 2,1,2
 413 1040 413 1040 402 997 c 2,3,-1
 152 45 l 2,4,5
 103 -137 103 -137 -13.5 -240.5 c 128,-1,6
 -130 -344 -130 -344 -237 -375 c 0,7,8
 -280 -387 -280 -387 -300 -358 c 2,9,-1
 -317 -334 l 2,10,11
 -331 -317 -331 -317 -327 -295.5 c 128,-1,12
 -323 -274 -323 -274 -300 -266 c 0,13,14
 -210 -231 -210 -231 -122 -142 c 128,-1,15
 -34 -53 -34 -53 3 84 c 2,16,-1
 245 999 l 2,17,18
 255 1040 255 1040 300 1040 c 2,0,-1
368 1352 m 2,19,-1
 386 1352 l 2,20,21
 421 1352 421 1352 449.5 1321 c 128,-1,22
 478 1290 478 1290 478 1250 c 128,-1,23
 478 1210 478 1210 448.5 1181.5 c 128,-1,24
 419 1153 419 1153 374 1153 c 2,25,-1
 357 1153 l 2,26,27
 322 1153 322 1153 294.5 1182.5 c 128,-1,28
 267 1212 267 1212 267 1252 c 128,-1,29
 267 1292 267 1292 295.5 1322 c 128,-1,30
 324 1352 324 1352 368 1352 c 2,19,-1
EndSplineSet
Fore
SplineSet
300 1040 m 2,0,-1
 363 1040 l 2,1,2
 413 1040 413 1040 402 997 c 2,3,-1
 152 45 l 2,4,5
 103 -137 103 -137 -13.5 -240.5 c 128,-1,6
 -130 -344 -130 -344 -237 -375 c 0,7,8
 -280 -387 -280 -387 -300 -358 c 2,9,-1
 -317 -334 l 2,10,11
 -331 -317 -331 -317 -327 -295.5 c 128,-1,12
 -323 -274 -323 -274 -300 -266 c 0,13,14
 -210 -231 -210 -231 -122 -142 c 128,-1,15
 -34 -53 -34 -53 3 84 c 2,16,-1
 245 999 l 2,17,18
 255 1040 255 1040 300 1040 c 2,0,-1
368 1352 m 2,19,-1
 386 1352 l 2,20,21
 421 1352 421 1352 449.5 1321 c 128,-1,22
 478 1290 478 1290 478 1250 c 128,-1,23
 478 1210 478 1210 448.5 1181.5 c 128,-1,24
 419 1153 419 1153 374 1153 c 2,25,-1
 357 1153 l 2,26,27
 322 1153 322 1153 294.5 1182.5 c 128,-1,28
 267 1212 267 1212 267 1252 c 128,-1,29
 267 1292 267 1292 295.5 1322 c 128,-1,30
 324 1352 324 1352 368 1352 c 2,19,-1
EndSplineSet
EndChar

StartChar: k
Encoding: 107 107 76
Width: 745
Flags: W
HStem: 0 21G<-8 89 421.5 523> 1020 20G<620.5 732> 1534 20G<381.5 482>
DStem2: -30 66 126 45 0.247211 0.968962<-38.7387 489.956 620.925 1546.33> 376 555 243 502 0.303046 -0.952976<10.2026 550.146> 275 629 376 555 0.623223 0.782044<5.07424 560.738>
LayerCount: 2
Back
SplineSet
499 1507 m 2,0,-1
 275 629 l 1,1,-1
 585 1018 l 2,2,3
 601 1040 601 1040 640 1040 c 2,4,-1
 716 1040 l 2,5,6
 748 1040 748 1040 750 1017.5 c 128,-1,7
 752 995 752 995 728 969 c 2,8,-1
 376 555 l 1,9,-1
 535 55 l 2,10,11
 554 0 554 0 492 0 c 2,12,-1
 437 0 l 2,13,14
 406 0 406 0 395 8 c 128,-1,15
 384 16 384 16 376 45 c 2,16,-1
 243 502 l 1,17,-1
 126 45 l 2,18,19
 114 0 114 0 64 0 c 2,20,-1
 30 0 l 2,21,22
 -46 0 -46 0 -30 66 c 2,23,-1
 345 1509 l 2,24,25
 357 1554 357 1554 406 1554 c 2,26,-1
 453 1554 l 2,27,28
 511 1554 511 1554 499 1507 c 2,0,-1
EndSplineSet
Fore
SplineSet
499 1507 m 2,0,-1
 275 629 l 1,1,-1
 585 1018 l 2,2,3
 601 1040 601 1040 640 1040 c 2,4,-1
 716 1040 l 2,5,6
 748 1040 748 1040 750 1017.5 c 128,-1,7
 752 995 752 995 728 969 c 2,8,-1
 376 555 l 1,9,-1
 535 55 l 2,10,11
 554 0 554 0 492 0 c 2,12,-1
 437 0 l 2,13,14
 406 0 406 0 395 8 c 128,-1,15
 384 16 384 16 376 45 c 2,16,-1
 243 502 l 1,17,-1
 126 45 l 2,18,19
 114 0 114 0 64 0 c 2,20,-1
 30 0 l 2,21,22
 -46 0 -46 0 -30 66 c 2,23,-1
 345 1509 l 2,24,25
 357 1554 357 1554 406 1554 c 2,26,-1
 453 1554 l 2,27,28
 511 1554 511 1554 499 1507 c 2,0,-1
EndSplineSet
EndChar

StartChar: l
Encoding: 108 108 77
Width: 378
Flags: W
HStem: 0 21G<-8 89> 1534 20G<381.5 482>
VStem: -30 529
DStem2: -30 66 126 45 0.247211 0.968962<-38.7387 1546.33>
LayerCount: 2
Back
SplineSet
499 1507 m 2,0,-1
 126 45 l 2,1,2
 114 0 114 0 64 0 c 2,3,-1
 30 0 l 2,4,5
 -46 0 -46 0 -30 66 c 2,6,-1
 345 1509 l 2,7,8
 357 1554 357 1554 406 1554 c 2,9,-1
 453 1554 l 2,10,11
 511 1554 511 1554 499 1507 c 2,0,-1
EndSplineSet
Fore
SplineSet
499 1507 m 2,0,-1
 126 45 l 2,1,2
 114 0 114 0 64 0 c 2,3,-1
 30 0 l 2,4,5
 -46 0 -46 0 -30 66 c 2,6,-1
 345 1509 l 2,7,8
 357 1554 357 1554 406 1554 c 2,9,-1
 453 1554 l 2,10,11
 511 1554 511 1554 499 1507 c 2,0,-1
EndSplineSet
EndChar

StartChar: m
Encoding: 109 109 78
Width: 1333
Flags: W
HStem: 0 21G<7 86.5 446 577 913 1048> 842 198<613.21 675.997 1075.31 1143>
DStem2: 238 987 396 981 0.285985 0.958234<-872.706 49.3695> 242 465 343 391 0.517709 0.855557<0 539.752> 660 752 726 481 0.262051 0.965054<-754.253 -514.249 -244.234 73.6216> 726 481 837 434 0.501642 0.865076<2.20837 511.237> 912 49 1068 29 0.264485 0.96439<-19.476 808.443>
LayerCount: 2
Back
SplineSet
238 987 m 2,0,1
 248 1026 248 1026 256.5 1033 c 128,-1,2
 265 1040 265 1040 279 1040 c 2,3,-1
 363 1040 l 2,4,5
 414 1040 414 1040 396 981 c 2,6,-1
 242 465 l 1,7,-1
 455 817 l 2,8,9
 517 920 517 920 592.5 980 c 128,-1,10
 668 1040 668 1040 717 1040 c 2,11,-1
 760 1040 l 2,12,13
 793 1040 793 1040 811.5 1029 c 128,-1,14
 830 1018 830 1018 841.5 979 c 128,-1,15
 853 940 853 940 830 864 c 2,16,-1
 726 481 l 1,17,-1
 922 819 l 2,18,19
 986 930 986 930 1059.5 985 c 128,-1,20
 1133 1040 1133 1040 1184 1040 c 2,21,-1
 1227 1040 l 2,22,23
 1260 1040 1260 1040 1278.5 1029 c 128,-1,24
 1297 1018 1297 1018 1308 979 c 128,-1,25
 1319 940 1319 940 1297 864 c 2,26,-1
 1068 29 l 2,27,28
 1061 0 1061 0 1035 0 c 2,29,-1
 928 0 l 2,30,31
 898 0 898 0 912 49 c 2,32,-1
 1127 752 l 2,33,34
 1143 807 1143 807 1143 824.5 c 128,-1,35
 1143 842 1143 842 1129 842 c 128,-1,36
 1115 842 1115 842 1095.5 823.5 c 128,-1,37
 1076 805 1076 805 1043 756 c 0,38,39
 1004 700 1004 700 958 625.5 c 128,-1,40
 912 551 912 551 837 434 c 128,-1,41
 762 317 762 317 738 276 c 0,42,43
 646 127 646 127 601 29 c 0,44,45
 588 0 588 0 566 0 c 2,46,-1
 461 0 l 2,47,48
 431 0 431 0 445 49 c 2,49,-1
 660 752 l 2,50,51
 676 807 676 807 676 824.5 c 128,-1,52
 676 842 676 842 662 842 c 128,-1,53
 648 842 648 842 628.5 823.5 c 128,-1,54
 609 805 609 805 576 756 c 0,55,56
 537 700 537 700 482 611 c 128,-1,57
 427 522 427 522 343 391 c 0,58,59
 185 150 185 150 119 29 c 0,60,61
 103 0 103 0 70 0 c 2,62,-1
 13 0 l 2,63,64
 1 0 1 0 -7.5 16.5 c 128,-1,65
 -16 33 -16 33 -10 53 c 2,66,-1
 238 987 l 2,0,1
EndSplineSet
Fore
SplineSet
238 987 m 2,0,1
 248 1026 248 1026 256.5 1033 c 128,-1,2
 265 1040 265 1040 279 1040 c 2,3,-1
 363 1040 l 2,4,5
 414 1040 414 1040 396 981 c 2,6,-1
 242 465 l 1,7,-1
 455 817 l 2,8,9
 517 920 517 920 592.5 980 c 128,-1,10
 668 1040 668 1040 717 1040 c 2,11,-1
 760 1040 l 2,12,13
 793 1040 793 1040 811.5 1029 c 128,-1,14
 830 1018 830 1018 841.5 979 c 128,-1,15
 853 940 853 940 830 864 c 2,16,-1
 726 481 l 1,17,-1
 922 819 l 2,18,19
 986 930 986 930 1059.5 985 c 128,-1,20
 1133 1040 1133 1040 1184 1040 c 2,21,-1
 1227 1040 l 2,22,23
 1260 1040 1260 1040 1278.5 1029 c 128,-1,24
 1297 1018 1297 1018 1308 979 c 128,-1,25
 1319 940 1319 940 1297 864 c 2,26,-1
 1068 29 l 2,27,28
 1061 0 1061 0 1035 0 c 2,29,-1
 928 0 l 2,30,31
 898 0 898 0 912 49 c 2,32,-1
 1127 752 l 2,33,34
 1143 807 1143 807 1143 824.5 c 128,-1,35
 1143 842 1143 842 1129 842 c 128,-1,36
 1115 842 1115 842 1095.5 823.5 c 128,-1,37
 1076 805 1076 805 1043 756 c 0,38,39
 1004 700 1004 700 958 625.5 c 128,-1,40
 912 551 912 551 837 434 c 128,-1,41
 762 317 762 317 738 276 c 0,42,43
 646 127 646 127 601 29 c 0,44,45
 588 0 588 0 566 0 c 2,46,-1
 461 0 l 2,47,48
 431 0 431 0 445 49 c 2,49,-1
 660 752 l 2,50,51
 676 807 676 807 676 824.5 c 128,-1,52
 676 842 676 842 662 842 c 128,-1,53
 648 842 648 842 628.5 823.5 c 128,-1,54
 609 805 609 805 576 756 c 0,55,56
 537 700 537 700 482 611 c 128,-1,57
 427 522 427 522 343 391 c 0,58,59
 185 150 185 150 119 29 c 0,60,61
 103 0 103 0 70 0 c 2,62,-1
 13 0 l 2,63,64
 1 0 1 0 -7.5 16.5 c 128,-1,65
 -16 33 -16 33 -10 53 c 2,66,-1
 238 987 l 2,0,1
EndSplineSet
EndChar

StartChar: n
Encoding: 110 110 79
Width: 866
Flags: MW
HStem: 0 43G<7 87 446 581> 999 41G<264 388 692 777>
DStem2: -10 53 242 465 0.256475 0.966551<-30.1423 190.918 462.486 1033.15> 445 49 601 29 0.264717 0.964326<-49.152 31.744>
LayerCount: 2
Back
SplineSet
242 465 m 1,0,-1
 455 817 l 2,1,2
 523 928 523 928 594.5 984 c 128,-1,3
 666 1040 666 1040 717 1040 c 2,4,-1
 760 1040 l 2,5,6
 793 1040 793 1040 811.5 1029 c 128,-1,7
 830 1018 830 1018 841.5 979 c 128,-1,8
 853 940 853 940 830 864 c 2,9,-1
 601 29 l 2,10,11
 595 0 595 0 568 0 c 2,12,-1
 461 0 l 2,13,14
 431 0 431 0 445 49 c 2,15,-1
 660 752 l 2,16,17
 676 807 676 807 676 824.5 c 128,-1,18
 676 842 676 842 662 842 c 128,-1,19
 648 842 648 842 628.5 823.5 c 128,-1,20
 609 805 609 805 576 756 c 0,21,22
 537 700 537 700 482 611 c 128,-1,23
 427 522 427 522 343 391 c 0,24,25
 185 150 185 150 119 29 c 0,26,27
 103 0 103 0 70 0 c 2,28,-1
 13 0 l 2,29,30
 1 0 1 0 -7.5 16.5 c 128,-1,31
 -16 33 -16 33 -10 53 c 2,32,-1
 238 987 l 2,33,34
 248 1040 248 1040 279 1040 c 2,35,-1
 363 1040 l 2,36,37
 412 1040 412 1040 396 981 c 2,38,-1
 242 465 l 1,0,-1
EndSplineSet
Fore
SplineSet
242 465 m 1,0,-1
 455 817 l 2,1,2
 523 928 523 928 594.5 984 c 128,-1,3
 666 1040 666 1040 717 1040 c 2,4,-1
 760 1040 l 2,5,6
 793 1040 793 1040 811.5 1029 c 128,-1,7
 830 1018 830 1018 841.5 979 c 128,-1,8
 853 940 853 940 830 864 c 2,9,-1
 601 29 l 2,10,11
 595 0 595 0 568 0 c 2,12,-1
 461 0 l 2,13,14
 431 0 431 0 445 49 c 2,15,-1
 660 752 l 2,16,17
 676 807 676 807 676 824.5 c 128,-1,18
 676 842 676 842 662 842 c 128,-1,19
 648 842 648 842 628.5 823.5 c 128,-1,20
 609 805 609 805 576 756 c 0,21,22
 537 700 537 700 482 611 c 128,-1,23
 427 522 427 522 343 391 c 0,24,25
 185 150 185 150 119 29 c 0,26,27
 103 0 103 0 70 0 c 2,28,-1
 13 0 l 2,29,30
 1 0 1 0 -7.5 16.5 c 128,-1,31
 -16 33 -16 33 -10 53 c 2,32,-1
 238 987 l 2,33,34
 248 1040 248 1040 279 1040 c 2,35,-1
 363 1040 l 2,36,37
 412 1040 412 1040 396 981 c 2,38,-1
 242 465 l 1,0,-1
EndSplineSet
EndChar

StartChar: o
Encoding: 111 111 80
Width: 686
Flags: W
HStem: -16 143<182.891 311.675> 908 149<340.599 481.908>
VStem: 0 166<133.221 579.94> 496 162<444.027 864.699>
LayerCount: 2
Back
SplineSet
0 297 m 0,0,1
 9 571 9 571 137 816 c 128,-1,2
 265 1061 265 1061 463 1057 c 0,3,4
 566 1051 566 1051 623 954 c 0,5,6
 666 887 666 887 658 727 c 0,7,8
 650 424 650 424 492 166 c 0,9,10
 383 -23 383 -23 199 -16 c 0,11,12
 134 -14 134 -14 78 41 c 0,13,14
 -6 121 -6 121 0 297 c 0,0,1
349 215 m 0,15,16
 488 434 488 434 496 705 c 0,17,18
 498 825 498 825 483.5 866 c 128,-1,19
 469 907 469 907 423 908 c 128,-1,20
 377 909 377 909 339 865 c 128,-1,21
 301 821 301 821 265 743 c 0,22,23
 174 561 174 561 166 317 c 0,24,25
 162 133 162 133 230 127 c 0,26,27
 289 125 289 125 349 215 c 0,15,16
EndSplineSet
Fore
SplineSet
0 297 m 0,0,1
 9 571 9 571 137 816 c 128,-1,2
 265 1061 265 1061 463 1057 c 0,3,4
 566 1051 566 1051 623 954 c 0,5,6
 666 887 666 887 658 727 c 0,7,8
 650 424 650 424 492 166 c 0,9,10
 383 -23 383 -23 199 -16 c 0,11,12
 134 -14 134 -14 78 41 c 0,13,14
 -6 121 -6 121 0 297 c 0,0,1
349 215 m 0,15,16
 488 434 488 434 496 705 c 0,17,18
 498 825 498 825 483.5 866 c 128,-1,19
 469 907 469 907 423 908 c 128,-1,20
 377 909 377 909 339 865 c 128,-1,21
 301 821 301 821 265 743 c 0,22,23
 174 561 174 561 166 317 c 0,24,25
 162 133 162 133 230 127 c 0,26,27
 289 125 289 125 349 215 c 0,15,16
EndSplineSet
EndChar

StartChar: p
Encoding: 112 112 81
Width: 745
Flags: MW
HStem: -410 43G<-86 -8> -8 142<258 331> 856 178<535 547> 999 41G<255 362>
VStem: 572 141<801 865>
DStem2: -123 -344 29 -365 0.248024 0.968754<-39.9196 423.567 1233.22 1440.08>
LayerCount: 2
Back
SplineSet
160 143 m 1,0,1
 260 86 260 86 330.5 134 c 128,-1,2
 401 182 401 182 468.5 368.5 c 128,-1,3
 536 555 536 555 555.5 659.5 c 128,-1,4
 575 764 575 764 572 801 c 128,-1,5
 569 838 569 838 535.5 856 c 128,-1,6
 502 874 502 874 423 783 c 128,-1,7
 344 692 344 692 288.5 549 c 128,-1,8
 233 406 233 406 166 162 c 2,9,-1
 160 143 l 1,0,1
377 995 m 2,10,-1
 330 813 l 1,11,-1
 358 860 l 2,12,13
 401 932 401 932 456.5 983 c 128,-1,14
 512 1034 512 1034 547 1034 c 2,15,-1
 551 1034 l 2,16,17
 567 1034 567 1034 602 1010.5 c 128,-1,18
 637 987 637 987 668.5 947 c 128,-1,19
 700 907 700 907 713.5 865 c 128,-1,20
 727 823 727 823 711.5 695 c 128,-1,21
 696 567 696 567 614 351 c 128,-1,22
 532 135 532 135 454.5 63.5 c 128,-1,23
 377 -8 377 -8 258 -8 c 0,24,25
 190 -8 190 -8 129 29 c 1,26,-1
 29 -365 l 2,27,28
 16 -410 16 -410 -33 -410 c 2,29,-1
 -70 -410 l 2,30,31
 -103 -410 -103 -410 -116 -391.5 c 128,-1,32
 -129 -373 -129 -373 -123 -344 c 2,33,-1
 221 997 l 2,34,35
 233 1040 233 1040 276 1040 c 2,36,-1
 336 1040 l 2,37,38
 389 1040 389 1040 377 995 c 2,10,-1
EndSplineSet
Fore
SplineSet
160 143 m 1,0,1
 260 86 260 86 330.5 134 c 128,-1,2
 401 182 401 182 468.5 368.5 c 128,-1,3
 536 555 536 555 555.5 659.5 c 128,-1,4
 575 764 575 764 572 801 c 128,-1,5
 569 838 569 838 535.5 856 c 128,-1,6
 502 874 502 874 423 783 c 128,-1,7
 344 692 344 692 288.5 549 c 128,-1,8
 233 406 233 406 166 162 c 2,9,-1
 160 143 l 1,0,1
377 995 m 2,10,-1
 330 813 l 1,11,-1
 358 860 l 2,12,13
 401 932 401 932 456.5 983 c 128,-1,14
 512 1034 512 1034 547 1034 c 2,15,-1
 551 1034 l 2,16,17
 567 1034 567 1034 602 1010.5 c 128,-1,18
 637 987 637 987 668.5 947 c 128,-1,19
 700 907 700 907 713.5 865 c 128,-1,20
 727 823 727 823 711.5 695 c 128,-1,21
 696 567 696 567 614 351 c 128,-1,22
 532 135 532 135 454.5 63.5 c 128,-1,23
 377 -8 377 -8 258 -8 c 0,24,25
 190 -8 190 -8 129 29 c 1,26,-1
 29 -365 l 2,27,28
 16 -410 16 -410 -33 -410 c 2,29,-1
 -70 -410 l 2,30,31
 -103 -410 -103 -410 -116 -391.5 c 128,-1,32
 -129 -373 -129 -373 -123 -344 c 2,33,-1
 221 997 l 2,34,35
 233 1040 233 1040 276 1040 c 2,36,-1
 336 1040 l 2,37,38
 389 1040 389 1040 377 995 c 2,10,-1
EndSplineSet
EndChar

StartChar: q
Encoding: 113 113 82
Width: 743
Flags: MW
HStem: -410 43G<280 357> -6 43G<159 188> 894 142<387 460> 999 41G<622 729>
VStem: 4 141<163 227>
DStem2: 243 -344 394 -365 0.248375 0.968664<-39.8805 575.207 1387.35 1440.06>
LayerCount: 2
Back
SplineSet
558 885 m 1,0,1
 458 942 458 942 387 894 c 128,-1,2
 316 846 316 846 248.5 659.5 c 128,-1,3
 181 473 181 473 161.5 368.5 c 128,-1,4
 142 264 142 264 145.5 227 c 128,-1,5
 149 190 149 190 182.5 172 c 128,-1,6
 216 154 216 154 295 245 c 128,-1,7
 374 336 374 336 429 479.5 c 128,-1,8
 484 623 484 623 552 866 c 2,9,-1
 558 885 l 1,0,1
589 999 m 1,10,11
 599 1040 599 1040 644 1040 c 2,12,-1
 704 1040 l 2,13,14
 755 1040 755 1040 742 993 c 2,15,-1
 394 -365 l 2,16,17
 382 -410 382 -410 333 -410 c 2,18,-1
 296 -410 l 2,19,20
 263 -410 263 -410 250 -391.5 c 128,-1,21
 237 -373 237 -373 243 -344 c 2,22,-1
 386 213 l 1,23,-1
 359 168 l 2,24,25
 316 96 316 96 261 45 c 128,-1,26
 206 -6 206 -6 171 -6 c 2,27,-1
 167 -6 l 2,28,29
 151 -6 151 -6 116 17.5 c 128,-1,30
 81 41 81 41 49 81 c 128,-1,31
 17 121 17 121 4 163 c 128,-1,32
 -9 205 -9 205 6.5 333 c 128,-1,33
 22 461 22 461 103.5 677 c 128,-1,34
 185 893 185 893 263 964.5 c 128,-1,35
 341 1036 341 1036 460 1036 c 0,36,37
 527 1036 527 1036 589 999 c 1,10,11
EndSplineSet
Fore
SplineSet
558 885 m 1,0,1
 458 942 458 942 387 894 c 128,-1,2
 316 846 316 846 248.5 659.5 c 128,-1,3
 181 473 181 473 161.5 368.5 c 128,-1,4
 142 264 142 264 145.5 227 c 128,-1,5
 149 190 149 190 182.5 172 c 128,-1,6
 216 154 216 154 295 245 c 128,-1,7
 374 336 374 336 429 479.5 c 128,-1,8
 484 623 484 623 552 866 c 2,9,-1
 558 885 l 1,0,1
589 999 m 1,10,11
 599 1040 599 1040 644 1040 c 2,12,-1
 704 1040 l 2,13,14
 755 1040 755 1040 742 993 c 2,15,-1
 394 -365 l 2,16,17
 382 -410 382 -410 333 -410 c 2,18,-1
 296 -410 l 2,19,20
 263 -410 263 -410 250 -391.5 c 128,-1,21
 237 -373 237 -373 243 -344 c 2,22,-1
 386 213 l 1,23,-1
 359 168 l 2,24,25
 316 96 316 96 261 45 c 128,-1,26
 206 -6 206 -6 171 -6 c 2,27,-1
 167 -6 l 2,28,29
 151 -6 151 -6 116 17.5 c 128,-1,30
 81 41 81 41 49 81 c 128,-1,31
 17 121 17 121 4 163 c 128,-1,32
 -9 205 -9 205 6.5 333 c 128,-1,33
 22 461 22 461 103.5 677 c 128,-1,34
 185 893 185 893 263 964.5 c 128,-1,35
 341 1036 341 1036 460 1036 c 0,36,37
 527 1036 527 1036 589 999 c 1,10,11
EndSplineSet
EndChar

StartChar: r
Encoding: 114 114 83
Width: 577
Flags: W
HStem: 0 21G<-2 110.5> 1027 20G<265.5 365.5 591 673>
DStem2: -18 47 148 45 0.253993 0.967206<-17.1893 668.167 784.319 1038.12>
LayerCount: 2
Back
SplineSet
332 766 m 1,0,1
 397 872 397 872 452.5 942 c 128,-1,2
 508 1012 508 1012 533.5 1029.5 c 128,-1,3
 559 1047 559 1047 623 1047 c 2,4,-1
 643 1047 l 2,5,6
 703 1047 703 1047 684 1001 c 0,7,8
 674 977 674 977 634 941 c 128,-1,9
 594 905 594 905 525.5 818 c 128,-1,10
 457 731 457 731 457 705 c 0,11,12
 457 651 457 651 508 604 c 0,13,14
 520 594 520 594 515 582.5 c 128,-1,15
 510 571 510 571 494 567 c 2,16,-1
 416 553 l 2,17,18
 383 547 383 547 365.5 560 c 128,-1,19
 348 573 348 573 305 653 c 1,20,-1
 148 45 l 2,21,22
 135 0 135 0 86 0 c 2,23,-1
 27 0 l 2,24,25
 -31 0 -31 0 -18 47 c 2,26,-1
 232 999 l 2,27,28
 242 1040 242 1040 289 1040 c 2,29,-1
 352 1040 l 2,30,31
 379 1040 379 1040 388 1031 c 128,-1,32
 397 1022 397 1022 391 997 c 2,33,-1
 332 766 l 1,0,1
EndSplineSet
Fore
SplineSet
332 766 m 1,0,1
 397 872 397 872 452.5 942 c 128,-1,2
 508 1012 508 1012 533.5 1029.5 c 128,-1,3
 559 1047 559 1047 623 1047 c 2,4,-1
 643 1047 l 2,5,6
 703 1047 703 1047 684 1001 c 0,7,8
 674 977 674 977 634 941 c 128,-1,9
 594 905 594 905 525.5 818 c 128,-1,10
 457 731 457 731 457 705 c 0,11,12
 457 651 457 651 508 604 c 0,13,14
 520 594 520 594 515 582.5 c 128,-1,15
 510 571 510 571 494 567 c 2,16,-1
 416 553 l 2,17,18
 383 547 383 547 365.5 560 c 128,-1,19
 348 573 348 573 305 653 c 1,20,-1
 148 45 l 2,21,22
 135 0 135 0 86 0 c 2,23,-1
 27 0 l 2,24,25
 -31 0 -31 0 -18 47 c 2,26,-1
 232 999 l 2,27,28
 242 1040 242 1040 289 1040 c 2,29,-1
 352 1040 l 2,30,31
 379 1040 379 1040 388 1031 c 128,-1,32
 397 1022 397 1022 391 997 c 2,33,-1
 332 766 l 1,0,1
EndSplineSet
Substitution2: "'titl' Titling lookup 0 subtable" r.alt3
EndChar

StartChar: s
Encoding: 115 115 84
Width: 655
Flags: MW
HStem: -23 137<140 291> 920 133<311 460>
VStem: 86 160<621 850> 360 166<201 444>
DStem2: 344 598 276 469 0.977802 -0.209529<-80.5386 34.7052>
LayerCount: 2
Back
SplineSet
391 1053 m 2,0,-1
 422 1053 l 2,1,2
 492 1053 492 1053 551 999.5 c 128,-1,3
 610 946 610 946 647 868 c 0,4,5
 668 825 668 825 633 803 c 2,6,-1
 571 768 l 2,7,8
 528 737 528 737 510 778 c 0,9,10
 508 782 508 782 493.5 816 c 128,-1,11
 479 850 479 850 470 864.5 c 128,-1,12
 461 879 461 879 438.5 897 c 128,-1,13
 416 915 416 915 387 920 c 1,14,15
 336 909 336 909 291 852 c 128,-1,16
 246 795 246 795 246 690 c 0,17,18
 246 645 246 645 267.5 627.5 c 128,-1,19
 289 610 289 610 344 598 c 2,20,-1
 401 586 l 2,21,22
 526 559 526 559 526 379 c 0,23,24
 526 272 526 272 446 133 c 0,25,26
 408 68 408 68 342 22.5 c 128,-1,27
 276 -23 276 -23 199 -23 c 2,28,-1
 184 -23 l 2,29,30
 106 -23 106 -23 45 31.5 c 128,-1,31
 -16 86 -16 86 -41 142.5 c 128,-1,32
 -66 199 -66 199 -41 227 c 1,33,-1
 4 264 l 2,34,35
 25 285 25 285 49.5 283 c 128,-1,36
 74 281 74 281 83 247 c 128,-1,37
 92 213 92 213 133 165 c 128,-1,38
 174 117 174 117 209 115 c 1,39,40
 270 125 270 125 315 187.5 c 128,-1,41
 360 250 360 250 360 331 c 128,-1,42
 360 412 360 412 345 434.5 c 128,-1,43
 330 457 330 457 276 469 c 2,44,-1
 231 479 l 2,45,46
 152 498 152 498 119 545 c 128,-1,47
 86 592 86 592 86 672 c 0,48,49
 86 805 86 805 181 929 c 128,-1,50
 276 1053 276 1053 391 1053 c 2,0,-1
EndSplineSet
Fore
SplineSet
391 1053 m 2,0,-1
 422 1053 l 2,1,2
 492 1053 492 1053 551 999.5 c 128,-1,3
 610 946 610 946 647 868 c 0,4,5
 668 825 668 825 633 803 c 2,6,-1
 571 768 l 2,7,8
 528 737 528 737 510 778 c 0,9,10
 508 782 508 782 493.5 816 c 128,-1,11
 479 850 479 850 470 864.5 c 128,-1,12
 461 879 461 879 438.5 897 c 128,-1,13
 416 915 416 915 387 920 c 1,14,15
 336 909 336 909 291 852 c 128,-1,16
 246 795 246 795 246 690 c 0,17,18
 246 645 246 645 267.5 627.5 c 128,-1,19
 289 610 289 610 344 598 c 2,20,-1
 401 586 l 2,21,22
 526 559 526 559 526 379 c 0,23,24
 526 272 526 272 446 133 c 0,25,26
 408 68 408 68 342 22.5 c 128,-1,27
 276 -23 276 -23 199 -23 c 2,28,-1
 184 -23 l 2,29,30
 106 -23 106 -23 45 31.5 c 128,-1,31
 -16 86 -16 86 -41 142.5 c 128,-1,32
 -66 199 -66 199 -41 227 c 1,33,-1
 4 264 l 2,34,35
 25 285 25 285 49.5 283 c 128,-1,36
 74 281 74 281 83 247 c 128,-1,37
 92 213 92 213 133 165 c 128,-1,38
 174 117 174 117 209 115 c 1,39,40
 270 125 270 125 315 187.5 c 128,-1,41
 360 250 360 250 360 331 c 128,-1,42
 360 412 360 412 345 434.5 c 128,-1,43
 330 457 330 457 276 469 c 2,44,-1
 231 479 l 2,45,46
 152 498 152 498 119 545 c 128,-1,47
 86 592 86 592 86 672 c 0,48,49
 86 805 86 805 181 929 c 128,-1,50
 276 1053 276 1053 391 1053 c 2,0,-1
EndSplineSet
EndChar

StartChar: t
Encoding: 116 116 85
Width: 475
Flags: W
HStem: 0 21G<53.5 133> 897 143<135.555 229 424 546.864>
VStem: 16 545
DStem2: 16 66 170 45 0.246881 0.969046<-39.777 857.863 1044.58 1390.89>
LayerCount: 2
Back
SplineSet
504 1356 m 2,0,-1
 424 1040 l 1,1,-1
 530 1040 l 2,2,3
 575 1040 575 1040 561 995 c 2,4,-1
 547 942 l 2,5,6
 532 897 532 897 493 897 c 2,7,-1
 387 897 l 1,8,-1
 170 45 l 2,9,10
 158 0 158 0 108 0 c 2,11,-1
 70 0 l 2,12,13
 37 0 37 0 23.5 18.5 c 128,-1,14
 10 37 10 37 16 66 c 2,15,-1
 229 897 l 1,16,-1
 147 897 l 2,17,18
 106 897 106 897 121 946 c 2,19,-1
 137 1001 l 2,20,21
 149 1040 149 1040 182 1040 c 2,22,-1
 264 1040 l 1,23,-1
 346 1358 l 2,24,25
 358 1403 358 1403 407 1403 c 2,26,-1
 459 1403 l 2,27,28
 516 1403 516 1403 504 1356 c 2,0,-1
EndSplineSet
Fore
SplineSet
504 1356 m 2,0,-1
 424 1040 l 1,1,-1
 530 1040 l 2,2,3
 575 1040 575 1040 561 995 c 2,4,-1
 547 942 l 2,5,6
 532 897 532 897 493 897 c 2,7,-1
 387 897 l 1,8,-1
 170 45 l 2,9,10
 158 0 158 0 108 0 c 2,11,-1
 70 0 l 2,12,13
 37 0 37 0 23.5 18.5 c 128,-1,14
 10 37 10 37 16 66 c 2,15,-1
 229 897 l 1,16,-1
 147 897 l 2,17,18
 106 897 106 897 121 946 c 2,19,-1
 137 1001 l 2,20,21
 149 1040 149 1040 182 1040 c 2,22,-1
 264 1040 l 1,23,-1
 346 1358 l 2,24,25
 358 1403 358 1403 407 1403 c 2,26,-1
 459 1403 l 2,27,28
 516 1403 516 1403 504 1356 c 2,0,-1
EndSplineSet
EndChar

StartChar: u
Encoding: 117 117 86
Width: 827
Flags: W
HStem: 0 21G<70.5 140.5 419.5 543.5> 1020 20G<226 361.5 700.5 800.5>
DStem2: -2 250 155 281 0.264509 0.964383<-8.24143 830.456> 254 287 366 223 0.511676 0.859178<-128.398 367.786> 411 59 569 53 0.284771 0.958596<-28.4384 541.438 904.305 949.774>
LayerCount: 2
Back
SplineSet
553 537 m 1,0,-1
 366 223 l 2,1,2
 301 111 301 111 233.5 55.5 c 128,-1,3
 166 0 166 0 115 0 c 2,4,-1
 102 0 l 2,5,6
 39 0 39 0 3 69.5 c 128,-1,7
 -33 139 -33 139 -2 250 c 2,8,-1
 207 1012 l 2,9,10
 213 1040 213 1040 239 1040 c 2,11,-1
 346 1040 l 2,12,13
 377 1040 377 1040 362 991 c 2,14,-1
 155 281 l 2,15,16
 141 217 141 217 151 199 c 0,17,18
 174 166 174 166 254 287 c 128,-1,19
 334 408 334 408 667 1012 c 0,20,21
 684 1040 684 1040 717 1040 c 2,22,-1
 794 1040 l 2,23,24
 807 1040 807 1040 815 1024 c 128,-1,25
 823 1008 823 1008 817 987 c 2,26,-1
 569 53 l 2,27,28
 559 0 559 0 528 0 c 2,29,-1
 444 0 l 2,30,31
 395 0 395 0 411 59 c 2,32,-1
 553 537 l 1,0,-1
EndSplineSet
Fore
SplineSet
553 537 m 1,0,-1
 366 223 l 2,1,2
 301 111 301 111 233.5 55.5 c 128,-1,3
 166 0 166 0 115 0 c 2,4,-1
 102 0 l 2,5,6
 39 0 39 0 3 69.5 c 128,-1,7
 -33 139 -33 139 -2 250 c 2,8,-1
 207 1012 l 2,9,10
 213 1040 213 1040 239 1040 c 2,11,-1
 346 1040 l 2,12,13
 377 1040 377 1040 362 991 c 2,14,-1
 155 281 l 2,15,16
 141 217 141 217 151 199 c 0,17,18
 174 166 174 166 254 287 c 128,-1,19
 334 408 334 408 667 1012 c 0,20,21
 684 1040 684 1040 717 1040 c 2,22,-1
 794 1040 l 2,23,24
 807 1040 807 1040 815 1024 c 128,-1,25
 823 1008 823 1008 817 987 c 2,26,-1
 569 53 l 2,27,28
 559 0 559 0 528 0 c 2,29,-1
 444 0 l 2,30,31
 395 0 395 0 411 59 c 2,32,-1
 553 537 l 1,0,-1
EndSplineSet
Substitution2: "'titl' Titling lookup 0 subtable" u.alt2
EndChar

StartChar: v
Encoding: 118 118 87
Width: 743
Flags: W
HStem: 1020 20G<164.5 271.5>
VStem: 148 147<193 242.392 902.537 1039.93> 611 157<859.219 1044.01>
LayerCount: 2
Back
SplineSet
295 193 m 5,0,1
 482 502 482 502 611 1010 c 4,2,3
 621 1053 621 1053 668 1049 c 2,4,-1
 725 1044 l 2,5,6
 781 1034 781 1034 768 993 c 4,7,8
 607 444 607 444 396 117 c 4,9,10
 318 -2 318 -2 262 0 c 2,11,-1
 205 4 l 2,12,13
 142 8 142 8 148 104 c 0,14,15
 172 485 172 485 142 965 c 0,16,17
 138 1040 138 1040 191 1040 c 2,18,-1
 248 1040 l 2,19,20
 295 1040 295 1040 297 993 c 0,21,22
 324 502 324 502 295 193 c 5,0,1
EndSplineSet
Fore
SplineSet
295 193 m 5,0,1
 482 502 482 502 611 1010 c 4,2,3
 621 1053 621 1053 668 1049 c 2,4,-1
 725 1044 l 2,5,6
 781 1034 781 1034 768 993 c 4,7,8
 607 444 607 444 396 117 c 4,9,10
 318 -2 318 -2 262 0 c 2,11,-1
 205 4 l 2,12,13
 142 8 142 8 148 104 c 0,14,15
 172 485 172 485 142 965 c 0,16,17
 138 1040 138 1040 191 1040 c 2,18,-1
 248 1040 l 2,19,20
 295 1040 295 1040 297 993 c 0,21,22
 324 502 324 502 295 193 c 5,0,1
EndSplineSet
EndChar

StartChar: w
Encoding: 119 119 88
Width: 1206
Flags: W
HStem: 1020 20G<170.5 281.5 623.5 730.5>
VStem: 148 158<495.817 1039.9> 609 147<193 282.938> 1072 157<859.219 1027.56>
LayerCount: 2
Back
SplineSet
285 190 m 1,0,1
 398 371 398 371 494 631 c 128,-1,2
 590 891 590 891 597 1001 c 0,3,4
 601 1040 601 1040 646 1040 c 2,5,-1
 711 1040 l 2,6,7
 750 1040 750 1040 756 993 c 0,8,9
 787 547 787 547 756 193 c 1,10,11
 943 500 943 500 1072 1010 c 0,12,13
 1082 1053 1082 1053 1129 1049 c 2,14,-1
 1186 1044 l 2,15,16
 1209 1042 1209 1042 1222 1028 c 128,-1,17
 1235 1014 1235 1014 1229 993 c 0,18,19
 1068 444 1068 444 857 117 c 0,20,21
 781 -2 781 -2 728 0 c 2,22,-1
 666 4 l 2,23,24
 603 8 603 8 609 104 c 0,25,26
 621 354 621 354 617 573 c 1,27,28
 541 373 541 373 386 117 c 0,29,30
 314 -2 314 -2 261 0 c 2,31,-1
 197 4 l 2,32,33
 134 8 134 8 140 104 c 0,34,35
 166 586 166 586 148 995 c 0,36,37
 144 1040 144 1040 197 1040 c 2,38,-1
 259 1040 l 2,39,40
 304 1040 304 1040 306 993 c 0,41,42
 320 575 320 575 285 190 c 1,0,1
EndSplineSet
Fore
SplineSet
285 190 m 1,0,1
 398 371 398 371 494 631 c 128,-1,2
 590 891 590 891 597 1001 c 0,3,4
 601 1040 601 1040 646 1040 c 2,5,-1
 711 1040 l 2,6,7
 750 1040 750 1040 756 993 c 0,8,9
 787 547 787 547 756 193 c 1,10,11
 943 500 943 500 1072 1010 c 0,12,13
 1082 1053 1082 1053 1129 1049 c 2,14,-1
 1186 1044 l 2,15,16
 1209 1042 1209 1042 1222 1028 c 128,-1,17
 1235 1014 1235 1014 1229 993 c 0,18,19
 1068 444 1068 444 857 117 c 0,20,21
 781 -2 781 -2 728 0 c 2,22,-1
 666 4 l 2,23,24
 603 8 603 8 609 104 c 0,25,26
 621 354 621 354 617 573 c 1,27,28
 541 373 541 373 386 117 c 0,29,30
 314 -2 314 -2 261 0 c 2,31,-1
 197 4 l 2,32,33
 134 8 134 8 140 104 c 0,34,35
 166 586 166 586 148 995 c 0,36,37
 144 1040 144 1040 197 1040 c 2,38,-1
 259 1040 l 2,39,40
 304 1040 304 1040 306 993 c 0,41,42
 320 575 320 575 285 190 c 1,0,1
EndSplineSet
EndChar

StartChar: x
Encoding: 120 120 89
Width: 724
Flags: W
HStem: 0 21G<-79.5 4.5> 1020 20G<157.5 266.5 657.5 775.5>
DStem2: -98 51 53 24.5 0.624989 0.780633<6.73964 488.094> 396 649 273 522 0.226348 -0.974047<-410.067 0 274.175 627.385>
LayerCount: 2
Back
SplineSet
-98 51 m 0,0,1
 150 352 150 352 273 522 c 1,2,3
 222 737 222 737 154 965 c 0,4,5
 128 1040 128 1040 187 1040 c 2,6,-1
 244 1040 l 2,7,8
 289 1040 289 1040 304 993 c 0,9,10
 359 803 359 803 396 649 c 1,11,12
 486 780 486 780 623 1014 c 0,13,14
 637 1040 637 1040 678 1040 c 2,15,-1
 748 1040 l 2,16,17
 803 1040 803 1040 758 967 c 0,18,19
 648 776 648 776 435 485 c 1,20,21
 482 276 482 276 519 43 c 0,22,23
 525 2 525 2 486 0 c 2,24,-1
 424 -6 l 2,25,26
 396 -10 396 -10 385.5 2 c 128,-1,27
 375 14 375 14 365 57 c 0,28,29
 345 197 345 197 312 348 c 1,30,31
 171 168 171 168 125.5 113.5 c 128,-1,32
 80 59 80 59 72 49 c 128,-1,33
 64 39 64 39 62 36 c 128,-1,34
 60 33 60 33 53 24.5 c 128,-1,35
 46 16 46 16 40.5 14 c 128,-1,36
 35 12 35 12 27 8 c 0,37,38
 15 0 15 0 -6 0 c 2,39,-1
 -65 0 l 2,40,41
 -94 0 -94 0 -103 17.5 c 128,-1,42
 -112 35 -112 35 -98 51 c 0,0,1
EndSplineSet
Fore
SplineSet
-98 51 m 0,0,1
 150 352 150 352 273 522 c 1,2,3
 222 737 222 737 154 965 c 0,4,5
 128 1040 128 1040 187 1040 c 2,6,-1
 244 1040 l 2,7,8
 289 1040 289 1040 304 993 c 0,9,10
 359 803 359 803 396 649 c 1,11,12
 486 780 486 780 623 1014 c 0,13,14
 637 1040 637 1040 678 1040 c 2,15,-1
 748 1040 l 2,16,17
 803 1040 803 1040 758 967 c 0,18,19
 648 776 648 776 435 485 c 1,20,21
 482 276 482 276 519 43 c 0,22,23
 525 2 525 2 486 0 c 2,24,-1
 424 -6 l 2,25,26
 396 -10 396 -10 385.5 2 c 128,-1,27
 375 14 375 14 365 57 c 0,28,29
 345 197 345 197 312 348 c 1,30,31
 171 168 171 168 125.5 113.5 c 128,-1,32
 80 59 80 59 72 49 c 128,-1,33
 64 39 64 39 62 36 c 128,-1,34
 60 33 60 33 53 24.5 c 128,-1,35
 46 16 46 16 40.5 14 c 128,-1,36
 35 12 35 12 27 8 c 0,37,38
 15 0 15 0 -6 0 c 2,39,-1
 -65 0 l 2,40,41
 -94 0 -94 0 -103 17.5 c 128,-1,42
 -112 35 -112 35 -98 51 c 0,0,1
EndSplineSet
EndChar

StartChar: y
Encoding: 121 121 90
Width: 831
Flags: W
HStem: 0 21G<99.5 159> 1020 20G<246 380.5 719 819.5>
DStem2: 287 -242 -22 -236 0.870796 -0.491645<-266.501 36.6191> 17 250 174 281 0.264509 0.964383<-6.38874 830.456> 355 -186 535 -102 0.266411 0.963859<-69.5285 729.379 1064.87 1284.23>
LayerCount: 2
Back
SplineSet
735 1040 m 2,0,-1
 813 1040 l 2,1,2
 826 1040 826 1040 834 1024 c 128,-1,3
 842 1008 842 1008 836 987 c 2,4,-1
 535 -102 l 2,5,6
 486 -291 486 -291 373 -352 c 0,7,8
 324 -379 324 -379 307 -385 c 0,9,10
 266 -403 266 -403 187 -354 c 2,11,-1
 -22 -236 l 2,12,13
 -49 -223 -49 -223 -51 -199.5 c 128,-1,14
 -53 -176 -53 -176 -39 -162 c 1,15,-1
 -8 -119 l 2,16,17
 25 -84 25 -84 60 -102 c 2,18,-1
 287 -242 l 2,19,20
 332 -266 332 -266 355 -186 c 2,21,-1
 553 516 l 1,22,-1
 506 426 l 1,23,-1
 385 223 l 2,24,25
 320 111 320 111 252.5 55.5 c 128,-1,26
 185 0 185 0 133 0 c 2,27,-1
 121 0 l 2,28,29
 78 0 78 0 49 31 c 0,30,31
 -22 109 -22 109 17 250 c 2,32,-1
 226 1012 l 2,33,34
 234 1040 234 1040 258 1040 c 2,35,-1
 365 1040 l 2,36,37
 396 1040 396 1040 381 991 c 2,38,-1
 174 281 l 2,39,40
 158 217 158 217 170 201 c 0,41,42
 193 166 193 166 274 287 c 128,-1,43
 355 408 355 408 686 1012 c 0,44,45
 703 1040 703 1040 735 1040 c 2,0,-1
EndSplineSet
Fore
SplineSet
735 1040 m 2,0,-1
 813 1040 l 2,1,2
 826 1040 826 1040 834 1024 c 128,-1,3
 842 1008 842 1008 836 987 c 2,4,-1
 535 -102 l 2,5,6
 486 -291 486 -291 373 -352 c 0,7,8
 324 -379 324 -379 307 -385 c 0,9,10
 266 -403 266 -403 187 -354 c 2,11,-1
 -22 -236 l 2,12,13
 -49 -223 -49 -223 -51 -199.5 c 128,-1,14
 -53 -176 -53 -176 -39 -162 c 1,15,-1
 -8 -119 l 2,16,17
 25 -84 25 -84 60 -102 c 2,18,-1
 287 -242 l 2,19,20
 332 -266 332 -266 355 -186 c 2,21,-1
 553 516 l 1,22,-1
 506 426 l 1,23,-1
 385 223 l 2,24,25
 320 111 320 111 252.5 55.5 c 128,-1,26
 185 0 185 0 133 0 c 2,27,-1
 121 0 l 2,28,29
 78 0 78 0 49 31 c 0,30,31
 -22 109 -22 109 17 250 c 2,32,-1
 226 1012 l 2,33,34
 234 1040 234 1040 258 1040 c 2,35,-1
 365 1040 l 2,36,37
 396 1040 396 1040 381 991 c 2,38,-1
 174 281 l 2,39,40
 158 217 158 217 170 201 c 0,41,42
 193 166 193 166 274 287 c 128,-1,43
 355 408 355 408 686 1012 c 0,44,45
 703 1040 703 1040 735 1040 c 2,0,-1
EndSplineSet
Substitution2: "'titl' Titling lookup 0 subtable" y.alt1
EndChar

StartChar: z
Encoding: 122 122 91
Width: 749
Flags: W
HStem: 0 131<121 416> 909 131<299 586>
DStem2: -55 129 121 131 0.639779 0.768559<114.138 1009.57> 113 778 267 778 0.237298 0.971437<-19.6271 171.396> 416 131 543 45 0.244277 0.969706<0 191.916>
LayerCount: 2
Back
SplineSet
121 131 m 1,0,-1
 416 131 l 1,1,-1
 449 262 l 2,2,3
 459 303 459 303 512 307 c 2,4,-1
 555 311 l 2,5,6
 582 313 582 313 594.5 300 c 128,-1,7
 607 287 607 287 601 262 c 2,8,-1
 543 45 l 2,9,10
 531 0 531 0 482 0 c 2,11,-1
 -4 0 l 2,12,13
 -65 0 -65 0 -78.5 46 c 128,-1,14
 -92 92 -92 92 -55 129 c 2,15,-1
 586 909 l 1,16,-1
 299 909 l 1,17,-1
 267 778 l 2,18,19
 256 737 256 737 203 733 c 2,20,-1
 158 729 l 2,21,22
 132 727 132 727 119.5 740.5 c 128,-1,23
 107 754 107 754 113 778 c 2,24,-1
 172 999 l 2,25,26
 185 1040 185 1040 232 1040 c 2,27,-1
 693 1040 l 2,28,29
 746 1040 746 1040 770.5 993 c 128,-1,30
 795 946 795 946 742 877 c 2,31,-1
 121 131 l 1,0,-1
EndSplineSet
Fore
SplineSet
121 131 m 1,0,-1
 416 131 l 1,1,-1
 449 262 l 2,2,3
 459 303 459 303 512 307 c 2,4,-1
 555 311 l 2,5,6
 582 313 582 313 594.5 300 c 128,-1,7
 607 287 607 287 601 262 c 2,8,-1
 543 45 l 2,9,10
 531 0 531 0 482 0 c 2,11,-1
 -4 0 l 2,12,13
 -65 0 -65 0 -78.5 46 c 128,-1,14
 -92 92 -92 92 -55 129 c 2,15,-1
 586 909 l 1,16,-1
 299 909 l 1,17,-1
 267 778 l 2,18,19
 256 737 256 737 203 733 c 2,20,-1
 158 729 l 2,21,22
 132 727 132 727 119.5 740.5 c 128,-1,23
 107 754 107 754 113 778 c 2,24,-1
 172 999 l 2,25,26
 185 1040 185 1040 232 1040 c 2,27,-1
 693 1040 l 2,28,29
 746 1040 746 1040 770.5 993 c 128,-1,30
 795 946 795 946 742 877 c 2,31,-1
 121 131 l 1,0,-1
EndSplineSet
EndChar

StartChar: braceleft
Encoding: 123 123 92
Width: 569
Flags: W
HStem: -332 158<146.023 385.157> 1616 158<522.926 862.212>
VStem: 349 149<936.445 1514.46> 349 133<936.445 1059 1059 1059 1184.21 1574.27>
DStem2: 42.5 150.5 223 181 0.438729 0.898619<-186.164 425.336>
LayerCount: 2
Back
SplineSet
308 -332 m 1,0,-1
 218 -336 l 2,1,2
 115 -338 115 -338 49.5 -275.5 c 128,-1,3
 -16 -213 -16 -213 -28 -115 c 0,4,5
 -45 -8 -45 -8 42.5 150.5 c 128,-1,6
 130 309 130 309 168 393 c 0,7,8
 250 580 250 580 93 641 c 2,9,-1
 46 659 l 2,10,11
 -4 680 -4 680 11 739 c 2,12,-1
 25 799 l 2,13,14
 35 840 35 840 97 852 c 2,15,-1
 179 868 l 2,16,17
 275 889 275 889 313 935 c 128,-1,18
 351 981 351 981 349 1059 c 128,-1,19
 347 1137 347 1137 336 1253 c 0,20,21
 308 1483 308 1483 376.5 1626 c 128,-1,22
 445 1769 445 1769 683 1774 c 2,23,-1
 826 1774 l 2,24,25
 887 1774 887 1774 873 1708 c 2,26,-1
 865 1669 l 2,27,28
 861 1647 861 1647 840.5 1631.5 c 128,-1,29
 820 1616 820 1616 797 1616 c 2,30,-1
 656 1616 l 2,31,32
 533 1616 533 1616 501.5 1541 c 128,-1,33
 470 1466 470 1466 482 1264 c 0,34,35
 496 1120 496 1120 498 1027 c 128,-1,36
 500 934 500 934 444 862.5 c 128,-1,37
 388 791 388 791 220 739 c 1,38,39
 298 702 298 702 330.5 627.5 c 128,-1,40
 363 553 363 553 349.5 483.5 c 128,-1,41
 336 414 336 414 302.5 341 c 128,-1,42
 269 268 269 268 223 181 c 128,-1,43
 177 94 177 94 147 22.5 c 128,-1,44
 117 -49 117 -49 136.5 -111.5 c 128,-1,45
 156 -174 156 -174 236 -174 c 2,46,-1
 351 -174 l 2,47,48
 412 -174 412 -174 398 -236 c 2,49,-1
 390 -274 l 2,50,51
 386 -297 386 -297 364.5 -314.5 c 128,-1,52
 343 -332 343 -332 320 -332 c 2,53,-1
 308 -332 l 1,0,-1
EndSplineSet
Fore
SplineSet
308 -332 m 1,0,-1
 218 -336 l 2,1,2
 115 -338 115 -338 49.5 -275.5 c 128,-1,3
 -16 -213 -16 -213 -28 -115 c 0,4,5
 -45 -8 -45 -8 42.5 150.5 c 128,-1,6
 130 309 130 309 168 393 c 0,7,8
 250 580 250 580 93 641 c 2,9,-1
 46 659 l 2,10,11
 -4 680 -4 680 11 739 c 2,12,-1
 25 799 l 2,13,14
 35 840 35 840 97 852 c 2,15,-1
 179 868 l 2,16,17
 275 889 275 889 313 935 c 128,-1,18
 351 981 351 981 349 1059 c 128,-1,19
 347 1137 347 1137 336 1253 c 0,20,21
 308 1483 308 1483 376.5 1626 c 128,-1,22
 445 1769 445 1769 683 1774 c 2,23,-1
 826 1774 l 2,24,25
 887 1774 887 1774 873 1708 c 2,26,-1
 865 1669 l 2,27,28
 861 1647 861 1647 840.5 1631.5 c 128,-1,29
 820 1616 820 1616 797 1616 c 2,30,-1
 656 1616 l 2,31,32
 533 1616 533 1616 501.5 1541 c 128,-1,33
 470 1466 470 1466 482 1264 c 0,34,35
 496 1120 496 1120 498 1027 c 128,-1,36
 500 934 500 934 444 862.5 c 128,-1,37
 388 791 388 791 220 739 c 1,38,39
 298 702 298 702 330.5 627.5 c 128,-1,40
 363 553 363 553 349.5 483.5 c 128,-1,41
 336 414 336 414 302.5 341 c 128,-1,42
 269 268 269 268 223 181 c 128,-1,43
 177 94 177 94 147 22.5 c 128,-1,44
 117 -49 117 -49 136.5 -111.5 c 128,-1,45
 156 -174 156 -174 236 -174 c 2,46,-1
 351 -174 l 2,47,48
 412 -174 412 -174 398 -236 c 2,49,-1
 390 -274 l 2,50,51
 386 -297 386 -297 364.5 -314.5 c 128,-1,52
 343 -332 343 -332 320 -332 c 2,53,-1
 308 -332 l 1,0,-1
EndSplineSet
EndChar

StartChar: bar
Encoding: 124 124 93
Width: 362
Flags: W
HStem: -410 21G<-106.5 -39> 1534 20G<368.5 460.5>
VStem: -143 620
DStem2: -143 -344 -2 -365 0.24789 0.968788<-43.0061 1970.2>
LayerCount: 2
Back
SplineSet
477 1507 m 2,0,-1
 -2 -365 l 2,1,2
 -14 -410 -14 -410 -64 -410 c 2,3,-1
 -90 -410 l 2,4,5
 -123 -410 -123 -410 -136.5 -391.5 c 128,-1,6
 -150 -373 -150 -373 -143 -344 c 2,7,-1
 332 1509 l 2,8,9
 344 1554 344 1554 393 1554 c 2,10,-1
 432 1554 l 2,11,12
 489 1554 489 1554 477 1507 c 2,0,-1
EndSplineSet
Fore
SplineSet
477 1507 m 2,0,-1
 -2 -365 l 2,1,2
 -14 -410 -14 -410 -64 -410 c 2,3,-1
 -90 -410 l 2,4,5
 -123 -410 -123 -410 -136.5 -391.5 c 128,-1,6
 -150 -373 -150 -373 -143 -344 c 2,7,-1
 332 1509 l 2,8,9
 344 1554 344 1554 393 1554 c 2,10,-1
 432 1554 l 2,11,12
 489 1554 489 1554 477 1507 c 2,0,-1
EndSplineSet
EndChar

StartChar: braceright
Encoding: 125 125 94
Width: 657
Flags: W
HStem: -336 158<-230.212 109.303> 1612 157<267.145 488.747>
VStem: 136 147<-105.963 513.93>
LayerCount: 2
Back
SplineSet
324 1769 m 2,0,-1
 414 1774 l 2,1,2
 517 1776 517 1776 582.5 1713.5 c 128,-1,3
 648 1651 648 1651 662.5 1539 c 128,-1,4
 677 1427 677 1427 552 1214 c 0,5,6
 502 1128 502 1128 466 1047 c 0,7,8
 380 858 380 858 539 797 c 2,9,-1
 586 778 l 2,10,11
 636 758 636 758 621 698 c 2,12,-1
 607 639 l 2,13,14
 597 598 597 598 535 586 c 0,15,16
 359 557 359 557 320 507 c 128,-1,17
 281 457 281 457 283 379 c 128,-1,18
 285 301 285 301 296 184 c 0,19,20
 324 -45 324 -45 257 -188 c 0,21,22
 187 -332 187 -332 -51 -336 c 2,23,-1
 -194 -336 l 2,24,25
 -255 -336 -255 -336 -241 -270 c 2,26,-1
 -233 -231 l 2,27,28
 -229 -209 -229 -209 -208.5 -193.5 c 128,-1,29
 -188 -178 -188 -178 -165 -178 c 2,30,-1
 -24 -178 l 2,31,32
 99 -178 99 -178 132 -102.5 c 128,-1,33
 165 -27 165 -27 151.5 146 c 128,-1,34
 138 319 138 319 136 373 c 0,35,36
 132 504 132 504 179 563 c 0,37,38
 238 641 238 641 363 682 c 0,39,40
 398 692 398 692 412 698 c 1,41,42
 334 735 334 735 300.5 810 c 128,-1,43
 267 885 267 885 282.5 954.5 c 128,-1,44
 298 1024 298 1024 330.5 1096.5 c 128,-1,45
 363 1169 363 1169 410 1256 c 128,-1,46
 457 1343 457 1343 485 1414 c 128,-1,47
 513 1485 513 1485 496.5 1548.5 c 128,-1,48
 480 1612 480 1612 396 1612 c 2,49,-1
 281 1612 l 2,50,51
 220 1612 220 1612 234 1673 c 2,52,-1
 242 1712 l 2,53,54
 246 1735 246 1735 266.5 1753.5 c 128,-1,55
 287 1772 287 1772 324 1769 c 2,0,-1
EndSplineSet
Fore
SplineSet
324 1769 m 2,0,-1
 414 1774 l 2,1,2
 517 1776 517 1776 582.5 1713.5 c 128,-1,3
 648 1651 648 1651 662.5 1539 c 128,-1,4
 677 1427 677 1427 552 1214 c 0,5,6
 502 1128 502 1128 466 1047 c 0,7,8
 380 858 380 858 539 797 c 2,9,-1
 586 778 l 2,10,11
 636 758 636 758 621 698 c 2,12,-1
 607 639 l 2,13,14
 597 598 597 598 535 586 c 0,15,16
 359 557 359 557 320 507 c 128,-1,17
 281 457 281 457 283 379 c 128,-1,18
 285 301 285 301 296 184 c 0,19,20
 324 -45 324 -45 257 -188 c 0,21,22
 187 -332 187 -332 -51 -336 c 2,23,-1
 -194 -336 l 2,24,25
 -255 -336 -255 -336 -241 -270 c 2,26,-1
 -233 -231 l 2,27,28
 -229 -209 -229 -209 -208.5 -193.5 c 128,-1,29
 -188 -178 -188 -178 -165 -178 c 2,30,-1
 -24 -178 l 2,31,32
 99 -178 99 -178 132 -102.5 c 128,-1,33
 165 -27 165 -27 151.5 146 c 128,-1,34
 138 319 138 319 136 373 c 0,35,36
 132 504 132 504 179 563 c 0,37,38
 238 641 238 641 363 682 c 0,39,40
 398 692 398 692 412 698 c 1,41,42
 334 735 334 735 300.5 810 c 128,-1,43
 267 885 267 885 282.5 954.5 c 128,-1,44
 298 1024 298 1024 330.5 1096.5 c 128,-1,45
 363 1169 363 1169 410 1256 c 128,-1,46
 457 1343 457 1343 485 1414 c 128,-1,47
 513 1485 513 1485 496.5 1548.5 c 128,-1,48
 480 1612 480 1612 396 1612 c 2,49,-1
 281 1612 l 2,50,51
 220 1612 220 1612 234 1673 c 2,52,-1
 242 1712 l 2,53,54
 246 1735 246 1735 266.5 1753.5 c 128,-1,55
 287 1772 287 1772 324 1769 c 2,0,-1
EndSplineSet
EndChar

StartChar: asciitilde
Encoding: 126 126 95
Width: 886
Flags: W
LayerCount: 2
Back
SplineSet
105 793 m 2,0,-1
 118 827 l 2,1,2
 124 856 124 856 151 868 c 0,3,4
 206 899 206 899 299 903 c 128,-1,5
 392 907 392 907 504.5 864 c 128,-1,6
 617 821 617 821 790 877 c 0,7,8
 816 885 816 885 830.5 866.5 c 128,-1,9
 845 848 845 848 837 817 c 2,10,-1
 826 776 l 2,11,12
 820 741 820 741 765 719 c 0,13,14
 620 662 620 662 467 725 c 128,-1,15
 314 788 314 788 144 723 c 0,16,17
 116 713 116 713 105.5 732.5 c 128,-1,18
 95 752 95 752 105 793 c 2,0,-1
EndSplineSet
Fore
SplineSet
105 793 m 2,0,-1
 118 827 l 2,1,2
 124 856 124 856 151 868 c 0,3,4
 206 899 206 899 299 903 c 128,-1,5
 392 907 392 907 504.5 864 c 128,-1,6
 617 821 617 821 790 877 c 0,7,8
 816 885 816 885 830.5 866.5 c 128,-1,9
 845 848 845 848 837 817 c 2,10,-1
 826 776 l 2,11,12
 820 741 820 741 765 719 c 0,13,14
 620 662 620 662 467 725 c 128,-1,15
 314 788 314 788 144 723 c 0,16,17
 116 713 116 713 105.5 732.5 c 128,-1,18
 95 752 95 752 105 793 c 2,0,-1
EndSplineSet
EndChar

StartChar: exclamdown
Encoding: 161 161 97
Width: 540
Flags: W
HStem: 1288 219<442.036 617.902>
VStem: 408 246<1321 1474.51>
LayerCount: 2
Back
SplineSet
525 1507 m 2,0,-1
 548 1507 l 2,1,2
 589 1507 589 1507 621.5 1472.5 c 128,-1,3
 654 1438 654 1438 654 1394 c 128,-1,4
 654 1350 654 1350 619 1319 c 128,-1,5
 584 1288 584 1288 533 1288 c 2,6,-1
 515 1288 l 2,7,8
 472 1288 472 1288 440 1320 c 128,-1,9
 408 1352 408 1352 408 1398 c 128,-1,10
 408 1444 408 1444 441 1475.5 c 128,-1,11
 474 1507 474 1507 525 1507 c 2,0,-1
513 1114 m 2,12,-1
 267 23 l 2,13,14
 259 -23 259 -23 206 -23 c 2,15,-1
 85 -23 l 2,16,17
 25 -23 25 -23 40 25 c 2,18,-1
 408 1116 l 2,19,20
 423 1161 423 1161 464 1161 c 2,21,-1
 476 1161 l 2,22,23
 523 1161 523 1161 513 1114 c 2,12,-1
EndSplineSet
Fore
SplineSet
525 1507 m 2,0,-1
 548 1507 l 2,1,2
 589 1507 589 1507 621.5 1472.5 c 128,-1,3
 654 1438 654 1438 654 1394 c 128,-1,4
 654 1350 654 1350 619 1319 c 128,-1,5
 584 1288 584 1288 533 1288 c 2,6,-1
 515 1288 l 2,7,8
 472 1288 472 1288 440 1320 c 128,-1,9
 408 1352 408 1352 408 1398 c 128,-1,10
 408 1444 408 1444 441 1475.5 c 128,-1,11
 474 1507 474 1507 525 1507 c 2,0,-1
513 1114 m 2,12,-1
 267 23 l 2,13,14
 259 -23 259 -23 206 -23 c 2,15,-1
 85 -23 l 2,16,17
 25 -23 25 -23 40 25 c 2,18,-1
 408 1116 l 2,19,20
 423 1161 423 1161 464 1161 c 2,21,-1
 476 1161 l 2,22,23
 523 1161 523 1161 513 1114 c 2,12,-1
EndSplineSet
EndChar

StartChar: cent
Encoding: 162 162 98
Width: 675
Flags: W
VStem: 468 144<612 953.461>
LayerCount: 2
Back
SplineSet
139 -195 m 2,0,1
 73 -195 73 -195 87 -131 c 2,2,-1
 139 53 l 1,3,4
 53 90 53 90 8.5 206 c 128,-1,5
 -36 322 -36 322 -2 508 c 128,-1,6
 32 694 32 694 145.5 854 c 128,-1,7
 259 1014 259 1014 390 1044 c 1,8,-1
 450 1268 l 2,9,10
 462 1311 462 1311 509 1311 c 2,11,-1
 554 1311 l 2,12,13
 610 1311 610 1311 597 1266 c 2,14,-1
 538 1040 l 1,15,16
 630 1008 630 1008 648.5 886 c 128,-1,17
 667 764 667 764 612 612 c 0,18,19
 601 584 601 584 554 592 c 2,20,-1
 505 604 l 2,21,22
 450 614 450 614 468 664 c 0,23,24
 511 809 511 809 506 882.5 c 128,-1,25
 501 956 501 956 454 956 c 128,-1,26
 407 956 407 956 318 848.5 c 128,-1,27
 229 741 229 741 176.5 567 c 128,-1,28
 124 393 124 393 142.5 273.5 c 128,-1,29
 161 154 161 154 215.5 154 c 128,-1,30
 270 154 270 154 326 225.5 c 128,-1,31
 382 297 382 297 421 387 c 0,32,33
 436 414 436 414 464 406 c 2,34,-1
 532 377 l 2,35,36
 579 356 579 356 556 307 c 0,37,38
 450 80 450 80 286 47 c 1,39,-1
 233 -152 l 2,40,41
 220 -195 220 -195 173 -195 c 2,42,-1
 139 -195 l 2,0,1
EndSplineSet
Fore
SplineSet
139 -195 m 2,0,1
 73 -195 73 -195 87 -131 c 2,2,-1
 139 53 l 1,3,4
 53 90 53 90 8.5 206 c 128,-1,5
 -36 322 -36 322 -2 508 c 128,-1,6
 32 694 32 694 145.5 854 c 128,-1,7
 259 1014 259 1014 390 1044 c 1,8,-1
 450 1268 l 2,9,10
 462 1311 462 1311 509 1311 c 2,11,-1
 554 1311 l 2,12,13
 610 1311 610 1311 597 1266 c 2,14,-1
 538 1040 l 1,15,16
 630 1008 630 1008 648.5 886 c 128,-1,17
 667 764 667 764 612 612 c 0,18,19
 601 584 601 584 554 592 c 2,20,-1
 505 604 l 2,21,22
 450 614 450 614 468 664 c 0,23,24
 511 809 511 809 506 882.5 c 128,-1,25
 501 956 501 956 454 956 c 128,-1,26
 407 956 407 956 318 848.5 c 128,-1,27
 229 741 229 741 176.5 567 c 128,-1,28
 124 393 124 393 142.5 273.5 c 128,-1,29
 161 154 161 154 215.5 154 c 128,-1,30
 270 154 270 154 326 225.5 c 128,-1,31
 382 297 382 297 421 387 c 0,32,33
 436 414 436 414 464 406 c 2,34,-1
 532 377 l 2,35,36
 579 356 579 356 556 307 c 0,37,38
 450 80 450 80 286 47 c 1,39,-1
 233 -152 l 2,40,41
 220 -195 220 -195 173 -195 c 2,42,-1
 139 -195 l 2,0,1
EndSplineSet
EndChar

StartChar: sterling
Encoding: 163 163 99
Width: 933
Flags: MW
HStem: -13 189<538 723> 590 141<131 224 387 687> 1307 136<510 737>
VStem: 238 150<731 1148>
LayerCount: 2
Back
SplineSet
-159 53 m 2,0,-1
 -143 104 l 1,1,2
 -139 129 -139 129 -125 139 c 0,3,4
 -63 180 -63 180 58.5 318.5 c 128,-1,5
 180 457 180 457 224 590 c 1,6,-1
 123 590 l 2,7,8
 78 590 78 590 90 647 c 2,9,-1
 101 690 l 2,10,11
 107 733 107 733 131 731 c 2,12,-1
 238 731 l 1,13,14
 215 981 215 981 269.5 1142 c 128,-1,15
 324 1303 324 1303 424.5 1376.5 c 128,-1,16
 525 1450 525 1450 664 1443 c 128,-1,17
 803 1436 803 1436 874.5 1320 c 128,-1,18
 946 1204 946 1204 885 983 c 0,19,20
 871 928 871 928 836 920 c 2,21,-1
 768 901 l 2,22,23
 738 893 738 893 727.5 911.5 c 128,-1,24
 717 930 717 930 725 952 c 0,25,26
 848 1292 848 1292 637 1307 c 0,27,28
 502 1307 502 1307 436.5 1162.5 c 128,-1,29
 371 1018 371 1018 387 731 c 1,30,-1
 660 731 l 2,31,32
 707 731 707 731 697 684 c 2,33,-1
 686 631 l 2,34,35
 678 590 678 590 633 590 c 2,36,-1
 383 590 l 1,37,38
 367 489 367 489 299.5 388 c 128,-1,39
 232 287 232 287 160 209 c 1,40,41
 264 217 264 217 410.5 163 c 128,-1,42
 557 109 557 109 723 176 c 0,43,44
 744 182 744 182 757 168 c 128,-1,45
 770 154 770 154 762 125 c 2,46,-1
 750 68 l 2,47,48
 740 31 740 31 677.5 11.5 c 128,-1,49
 615 -8 615 -8 538 -13 c 128,-1,50
 461 -18 461 -18 325 33 c 128,-1,51
 189 84 189 84 43.5 36 c 128,-1,52
 -102 -12 -102 -12 -127.5 -14 c 128,-1,53
 -153 -16 -153 -16 -160.5 0 c 128,-1,54
 -168 16 -168 16 -159 53 c 2,0,-1
EndSplineSet
Fore
SplineSet
-159 53 m 2,0,-1
 -143 104 l 1,1,2
 -139 129 -139 129 -125 139 c 0,3,4
 -63 180 -63 180 58.5 318.5 c 128,-1,5
 180 457 180 457 224 590 c 1,6,-1
 123 590 l 2,7,8
 78 590 78 590 90 647 c 2,9,-1
 101 690 l 2,10,11
 107 733 107 733 131 731 c 2,12,-1
 238 731 l 1,13,14
 215 981 215 981 269.5 1142 c 128,-1,15
 324 1303 324 1303 424.5 1376.5 c 128,-1,16
 525 1450 525 1450 664 1443 c 128,-1,17
 803 1436 803 1436 874.5 1320 c 128,-1,18
 946 1204 946 1204 885 983 c 0,19,20
 871 928 871 928 836 920 c 2,21,-1
 768 901 l 2,22,23
 738 893 738 893 727.5 911.5 c 128,-1,24
 717 930 717 930 725 952 c 0,25,26
 848 1292 848 1292 637 1307 c 0,27,28
 502 1307 502 1307 436.5 1162.5 c 128,-1,29
 371 1018 371 1018 387 731 c 1,30,-1
 660 731 l 2,31,32
 707 731 707 731 697 684 c 2,33,-1
 686 631 l 2,34,35
 678 590 678 590 633 590 c 2,36,-1
 383 590 l 1,37,38
 367 489 367 489 299.5 388 c 128,-1,39
 232 287 232 287 160 209 c 1,40,41
 264 217 264 217 410.5 163 c 128,-1,42
 557 109 557 109 723 176 c 0,43,44
 744 182 744 182 757 168 c 128,-1,45
 770 154 770 154 762 125 c 2,46,-1
 750 68 l 2,47,48
 740 31 740 31 677.5 11.5 c 128,-1,49
 615 -8 615 -8 538 -13 c 128,-1,50
 461 -18 461 -18 325 33 c 128,-1,51
 189 84 189 84 43.5 36 c 128,-1,52
 -102 -12 -102 -12 -127.5 -14 c 128,-1,53
 -153 -16 -153 -16 -160.5 0 c 128,-1,54
 -168 16 -168 16 -159 53 c 2,0,-1
EndSplineSet
EndChar

StartChar: currency
Encoding: 164 164 100
Width: 1048
Flags: W
HStem: 136 122<415.65 564.923> 906 125<572.812 731.523>
VStem: 229 172<306.284 630.791> 745 168<529.12 870.437>
DStem2: 450 1153 289 1077 0.295684 -0.955286<-60.6834 189.829>
LayerCount: 2
Back
SplineSet
229 399 m 0,0,1
 237 623 237 623 367 825 c 1,2,-1
 289 1077 l 2,3,4
 266 1147 266 1147 297 1167 c 2,5,-1
 367 1206 l 2,6,7
 393 1225 393 1225 416.5 1208.5 c 128,-1,8
 440 1192 440 1192 450 1153 c 2,9,-1
 504 971 l 1,10,11
 598 1032 598 1032 680 1031 c 128,-1,12
 762 1030 762 1030 803 1006 c 1,13,-1
 907 1165 l 2,14,15
 940 1214 940 1214 977 1192 c 2,16,-1
 1028 1161 l 2,17,18
 1063 1141 1063 1141 1065 1122.5 c 128,-1,19
 1067 1104 1067 1104 1044 1075 c 2,20,-1
 901 893 l 1,21,22
 917 840 917 840 913 756 c 0,23,24
 905 518 905 518 745 293 c 1,25,-1
 815 78 l 2,26,27
 825 49 825 49 816 33.5 c 128,-1,28
 807 18 807 18 772 0 c 2,29,-1
 737 -20 l 2,30,31
 655 -63 655 -63 635 25 c 2,32,-1
 600 168 l 1,33,34
 526 135 526 135 456.5 136 c 128,-1,35
 387 137 387 137 344 162 c 1,36,-1
 254 14 l 2,37,38
 231 -18 231 -18 212.5 -18 c 128,-1,39
 194 -18 194 -18 184 -10 c 2,40,-1
 123 31 l 2,41,42
 92 49 92 49 87 65.5 c 128,-1,43
 82 82 82 82 104 115 c 2,44,-1
 235 305 l 1,45,46
 227 346 227 346 229 399 c 0,0,1
592 330 m 0,47,48
 737 512 737 512 745 737 c 0,49,50
 747 838 747 838 732 871.5 c 128,-1,51
 717 905 717 905 668.5 906 c 128,-1,52
 620 907 620 907 581.5 870.5 c 128,-1,53
 543 834 543 834 504 770 c 0,54,55
 412 618 412 618 401 416 c 0,56,57
 397 262 397 262 469 258 c 0,58,59
 530 256 530 256 592 330 c 0,47,48
EndSplineSet
Fore
SplineSet
229 399 m 0,0,1
 237 623 237 623 367 825 c 1,2,-1
 289 1077 l 2,3,4
 266 1147 266 1147 297 1167 c 2,5,-1
 367 1206 l 2,6,7
 393 1225 393 1225 416.5 1208.5 c 128,-1,8
 440 1192 440 1192 450 1153 c 2,9,-1
 504 971 l 1,10,11
 598 1032 598 1032 680 1031 c 128,-1,12
 762 1030 762 1030 803 1006 c 1,13,-1
 907 1165 l 2,14,15
 940 1214 940 1214 977 1192 c 2,16,-1
 1028 1161 l 2,17,18
 1063 1141 1063 1141 1065 1122.5 c 128,-1,19
 1067 1104 1067 1104 1044 1075 c 2,20,-1
 901 893 l 1,21,22
 917 840 917 840 913 756 c 0,23,24
 905 518 905 518 745 293 c 1,25,-1
 815 78 l 2,26,27
 825 49 825 49 816 33.5 c 128,-1,28
 807 18 807 18 772 0 c 2,29,-1
 737 -20 l 2,30,31
 655 -63 655 -63 635 25 c 2,32,-1
 600 168 l 1,33,34
 526 135 526 135 456.5 136 c 128,-1,35
 387 137 387 137 344 162 c 1,36,-1
 254 14 l 2,37,38
 231 -18 231 -18 212.5 -18 c 128,-1,39
 194 -18 194 -18 184 -10 c 2,40,-1
 123 31 l 2,41,42
 92 49 92 49 87 65.5 c 128,-1,43
 82 82 82 82 104 115 c 2,44,-1
 235 305 l 1,45,46
 227 346 227 346 229 399 c 0,0,1
592 330 m 0,47,48
 737 512 737 512 745 737 c 0,49,50
 747 838 747 838 732 871.5 c 128,-1,51
 717 905 717 905 668.5 906 c 128,-1,52
 620 907 620 907 581.5 870.5 c 128,-1,53
 543 834 543 834 504 770 c 0,54,55
 412 618 412 618 401 416 c 0,56,57
 397 262 397 262 469 258 c 0,58,59
 530 256 530 256 592 330 c 0,47,48
EndSplineSet
EndChar

StartChar: yen
Encoding: 165 165 101
Width: 983
Flags: W
HStem: 0 21G<247 343.5> 313 129<-26.7471 877.78> 571 129<28.2532 932.869>
VStem: 218 162<19.08 101.422> 362 129<768 1095.05>
LayerCount: 2
Back
SplineSet
57 700 m 2,0,-1
 905 700 l 2,1,2
 952 700 952 700 941 655 c 2,3,-1
 933 614 l 2,4,5
 923 571 923 571 866 571 c 2,6,-1
 46 571 l 2,7,8
 -15 571 -15 571 1 625 c 2,9,-1
 12 659 l 2,10,11
 20 686 20 686 28 693 c 128,-1,12
 36 700 36 700 57 700 c 2,0,-1
1 442 m 2,13,-1
 849 442 l 2,14,15
 896 442 896 442 886 397 c 2,16,-1
 878 356 l 2,17,18
 868 313 868 313 810 313 c 2,19,-1
 -9 313 l 2,20,21
 -70 313 -70 313 -54 367 c 2,22,-1
 -44 401 l 2,23,24
 -35 428 -35 428 -27 435 c 128,-1,25
 -19 442 -19 442 1 442 c 2,13,-1
491 768 m 1,26,27
 681 1053 681 1053 760 1189 c 128,-1,28
 839 1325 839 1325 900 1456 c 0,29,30
 915 1487 915 1487 962 1483 c 2,31,-1
 1025 1475 l 2,32,33
 1048 1473 1048 1473 1057 1453.5 c 128,-1,34
 1066 1434 1066 1434 1050 1401 c 0,35,36
 814 989 814 989 520 596 c 1,37,-1
 380 45 l 2,38,39
 368 0 368 0 319 0 c 2,40,-1
 259 0 l 2,41,42
 235 0 235 0 223.5 18.5 c 128,-1,43
 212 37 212 37 218 63 c 2,44,-1
 362 629 l 1,45,46
 362 764 362 764 330 1013 c 128,-1,47
 298 1262 298 1262 266 1391 c 0,48,49
 253 1427 253 1427 266.5 1453 c 128,-1,50
 280 1479 280 1479 311 1481 c 2,51,-1
 368 1489 l 2,52,53
 397 1491 397 1491 409 1482 c 128,-1,54
 421 1473 421 1473 427 1440 c 0,55,56
 491 1059 491 1059 491 768 c 1,26,27
EndSplineSet
Fore
SplineSet
57 700 m 2,0,-1
 905 700 l 2,1,2
 952 700 952 700 941 655 c 2,3,-1
 933 614 l 2,4,5
 923 571 923 571 866 571 c 2,6,-1
 46 571 l 2,7,8
 -15 571 -15 571 1 625 c 2,9,-1
 12 659 l 2,10,11
 20 686 20 686 28 693 c 128,-1,12
 36 700 36 700 57 700 c 2,0,-1
1 442 m 2,13,-1
 849 442 l 2,14,15
 896 442 896 442 886 397 c 2,16,-1
 878 356 l 2,17,18
 868 313 868 313 810 313 c 2,19,-1
 -9 313 l 2,20,21
 -70 313 -70 313 -54 367 c 2,22,-1
 -44 401 l 2,23,24
 -35 428 -35 428 -27 435 c 128,-1,25
 -19 442 -19 442 1 442 c 2,13,-1
491 768 m 1,26,27
 681 1053 681 1053 760 1189 c 128,-1,28
 839 1325 839 1325 900 1456 c 0,29,30
 915 1487 915 1487 962 1483 c 2,31,-1
 1025 1475 l 2,32,33
 1048 1473 1048 1473 1057 1453.5 c 128,-1,34
 1066 1434 1066 1434 1050 1401 c 0,35,36
 814 989 814 989 520 596 c 1,37,-1
 380 45 l 2,38,39
 368 0 368 0 319 0 c 2,40,-1
 259 0 l 2,41,42
 235 0 235 0 223.5 18.5 c 128,-1,43
 212 37 212 37 218 63 c 2,44,-1
 362 629 l 1,45,46
 362 764 362 764 330 1013 c 128,-1,47
 298 1262 298 1262 266 1391 c 0,48,49
 253 1427 253 1427 266.5 1453 c 128,-1,50
 280 1479 280 1479 311 1481 c 2,51,-1
 368 1489 l 2,52,53
 397 1491 397 1491 409 1482 c 128,-1,54
 421 1473 421 1473 427 1440 c 0,55,56
 491 1059 491 1059 491 768 c 1,26,27
EndSplineSet
EndChar

StartChar: brokenbar
Encoding: 166 166 102
Width: 366
Flags: W
VStem: -151 626
DStem2: -151 -365 -6 -367 0.247867 0.968794<-23.3845 861.342 1114.19 1999.38>
LayerCount: 2
Back
SplineSet
197 412 m 2,0,-1
 -6 -367 l 2,1,2
 -18 -412 -18 -412 -67 -412 c 2,3,-1
 -106 -412 l 2,4,5
 -164 -412 -164 -412 -151 -365 c 2,6,-1
 51 414 l 2,7,8
 64 459 64 459 113 459 c 2,9,-1
 152 459 l 2,10,11
 209 459 209 459 197 412 c 2,0,-1
475 1513 m 2,12,-1
 273 735 l 2,13,14
 260 690 260 690 211 690 c 2,15,-1
 172 690 l 2,16,17
 115 690 115 690 127 737 c 2,18,-1
 330 1516 l 2,19,20
 342 1561 342 1561 391 1561 c 2,21,-1
 430 1561 l 2,22,23
 488 1561 488 1561 475 1513 c 2,12,-1
EndSplineSet
Fore
SplineSet
197 412 m 2,0,-1
 -6 -367 l 2,1,2
 -18 -412 -18 -412 -67 -412 c 2,3,-1
 -106 -412 l 2,4,5
 -164 -412 -164 -412 -151 -365 c 2,6,-1
 51 414 l 2,7,8
 64 459 64 459 113 459 c 2,9,-1
 152 459 l 2,10,11
 209 459 209 459 197 412 c 2,0,-1
475 1513 m 2,12,-1
 273 735 l 2,13,14
 260 690 260 690 211 690 c 2,15,-1
 172 690 l 2,16,17
 115 690 115 690 127 737 c 2,18,-1
 330 1516 l 2,19,20
 342 1561 342 1561 391 1561 c 2,21,-1
 430 1561 l 2,22,23
 488 1561 488 1561 475 1513 c 2,12,-1
EndSplineSet
EndChar

StartChar: section
Encoding: 167 167 103
Width: 854
Flags: W
HStem: -172 151.5<145.961 208>
VStem: -31 158<8.18945 201.787> 115 166<577.578 804.239> 332 166<1073.45 1297.91> 378 165<93.4027 334.771>
LayerCount: 2
Back
SplineSet
537 365 m 1,0,1
 543 340 543 340 543 311 c 0,2,3
 543 133 543 133 438.5 -19.5 c 128,-1,4
 334 -172 334 -172 168 -172 c 0,5,6
 -31 -172 -31 -172 -31 160 c 0,7,8
 -31 217 -31 217 8 236 c 2,9,-1
 68 266 l 2,10,11
 94 281 94 281 110.5 270.5 c 128,-1,12
 127 260 127 260 129 246.5 c 128,-1,13
 131 233 131 233 127 185 c 128,-1,14
 123 137 123 137 127 91 c 128,-1,15
 131 45 131 45 145.5 7 c 128,-1,16
 160 -31 160 -31 208 -20.5 c 128,-1,17
 256 -10 256 -10 312.5 60.5 c 128,-1,18
 369 131 369 131 378 214 c 128,-1,19
 387 297 387 297 366.5 336 c 128,-1,20
 346 375 346 375 276 412 c 0,21,22
 115 496 115 496 115 610 c 0,23,24
 115 750 115 750 185.5 869.5 c 128,-1,25
 256 989 256 989 348 1036 c 1,26,27
 332 1069 332 1069 332 1106 c 0,28,29
 332 1278 332 1278 435.5 1415 c 128,-1,30
 539 1552 539 1552 650.5 1552 c 128,-1,31
 762 1552 762 1552 834.5 1464 c 128,-1,32
 907 1376 907 1376 895 1198 c 0,33,34
 891 1161 891 1161 856 1147 c 2,35,-1
 784 1126 l 2,36,37
 762 1122 762 1122 750.5 1129.5 c 128,-1,38
 739 1137 739 1137 741 1163 c 0,39,40
 756 1405 756 1405 651 1411 c 1,41,42
 594 1397 594 1397 547 1308 c 128,-1,43
 500 1219 500 1219 498 1167.5 c 128,-1,44
 496 1116 496 1116 525.5 1087.5 c 128,-1,45
 555 1059 555 1059 657.5 997.5 c 128,-1,46
 760 936 760 936 760 806 c 128,-1,47
 760 676 760 676 700.5 550 c 128,-1,48
 641 424 641 424 537 365 c 1,0,1
475 918 m 1,49,50
 389 924 389 924 335 822.5 c 128,-1,51
 281 721 281 721 281 669.5 c 128,-1,52
 281 618 281 618 309.5 590.5 c 128,-1,53
 338 563 338 563 388 533.5 c 128,-1,54
 438 504 438 504 457 489 c 1,55,56
 512 520 512 520 553 588.5 c 128,-1,57
 594 657 594 657 599 754.5 c 128,-1,58
 604 852 604 852 475 918 c 1,49,50
EndSplineSet
Fore
SplineSet
537 365 m 1,0,1
 543 340 543 340 543 311 c 0,2,3
 543 133 543 133 438.5 -19.5 c 128,-1,4
 334 -172 334 -172 168 -172 c 0,5,6
 -31 -172 -31 -172 -31 160 c 0,7,8
 -31 217 -31 217 8 236 c 2,9,-1
 68 266 l 2,10,11
 94 281 94 281 110.5 270.5 c 128,-1,12
 127 260 127 260 129 246.5 c 128,-1,13
 131 233 131 233 127 185 c 128,-1,14
 123 137 123 137 127 91 c 128,-1,15
 131 45 131 45 145.5 7 c 128,-1,16
 160 -31 160 -31 208 -20.5 c 128,-1,17
 256 -10 256 -10 312.5 60.5 c 128,-1,18
 369 131 369 131 378 214 c 128,-1,19
 387 297 387 297 366.5 336 c 128,-1,20
 346 375 346 375 276 412 c 0,21,22
 115 496 115 496 115 610 c 0,23,24
 115 750 115 750 185.5 869.5 c 128,-1,25
 256 989 256 989 348 1036 c 1,26,27
 332 1069 332 1069 332 1106 c 0,28,29
 332 1278 332 1278 435.5 1415 c 128,-1,30
 539 1552 539 1552 650.5 1552 c 128,-1,31
 762 1552 762 1552 834.5 1464 c 128,-1,32
 907 1376 907 1376 895 1198 c 0,33,34
 891 1161 891 1161 856 1147 c 2,35,-1
 784 1126 l 2,36,37
 762 1122 762 1122 750.5 1129.5 c 128,-1,38
 739 1137 739 1137 741 1163 c 0,39,40
 756 1405 756 1405 651 1411 c 1,41,42
 594 1397 594 1397 547 1308 c 128,-1,43
 500 1219 500 1219 498 1167.5 c 128,-1,44
 496 1116 496 1116 525.5 1087.5 c 128,-1,45
 555 1059 555 1059 657.5 997.5 c 128,-1,46
 760 936 760 936 760 806 c 128,-1,47
 760 676 760 676 700.5 550 c 128,-1,48
 641 424 641 424 537 365 c 1,0,1
475 918 m 1,49,50
 389 924 389 924 335 822.5 c 128,-1,51
 281 721 281 721 281 669.5 c 128,-1,52
 281 618 281 618 309.5 590.5 c 128,-1,53
 338 563 338 563 388 533.5 c 128,-1,54
 438 504 438 504 457 489 c 1,55,56
 512 520 512 520 553 588.5 c 128,-1,57
 594 657 594 657 599 754.5 c 128,-1,58
 604 852 604 852 475 918 c 1,49,50
EndSplineSet
EndChar

StartChar: dieresis
Encoding: 168 168 104
Width: 1071
Flags: W
HStem: 1235 199<326.394 477.574 654.394 805.059>
VStem: 297 211<1264.39 1403.06> 625 211<1264.39 1403.06>
LayerCount: 2
Back
SplineSet
397 1434 m 2,0,-1
 416 1434 l 2,1,2
 451 1434 451 1434 479.5 1403 c 128,-1,3
 508 1372 508 1372 508 1332 c 128,-1,4
 508 1292 508 1292 478.5 1263.5 c 128,-1,5
 449 1235 449 1235 403 1235 c 2,6,-1
 387 1235 l 2,7,8
 352 1235 352 1235 324.5 1264.5 c 128,-1,9
 297 1294 297 1294 297 1334 c 128,-1,10
 297 1374 297 1374 325.5 1404 c 128,-1,11
 354 1434 354 1434 397 1434 c 2,0,-1
725 1434 m 2,12,-1
 743 1434 l 2,13,14
 778 1434 778 1434 807 1403 c 128,-1,15
 836 1372 836 1372 836 1332 c 128,-1,16
 836 1292 836 1292 806 1263.5 c 128,-1,17
 776 1235 776 1235 731 1235 c 2,18,-1
 715 1235 l 2,19,20
 680 1235 680 1235 652.5 1264.5 c 128,-1,21
 625 1294 625 1294 625 1334 c 128,-1,22
 625 1374 625 1374 653.5 1404 c 128,-1,23
 682 1434 682 1434 725 1434 c 2,12,-1
EndSplineSet
Fore
SplineSet
397 1434 m 2,0,-1
 416 1434 l 2,1,2
 451 1434 451 1434 479.5 1403 c 128,-1,3
 508 1372 508 1372 508 1332 c 128,-1,4
 508 1292 508 1292 478.5 1263.5 c 128,-1,5
 449 1235 449 1235 403 1235 c 2,6,-1
 387 1235 l 2,7,8
 352 1235 352 1235 324.5 1264.5 c 128,-1,9
 297 1294 297 1294 297 1334 c 128,-1,10
 297 1374 297 1374 325.5 1404 c 128,-1,11
 354 1434 354 1434 397 1434 c 2,0,-1
725 1434 m 2,12,-1
 743 1434 l 2,13,14
 778 1434 778 1434 807 1403 c 128,-1,15
 836 1372 836 1372 836 1332 c 128,-1,16
 836 1292 836 1292 806 1263.5 c 128,-1,17
 776 1235 776 1235 731 1235 c 2,18,-1
 715 1235 l 2,19,20
 680 1235 680 1235 652.5 1264.5 c 128,-1,21
 625 1294 625 1294 625 1334 c 128,-1,22
 625 1374 625 1374 653.5 1404 c 128,-1,23
 682 1434 682 1434 725 1434 c 2,12,-1
EndSplineSet
EndChar

StartChar: copyright
Encoding: 169 169 105
Width: 1593
Flags: W
HStem: -16 112<484.862 917.359> 1384 111<658.569 1067.18>
LayerCount: 2
Back
SplineSet
122 868 m 0,0,1
 195 1135 195 1135 404 1315 c 128,-1,2
 613 1495 613 1495 863 1495 c 0,3,4
 1158 1495 1158 1495 1328 1290 c 0,5,6
 1404 1200 1404 1200 1441 1075 c 0,7,8
 1506 838 1506 838 1437 590 c 0,9,10
 1357 301 1357 301 1160 142.5 c 128,-1,11
 963 -16 963 -16 690 -16 c 128,-1,12
 417 -16 417 -16 234 166 c 0,13,14
 124 279 124 279 94 474.5 c 128,-1,15
 64 670 64 670 122 868 c 0,0,1
259 819 m 0,16,17
 181 516 181 516 306 306 c 128,-1,18
 431 96 431 96 703 96 c 0,19,20
 925 96 925 96 1081.5 254 c 128,-1,21
 1238 412 1238 412 1299 655 c 0,22,23
 1338 791 1338 791 1321.5 921 c 128,-1,24
 1305 1051 1305 1051 1255 1154 c 128,-1,25
 1205 1257 1205 1257 1103.5 1320.5 c 128,-1,26
 1002 1384 1002 1384 869 1384 c 0,27,28
 650 1384 650 1384 486 1223.5 c 128,-1,29
 322 1063 322 1063 259 819 c 0,16,17
679 348 m 1,30,31
 730 358 730 358 788.5 440 c 128,-1,32
 847 522 847 522 873 600 c 0,33,34
 882 627 882 627 906 616 c 2,35,-1
 982 586 l 2,36,37
 1013 571 1013 571 1000 543 c 0,38,39
 943 408 943 408 857 327 c 128,-1,40
 771 246 771 246 683 246 c 128,-1,41
 595 246 595 246 537.5 293 c 128,-1,42
 480 340 480 340 450.5 455.5 c 128,-1,43
 421 571 421 571 467 769 c 128,-1,44
 513 967 513 967 645 1101 c 128,-1,45
 777 1235 777 1235 941 1221 c 0,46,47
 1064 1206 1064 1206 1094.5 1114 c 128,-1,48
 1125 1022 1125 1022 1045 825 c 0,49,50
 1033 799 1033 799 1002 803 c 2,51,-1
 939 815 l 2,52,53
 898 821 898 821 910 858 c 0,54,55
 1006 1106 1006 1106 908 1122 c 0,56,57
 859 1130 859 1130 796.5 1083 c 128,-1,58
 734 1036 734 1036 687 953 c 128,-1,59
 640 870 640 870 604 740 c 128,-1,60
 568 610 568 610 584.5 484 c 128,-1,61
 601 358 601 358 679 348 c 1,30,31
EndSplineSet
Fore
SplineSet
122 868 m 0,0,1
 195 1135 195 1135 404 1315 c 128,-1,2
 613 1495 613 1495 863 1495 c 0,3,4
 1158 1495 1158 1495 1328 1290 c 0,5,6
 1404 1200 1404 1200 1441 1075 c 0,7,8
 1506 838 1506 838 1437 590 c 0,9,10
 1357 301 1357 301 1160 142.5 c 128,-1,11
 963 -16 963 -16 690 -16 c 128,-1,12
 417 -16 417 -16 234 166 c 0,13,14
 124 279 124 279 94 474.5 c 128,-1,15
 64 670 64 670 122 868 c 0,0,1
259 819 m 0,16,17
 181 516 181 516 306 306 c 128,-1,18
 431 96 431 96 703 96 c 0,19,20
 925 96 925 96 1081.5 254 c 128,-1,21
 1238 412 1238 412 1299 655 c 0,22,23
 1338 791 1338 791 1321.5 921 c 128,-1,24
 1305 1051 1305 1051 1255 1154 c 128,-1,25
 1205 1257 1205 1257 1103.5 1320.5 c 128,-1,26
 1002 1384 1002 1384 869 1384 c 0,27,28
 650 1384 650 1384 486 1223.5 c 128,-1,29
 322 1063 322 1063 259 819 c 0,16,17
679 348 m 1,30,31
 730 358 730 358 788.5 440 c 128,-1,32
 847 522 847 522 873 600 c 0,33,34
 882 627 882 627 906 616 c 2,35,-1
 982 586 l 2,36,37
 1013 571 1013 571 1000 543 c 0,38,39
 943 408 943 408 857 327 c 128,-1,40
 771 246 771 246 683 246 c 128,-1,41
 595 246 595 246 537.5 293 c 128,-1,42
 480 340 480 340 450.5 455.5 c 128,-1,43
 421 571 421 571 467 769 c 128,-1,44
 513 967 513 967 645 1101 c 128,-1,45
 777 1235 777 1235 941 1221 c 0,46,47
 1064 1206 1064 1206 1094.5 1114 c 128,-1,48
 1125 1022 1125 1022 1045 825 c 0,49,50
 1033 799 1033 799 1002 803 c 2,51,-1
 939 815 l 2,52,53
 898 821 898 821 910 858 c 0,54,55
 1006 1106 1006 1106 908 1122 c 0,56,57
 859 1130 859 1130 796.5 1083 c 128,-1,58
 734 1036 734 1036 687 953 c 128,-1,59
 640 870 640 870 604 740 c 128,-1,60
 568 610 568 610 584.5 484 c 128,-1,61
 601 358 601 358 679 348 c 1,30,31
EndSplineSet
EndChar

StartChar: ordfeminine
Encoding: 170 170 106
Width: 604
Flags: W
HStem: 1190 104<311 452>
VStem: 98.5 134<931.649 1110.55>
LayerCount: 2
Back
SplineSet
472 932 m 1,0,1
 550 975 550 975 589 1042 c 0,2,3
 601 1065 601 1065 622 1055 c 2,4,-1
 652 1040 l 2,5,6
 677 1028 677 1028 665 1010 c 0,7,8
 571 850 571 850 437 819 c 0,9,10
 401 813 401 813 390 831 c 2,11,-1
 368 870 l 1,12,13
 280 793 280 793 191 832.5 c 128,-1,14
 102 872 102 872 98.5 968.5 c 128,-1,15
 95 1065 95 1065 153.5 1143 c 128,-1,16
 212 1221 212 1221 300 1260.5 c 128,-1,17
 388 1300 388 1300 476 1294 c 1,18,19
 515 1452 515 1452 474 1475 c 1,20,21
 413 1468 413 1468 315 1354 c 2,22,-1
 298 1335 l 2,23,24
 286 1323 286 1323 272 1333 c 2,25,-1
 235 1368 l 2,26,27
 216 1382 216 1382 222 1399 c 0,28,29
 247 1450 247 1450 330 1512.5 c 128,-1,30
 413 1575 413 1575 463 1573 c 128,-1,31
 513 1571 513 1571 557 1544.5 c 128,-1,32
 601 1518 601 1518 611.5 1468.5 c 128,-1,33
 622 1419 622 1419 603 1317 c 0,34,35
 560 1098 560 1098 472 932 c 1,0,1
452 1190 m 1,36,37
 358 1188 358 1188 301.5 1137.5 c 128,-1,38
 245 1087 245 1087 232.5 1017.5 c 128,-1,39
 220 948 220 948 263 933 c 128,-1,40
 306 918 306 918 345 959.5 c 128,-1,41
 384 1001 384 1001 411.5 1074 c 128,-1,42
 439 1147 439 1147 452 1190 c 1,36,37
EndSplineSet
Fore
SplineSet
472 932 m 1,0,1
 550 975 550 975 589 1042 c 0,2,3
 601 1065 601 1065 622 1055 c 2,4,-1
 652 1040 l 2,5,6
 677 1028 677 1028 665 1010 c 0,7,8
 571 850 571 850 437 819 c 0,9,10
 401 813 401 813 390 831 c 2,11,-1
 368 870 l 1,12,13
 280 793 280 793 191 832.5 c 128,-1,14
 102 872 102 872 98.5 968.5 c 128,-1,15
 95 1065 95 1065 153.5 1143 c 128,-1,16
 212 1221 212 1221 300 1260.5 c 128,-1,17
 388 1300 388 1300 476 1294 c 1,18,19
 515 1452 515 1452 474 1475 c 1,20,21
 413 1468 413 1468 315 1354 c 2,22,-1
 298 1335 l 2,23,24
 286 1323 286 1323 272 1333 c 2,25,-1
 235 1368 l 2,26,27
 216 1382 216 1382 222 1399 c 0,28,29
 247 1450 247 1450 330 1512.5 c 128,-1,30
 413 1575 413 1575 463 1573 c 128,-1,31
 513 1571 513 1571 557 1544.5 c 128,-1,32
 601 1518 601 1518 611.5 1468.5 c 128,-1,33
 622 1419 622 1419 603 1317 c 0,34,35
 560 1098 560 1098 472 932 c 1,0,1
452 1190 m 1,36,37
 358 1188 358 1188 301.5 1137.5 c 128,-1,38
 245 1087 245 1087 232.5 1017.5 c 128,-1,39
 220 948 220 948 263 933 c 128,-1,40
 306 918 306 918 345 959.5 c 128,-1,41
 384 1001 384 1001 411.5 1074 c 128,-1,42
 439 1147 439 1147 452 1190 c 1,36,37
EndSplineSet
EndChar

StartChar: logicalnot
Encoding: 172 172 108
Width: 1720
Flags: W
HStem: 772 152<268.989 1252>
DStem2: 1164 444 1322 442 0.262081 0.965046<-19.0997 339.598>
LayerCount: 2
Back
SplineSet
1252 772 m 1,0,-1
 276 772 l 2,1,2
 216 772 216 772 237 846 c 2,3,-1
 243 866 l 2,4,5
 253 903 253 903 268.5 913.5 c 128,-1,6
 284 924 284 924 319 924 c 2,7,-1
 1371 924 l 2,8,9
 1453 924 1453 924 1429 836 c 2,10,-1
 1322 442 l 2,11,12
 1310 397 1310 397 1261 397 c 2,13,-1
 1209 397 l 2,14,15
 1152 397 1152 397 1164 444 c 2,16,-1
 1252 772 l 1,0,-1
EndSplineSet
Fore
SplineSet
1252 772 m 1,0,-1
 276 772 l 2,1,2
 216 772 216 772 237 846 c 2,3,-1
 243 866 l 2,4,5
 253 903 253 903 268.5 913.5 c 128,-1,6
 284 924 284 924 319 924 c 2,7,-1
 1371 924 l 2,8,9
 1453 924 1453 924 1429 836 c 2,10,-1
 1322 442 l 2,11,12
 1310 397 1310 397 1261 397 c 2,13,-1
 1209 397 l 2,14,15
 1152 397 1152 397 1164 444 c 2,16,-1
 1252 772 l 1,0,-1
EndSplineSet
EndChar

StartChar: registered
Encoding: 174 174 109
Width: 1593
Flags: W
HStem: -16 112<484.862 917.218> 651 103<701 761> 1384 108<657.779 1067>
DStem2: 451 334 587 322 0.261069 0.96532<-20.2154 364.486 470.702 785.232> 890 670 761 651 0.224428 -0.974491<0 371.042>
LayerCount: 2
Back
SplineSet
656 1092 m 1,0,1
 634 1087 634 1087 612.5 1083 c 128,-1,2
 591 1079 591 1079 579.5 1091.5 c 128,-1,3
 568 1104 568 1104 572 1120 c 2,4,-1
 589 1180 l 2,5,6
 593 1198 593 1198 628 1208 c 0,7,8
 744 1237 744 1237 860 1218.5 c 128,-1,9
 976 1200 976 1200 1040.5 1139.5 c 128,-1,10
 1105 1079 1105 1079 1105 986 c 128,-1,11
 1105 893 1105 893 1060 817 c 0,12,13
 994 705 994 705 890 670 c 1,14,-1
 966 340 l 2,15,16
 978 289 978 289 937 289 c 2,17,-1
 863 289 l 2,18,19
 834 289 834 289 824 328 c 2,20,-1
 761 651 l 1,21,-1
 675 651 l 1,22,-1
 587 322 l 2,23,24
 578 291 578 291 537 291 c 2,25,-1
 484 291 l 2,26,27
 466 291 466 291 456.5 303 c 128,-1,28
 447 315 447 315 451 334 c 2,29,-1
 656 1092 l 1,0,1
701 754 m 1,30,-1
 765 756 l 2,31,32
 849 760 849 760 884 788 c 0,33,34
 959 848 959 848 966 965 c 0,35,36
 970 1036 970 1036 898 1075 c 0,37,38
 857 1098 857 1098 793 1100 c 1,39,-1
 701 754 l 1,30,-1
122 868 m 0,40,41
 195 1135 195 1135 404 1315 c 128,-1,42
 613 1495 613 1495 870 1492 c 128,-1,43
 1127 1489 1127 1489 1272.5 1345.5 c 128,-1,44
 1418 1202 1418 1202 1456 1020 c 128,-1,45
 1494 838 1494 838 1437 590 c 0,46,47
 1357 301 1357 301 1160 142.5 c 128,-1,48
 963 -16 963 -16 690 -16 c 128,-1,49
 417 -16 417 -16 234 166 c 0,50,51
 124 279 124 279 94 474.5 c 128,-1,52
 64 670 64 670 122 868 c 0,40,41
259 819 m 0,53,54
 181 516 181 516 306 306 c 128,-1,55
 431 96 431 96 703 96 c 0,56,57
 925 96 925 96 1080.5 253 c 128,-1,58
 1236 410 1236 410 1299 655 c 0,59,60
 1338 791 1338 791 1321.5 921 c 128,-1,61
 1305 1051 1305 1051 1255 1154 c 128,-1,62
 1205 1257 1205 1257 1103.5 1320.5 c 128,-1,63
 1002 1384 1002 1384 869 1384 c 0,64,65
 650 1384 650 1384 486 1223.5 c 128,-1,66
 322 1063 322 1063 259 819 c 0,53,54
EndSplineSet
Fore
SplineSet
656 1092 m 1,0,1
 634 1087 634 1087 612.5 1083 c 128,-1,2
 591 1079 591 1079 579.5 1091.5 c 128,-1,3
 568 1104 568 1104 572 1120 c 2,4,-1
 589 1180 l 2,5,6
 593 1198 593 1198 628 1208 c 0,7,8
 744 1237 744 1237 860 1218.5 c 128,-1,9
 976 1200 976 1200 1040.5 1139.5 c 128,-1,10
 1105 1079 1105 1079 1105 986 c 128,-1,11
 1105 893 1105 893 1060 817 c 0,12,13
 994 705 994 705 890 670 c 1,14,-1
 966 340 l 2,15,16
 978 289 978 289 937 289 c 2,17,-1
 863 289 l 2,18,19
 834 289 834 289 824 328 c 2,20,-1
 761 651 l 1,21,-1
 675 651 l 1,22,-1
 587 322 l 2,23,24
 578 291 578 291 537 291 c 2,25,-1
 484 291 l 2,26,27
 466 291 466 291 456.5 303 c 128,-1,28
 447 315 447 315 451 334 c 2,29,-1
 656 1092 l 1,0,1
701 754 m 1,30,-1
 765 756 l 2,31,32
 849 760 849 760 884 788 c 0,33,34
 959 848 959 848 966 965 c 0,35,36
 970 1036 970 1036 898 1075 c 0,37,38
 857 1098 857 1098 793 1100 c 1,39,-1
 701 754 l 1,30,-1
122 868 m 0,40,41
 195 1135 195 1135 404 1315 c 128,-1,42
 613 1495 613 1495 870 1492 c 128,-1,43
 1127 1489 1127 1489 1272.5 1345.5 c 128,-1,44
 1418 1202 1418 1202 1456 1020 c 128,-1,45
 1494 838 1494 838 1437 590 c 0,46,47
 1357 301 1357 301 1160 142.5 c 128,-1,48
 963 -16 963 -16 690 -16 c 128,-1,49
 417 -16 417 -16 234 166 c 0,50,51
 124 279 124 279 94 474.5 c 128,-1,52
 64 670 64 670 122 868 c 0,40,41
259 819 m 0,53,54
 181 516 181 516 306 306 c 128,-1,55
 431 96 431 96 703 96 c 0,56,57
 925 96 925 96 1080.5 253 c 128,-1,58
 1236 410 1236 410 1299 655 c 0,59,60
 1338 791 1338 791 1321.5 921 c 128,-1,61
 1305 1051 1305 1051 1255 1154 c 128,-1,62
 1205 1257 1205 1257 1103.5 1320.5 c 128,-1,63
 1002 1384 1002 1384 869 1384 c 0,64,65
 650 1384 650 1384 486 1223.5 c 128,-1,66
 322 1063 322 1063 259 819 c 0,53,54
EndSplineSet
EndChar

StartChar: macron
Encoding: 175 175 110
Width: 815
Flags: W
HStem: 1602 116<113.219 877.228>
LayerCount: 2
Back
SplineSet
150 1718 m 2,0,-1
 869 1718 l 2,1,2
 899 1718 899 1718 882 1660 c 128,-1,3
 865 1602 865 1602 838 1602 c 2,4,-1
 133 1602 l 2,5,6
 101 1602 101 1602 99 1616 c 128,-1,7
 97 1630 97 1630 109 1659 c 2,8,-1
 119 1694 l 2,9,10
 127 1718 127 1718 150 1718 c 2,0,-1
EndSplineSet
Fore
SplineSet
150 1718 m 2,0,-1
 869 1718 l 2,1,2
 899 1718 899 1718 882 1660 c 128,-1,3
 865 1602 865 1602 838 1602 c 2,4,-1
 133 1602 l 2,5,6
 101 1602 101 1602 99 1616 c 128,-1,7
 97 1630 97 1630 109 1659 c 2,8,-1
 119 1694 l 2,9,10
 127 1718 127 1718 150 1718 c 2,0,-1
EndSplineSet
EndChar

